{
.appVersion = "1131";
DisplayStrings = (
"Waih/imacron"
);
classes = (
{
code = "A B C D E F G H I J K L M N O P Q R S T U V W X Y Z a b c d e f g h i j k l m n o p q r s t u v w x y z";
name = DEFAULT;
},
{
code = "A.alt1 B.alt1 C.alt1 D.alt1 E.alt1 F.alt1 G.alt1 H.alt1 I.alt1 J.alt1 K.alt1 L.alt1 M.alt1 N.alt1 O.alt1 P.alt1 Q.alt1 R.alt1 S.alt1 T.alt1 U.alt1 V.alt1 W.alt1 X.alt1 Y.alt1 Z.alt1 a.alt1 b.alt1 c.alt1 d.alt1 e.alt1 f.alt1 g.alt1 h.alt1 i.alt1 j.alt1 k.alt1 l.alt1 m.alt1 n.alt1 o.alt1 p.alt1 q.alt1 r.alt1 s.alt1 t.alt1 u.alt1 v.alt1 w.alt1 x.alt1 y.alt1 z.alt1";
name = ALT1;
},
{
code = "B C D F G H J K L M N P Q R S T V W X Y Z b c d f g h j k l m n p q r s t v w x y z";
name = Con0;
},
{
code = "B.alt1 C.alt1 D.alt1 F.alt1 G.alt1 H.alt1 J.alt1 K.alt1 L.alt1 M.alt1 N.alt1 P.alt1 Q.alt1 R.alt1 S.alt1 T.alt1 V.alt1 W.alt1 X.alt1 Y.alt1 Z.alt1 b.alt1 c.alt1 d.alt1 f.alt1 g.alt1 h.alt1 j.alt1 k.alt1 l.alt1 m.alt1 n.alt1 p.alt1 q.alt1 r.alt1 s.alt1 t.alt1 v.alt1 w.alt1 x.alt1 y.alt1 z.alt1";
name = Con1;
},
{
code = "A E I O U a e i o u";
name = Voc0;
},
{
code = "A.alt1 E.alt1 I.alt1 O.alt1 U.alt1 a.alt1 e.alt1 i.alt1 o.alt1 u.alt1";
name = Voc1;
},
{
code = "space comma\012";
name = Etc;
}
);
copyright = "Copyright 2019 The Mansalva Project Authors (https://github.com/carolinashort/mansalva)";
customParameters = (
{
name = vendorID;
value = bgtl;
},
{
name = panose;
value = (
0,
0,
0,
0,
0,
0,
0,
0,
0,
0
);
},
{
name = unicodeRanges;
value = (
0,
1,
2,
3,
5,
7,
29,
31,
32,
33,
35,
38,
45,
60,
62
);
},
{
name = codePageRanges;
value = (
1252,
1250
);
},
{
name = glyphOrder;
value = (
.notdef,
.null,
space,
LF,
controlCR,
exclam,
quotedbl,
numbersign,
dollar,
percent,
ampersand,
quotesingle,
parenleft,
parenright,
asterisk,
plus,
comma,
hyphen,
period,
slash,
zero,
one,
two,
three,
four,
five,
six,
seven,
eight,
nine,
colon,
semicolon,
less,
equal,
greater,
question,
at,
A,
B,
C,
D,
E,
F,
G,
H,
I,
J,
K,
L,
M,
N,
O,
P,
Q,
R,
S,
T,
U,
V,
W,
X,
Y,
Z,

glyphs = (
{
glyphname = .notdef;
layers = (
{
layerId = "D6A4831D-747C-4592-93C0-305F4CD57904";
paths = (
{
closed = 1;
nodes = (
"517 368 LINE",
"517 448 LINE SMOOTH",
"517 467 OFFCURVE",
"516 620 OFFCURVE",
"511 684 QCURVE SMOOTH",
"509 712 OFFCURVE",
"488 771 OFFCURVE",
"473 791 QCURVE SMOOTH",
"467 799 OFFCURVE",
"447 809 OFFCURVE",
"436 809 QCURVE SMOOTH",
"426 809 OFFCURVE",
"415 802 QCURVE SMOOTH",
"342 756 OFFCURVE",
"250 757 OFFCURVE",
"227 744 OFFCURVE",
"206 727 OFFCURVE",
"219 668 OFFCURVE",
"241 673 OFFCURVE",
"273 673 QCURVE SMOOTH",
"365 673 OFFCURVE",
"419 673 QCURVE",
"427 670 OFFCURVE",
"423 508 OFFCURVE",
"423 406 QCURVE SMOOTH",
"423 211 OFFCURVE",
"440 74 OFFCURVE",
"429 0 QCURVE",
"383 -12 OFFCURVE",
"187 -35 OFFCURVE",
"136 -39 QCURVE",
"134 -6 OFFCURVE",
"133 11 QCURVE SMOOTH",
"127 96 OFFCURVE",
"128 134 QCURVE SMOOTH",
"128 163 OFFCURVE",
"129 178 QCURVE",
"131 396 OFFCURVE",
"139 529 QCURVE",
"140 539 OFFCURVE",
"144 584 QCURVE SMOOTH",
"148 618 OFFCURVE",
"148 637 QCURVE SMOOTH",
"148 657 OFFCURVE",
"137 680 OFFCURVE",
"123 684 QCURVE",
"116 687 OFFCURVE",
"100 687 QCURVE SMOOTH",
"55 687 OFFCURVE",
"22 660 QCURVE SMOOTH",
"17 656 OFFCURVE",
"15 627 OFFCURVE",
"15 592 QCURVE SMOOTH",
"15 567 OFFCURVE",
"14 558 QCURVE SMOOTH",
"13 547 OFFCURVE",
"16 521 OFFCURVE",
"17 514 QCURVE",
"18 308 LINE SMOOTH",
"22 34 OFFCURVE",
"22 -101 QCURVE SMOOTH",
"22 -112 OFFCURVE",
"26 -135 OFFCURVE",
"31 -139 QCURVE",
"41 -151 OFFCURVE",
"47 -158 QCURVE SMOOTH",
"73 -188 OFFCURVE",
"124 -201 OFFCURVE",
"131 -197 QCURVE",
"160 -182 OFFCURVE",
"225 -179 QCURVE",
"248 -175 OFFCURVE",
"301 -169 QCURVE SMOOTH",
"430 -157 OFFCURVE",
"495 -141 QCURVE SMOOTH",
"503 -139 OFFCURVE",
"523 -104 OFFCURVE",
"523 -90 QCURVE SMOOTH",
"523 2 OFFCURVE",
"520 233 OFFCURVE",
"519 278 QCURVE SMOOTH"
);
}
);
userData = {
assembly = "NPUSHB[ ]\011/* 54 values pushed */
49 41 22 3 0 2 1 76 0 4 3 4 133 0 1 3 2 3 1 2 128 0 0 2 0 134 0 3 1 2 3 89 0 3 3 2 95 0 2 3 2 79 70 68 66 65 61 58 33 31 25 5 6 23 
CALL[ ]\011/* CallFunction */";
};
width = 527;
}
);
note = .notdef;
},
{
glyphname = exclam;
layers = (
{
layerId = "D6A4831D-747C-4592-93C0-305F4CD57904";
paths = (
{
closed = 1;
nodes = (
"287 566 LINE",
"277 642 LINE SMOOTH",
"274 667 OFFCURVE",
"235 715 OFFCURVE",
"218 715 QCURVE SMOOTH",
"197 715 OFFCURVE",
"178 680 OFFCURVE",
"176 641 QCURVE SMOOTH",
"175 626 LINE SMOOTH",
"167 444 OFFCURVE",
"116 232 QCURVE SMOOTH",
"106 189 OFFCURVE",
"103 155 QCURVE",
"103 145 OFFCURVE",
"112 120 OFFCURVE",
"118 114 QCURVE",
"124 110 OFFCURVE",
"130 110 QCURVE SMOOTH",
"143 110 OFFCURVE",
"150 117 QCURVE",
"176 141 OFFCURVE",
"190 171 QCURVE",
"203 196 OFFCURVE",
"219 252 QCURVE SMOOTH",
"254 387 OFFCURVE",
"267 446 QCURVE SMOOTH",
"272 470 OFFCURVE",
"281 530 QCURVE SMOOTH"
);
},
{
closed = 1;
nodes = (
"108 -34 OFFCURVE",
"120 -34 QCURVE SMOOTH",
"142 -34 OFFCURVE",
"156 -14 QCURVE SMOOTH",
"164 -3 OFFCURVE",
"164 10 QCURVE SMOOTH",
"164 31 OFFCURVE",
"145 47 QCURVE SMOOTH",
"132 58 OFFCURVE",
"115 63 QCURVE SMOOTH",
"102 67 OFFCURVE",
"64 75 OFFCURVE",
"55 77 QCURVE",
"50 60 OFFCURVE",
"50 40 QCURVE SMOOTH",
"50 15 OFFCURVE",
"73 -18 OFFCURVE",
"96 -28 QCURVE"
);
}
);
userData = {
assembly = "NPUSHB[ ]\011/* 10 values pushed */
15 1 0 1 32 1 2 0 2 76 
MPPEM[ ]\011/* MeasurePixelPerEm */
PUSHB[ ]\011/* 1 value pushed */
21 
LT[ ]\011/* LessThan */
IF[ ]\011/* If */
NPUSHB[ ]\011/* 19 values pushed */
0 0 1 2 1 0 2 128 0 1 1 36 77 0 2 2 31 2 78 
ELSE[ ]\011/* Else */
MPPEM[ ]\011/* MeasurePixelPerEm */
PUSHB[ ]\011/* 1 value pushed */
31 
LT[ ]\011/* LessThan */
IF[ ]\011/* If */
NPUSHB[ ]\011/* 16 values pushed */
0 1 0 1 133 0 0 2 0 133 0 2 2 31 2 78 
ELSE[ ]\011/* Else */
NPUSHB[ ]\011/* 14 values pushed */
0 1 0 1 133 0 0 2 0 133 0 2 2 118 
EIF[ ]\011/* EndIf */
EIF[ ]\011/* EndIf */
PUSHB[ ]\011/* 7 values pushed */
44 42 44 25 3 8 24 
CALL[ ]\011/* CallFunction */";
};
width = 337;
}
);
note = exclam;
unicode = 0021;
},
{
glyphname = quotedbl;
layers = (
{
layerId = "D6A4831D-747C-4592-93C0-305F4CD57904";
paths = (
{
closed = 1;
nodes = (
"84 674 OFFCURVE",
"84 641 QCURVE",
"85 629 OFFCURVE",
"87 587 QCURVE SMOOTH",
"88 565 LINE",
"83 539 OFFCURVE",
"71 501 QCURVE SMOOTH",
"60 465 OFFCURVE",
"50 422 OFFCURVE",
"50 399 QCURVE SMOOTH",
"50 395 OFFCURVE",
"63 391 QCURVE",
"67 389 OFFCURVE",
"72 392 QCURVE",
"113 432 OFFCURVE",
"166 552 OFFCURVE",
"180 614 QCURVE SMOOTH",
"186 641 OFFCURVE",
"188 665 QCURVE",
"189 670 OFFCURVE",
"189 685 OFFCURVE",
"191 697 QCURVE",
"192 705 OFFCURVE",
"167 713 OFFCURVE",
"148 713 QCURVE SMOOTH",
"128 713 OFFCURVE",
"92 705 OFFCURVE",
"91 701 QCURVE SMOOTH"
);
},
{
closed = 1;
nodes = (
"335 693 OFFCURVE",
"289 706 OFFCURVE",
"263 706 QCURVE SMOOTH",
"240 706 OFFCURVE",
"240 701 QCURVE",
"227 652 OFFCURVE",
"224 575 QCURVE",
"222 555 LINE",
"216 523 OFFCURVE",
"214 511 QCURVE",
"199 444 OFFCURVE",
"199 399 QCURVE SMOOTH",
"199 395 OFFCURVE",
"212 391 QCURVE",
"214 390 OFFCURVE",
"239 417 OFFCURVE",
"242 420 QCURVE SMOOTH",
"270 448 OFFCURVE",
"303 508 OFFCURVE",
"318 564 OFFCURVE",
"329 614 QCURVE SMOOTH",
"334 637 OFFCURVE",
"334 644 QCURVE SMOOTH",
"334 647 OFFCURVE",
"333 655 OFFCURVE",
"333 661 QCURVE SMOOTH",
"333 672 OFFCURVE",
"334 681 QCURVE SMOOTH"
);
}
);
userData = {
assembly = "MPPEM[ ]\011/* MeasurePixelPerEm */
PUSHB[ ]\011/* 1 value pushed */
34 
LT[ ]\011/* LessThan */
IF[ ]\011/* If */
PUSHB[ ]\011/* 7 values pushed */
48 29 25 22 4 0 73 
ELSE[ ]\011/* Else */
PUSHB[ ]\011/* 7 values pushed */
48 29 25 22 4 1 73 
EIF[ ]\011/* EndIf */
MPPEM[ ]\011/* MeasurePixelPerEm */
PUSHB[ ]\011/* 1 value pushed */
21 
LT[ ]\011/* LessThan */
IF[ ]\011/* If */
PUSHB[ ]\011/* 7 values pushed */
1 1 0 0 36 0 78 
ELSE[ ]\011/* Else */
MPPEM[ ]\011/* MeasurePixelPerEm */
PUSHB[ ]\011/* 1 value pushed */
34 
LT[ ]\011/* LessThan */
IF[ ]\011/* If */
PUSHB[ ]\011/* 5 values pushed */
1 1 0 0 118 
ELSE[ ]\011/* Else */
NPUSHB[ ]\011/* 9 values pushed */
0 0 1 0 133 0 1 1 118 
EIF[ ]\011/* EndIf */
EIF[ ]\011/* EndIf */
PUSHB[ ]\011/* 6 values pushed */
53 52 33 2 8 23 
CALL[ ]\011/* CallFunction */";
};
width = 384;
}
);
note = quotedbl;
unicode = 0022;
},
{
glyphname = numbersign;
layers = (
{
layerId = "D6A4831D-747C-4592-93C0-305F4CD57904";
paths = (
{
closed = 1;
nodes = (
"771 336 OFFCURVE",
"761 348 OFFCURVE",
"754 351 QCURVE SMOOTH",
"740 357 OFFCURVE",
"714 357 QCURVE",
"682 355 OFFCURVE",
"616 350 QCURVE",
"624 385 OFFCURVE",
"639 453 QCURVE",
"658 457 OFFCURVE",
"704 470 OFFCURVE",
"716 473 QCURVE",
"738 480 LINE",
"744 481 OFFCURVE",
"758 492 OFFCURVE",
"758 495 QCURVE",
"758 495 LINE",
"755 500 OFFCURVE",
"740 509 OFFCURVE",
"730 511 QCURVE",
"724 513 OFFCURVE",
"705 513 QCURVE SMOOTH",
"688 513 OFFCURVE",
"680 512 QCURVE SMOOTH",
"653 509 LINE",
"666 571 LINE SMOOTH",
"670 592 OFFCURVE",
"670 608 QCURVE SMOOTH",
"670 635 OFFCURVE",
"660 645 QCURVE SMOOTH",
"638 666 OFFCURVE",
"606 676 QCURVE",
"595 679 OFFCURVE",
"580 655 OFFCURVE",
"576 630 QCURVE SMOOTH",
"573 610 OFFCURVE",
"564 556 OFFCURVE",
"561 542 QCURVE SMOOTH",
"553 501 LINE",
"443 493 LINE",
"457 535 LINE",
"462 554 OFFCURVE",
"485 631 OFFCURVE",
"493 661 QCURVE",
"498 676 OFFCURVE",
"498 686 QCURVE SMOOTH",
"498 701 OFFCURVE",
"476 719 OFFCURVE",
"452 724 QCURVE",
"447 726 OFFCURVE",
"436 726 QCURVE SMOOTH",
"407 725 LINE",
"391 658 LINE SMOOTH",
"354 506 OFFCURVE",
"349 485 QCURVE",
"283 479 LINE SMOOTH",
"240 474 OFFCURVE",
"184 461 QCURVE SMOOTH",
"172 458 OFFCURVE",
"149 446 OFFCURVE",
"150 441 QCURVE",
"151 433 OFFCURVE",
"168 416 OFFCURVE",
"178 411 QCURVE",
"207 399 OFFCURVE",
"242 399 QCURVE SMOOTH",
"253 399 OFFCURVE",
"279 402 QCURVE SMOOTH",
"306 406 LINE SMOOTH",
"313 407 OFFCURVE",
"327 408 OFFCURVE",
"332 409 QCURVE",
"328 387 LINE SMOOTH",
"321 350 OFFCURVE",
"311 319 QCURVE",
"311 318 LINE",
"200 297 LINE",
"184 295 OFFCURVE",
"167 288 QCURVE",
"143 276 OFFCURVE",
"143 262 QCURVE SMOOTH",
"143 249 OFFCURVE",
"166 235 QCURVE",
"205 215 OFFCURVE",
"239 215 QCURVE SMOOTH",
"251 215 OFFCURVE",
"265 218 QCURVE",
"270 220 OFFCURVE",
"284 222 QCURVE",
"264 153 OFFCURVE",
"255 119 QCURVE SMOOTH",
"248 93 OFFCURVE",
"245 55 QCURVE SMOOTH",
"243 34 OFFCURVE",
"242 26 QCURVE",
"262 14 OFFCURVE",
"284 4 OFFCURVE",
"292 4 QCURVE SMOOTH",
"303 4 OFFCURVE",
"316 24 OFFCURVE",
"324 50 QCURVE SMOOTH",
"341 107 OFFCURVE",
"374 223 QCURVE",
"376 238 LINE",
"424 246 LINE",
"506 260 LINE",
"472 92 LINE",
"468 55 LINE SMOOTH",
"466 32 OFFCURVE",
"466 27 QCURVE SMOOTH",
"466 0 OFFCURVE",
"478 0 QCURVE SMOOTH",
"484 0 OFFCURVE",
"499 11 QCURVE",
"522 26 OFFCURVE",
"552 92 OFFCURVE",
"564 141 QCURVE SMOOTH",
"587 230 OFFCURVE",
"598 275 QCURVE",
"673 288 LINE SMOOTH",
"697 292 OFFCURVE",
"749 309 OFFCURVE",
"755 310 QCURVE",
"762 313 OFFCURVE",
"774 325 OFFCURVE",
"773 329 QCURVE SMOOTH"
);
},
{
closed = 1;
nodes = (
"524 344 LINE",
"489 343 LINE",
"401 332 LINE",
"406 350 LINE SMOOTH",
"417 392 OFFCURVE",
"424 422 QCURVE",
"541 437 LINE",
"541 433 OFFCURVE",
"539 429 QCURVE"
);
}
);
userData = {
assembly = "NPUSHB[ ]\011/* 25 values pushed */
128 100 85 64 53 5 3 5 118 1 7 6 132 36 19 3 2 7 30 15 2 0 2 4 76 
MPPEM[ ]\011/* MeasurePixelPerEm */
PUSHB[ ]\011/* 1 value pushed */
21 
LT[ ]\011/* LessThan */
IF[ ]\011/* If */
NPUSHB[ ]\011/* 48 values pushed */
0 5 4 3 4 5 3 128 0 3 6 4 3 6 126 0 6 7 4 6 7 126 0 7 2 4 7 2 126 0 2 0 4 2 0 126 0 4 4 36 77 1 1 0 0 40 0 78 
ELSE[ ]\011/* Else */
MPPEM[ ]\011/* MeasurePixelPerEm */
PUSHB[ ]\011/* 1 value pushed */
44 
LT[ ]\011/* LessThan */
IF[ ]\011/* If */
NPUSHB[ ]\011/* 37 values pushed */
0 4 5 4 133 0 5 3 5 133 0 3 6 3 133 0 6 7 6 133 0 7 2 7 133 0 2 0 2 133 1 1 0 0 40 0 78 
ELSE[ ]\011/* Else */
NPUSHB[ ]\011/* 35 values pushed */
0 4 5 4 133 0 5 3 5 133 0 3 6 3 133 0 6 7 6 133 0 7 2 7 133 0 2 0 2 133 1 1 0 0 118 
EIF[ ]\011/* EndIf */
EIF[ ]\011/* EndIf */
NPUSHB[ ]\011/* 16 values pushed */
134 133 121 119 104 102 75 73 60 58 44 28 44 8 8 25 
CALL[ ]\011/* CallFunction */";
};
width = 852;
}
);
note = numbersign;
unicode = 0023;
},
{
glyphname = dollar;
layers = (
{
layerId = "D6A4831D-747C-4592-93C0-305F4CD57904";
paths = (
{
closed = 1;
nodes = (
"421 490 OFFCURVE",
"434 496 OFFCURVE",
"453 508 QCURVE SMOOTH",
"468 518 OFFCURVE",
"468 532 QCURVE SMOOTH",
"468 546 OFFCURVE",
"454 555 QCURVE SMOOTH",
"399 592 OFFCURVE",
"346 592 QCURVE SMOOTH",
"334 592 OFFCURVE",
"325 606 OFFCURVE",
"324 633 QCURVE SMOOTH",
"323 662 OFFCURVE",
"315 705 OFFCURVE",
"307 730 QCURVE SMOOTH",
"295 766 OFFCURVE",
"256 766 QCURVE SMOOTH",
"250 766 OFFCURVE",
"237 764 QCURVE",
"218 760 OFFCURVE",
"205 739 OFFCURVE",
"205 722 QCURVE",
"206 700 LINE SMOOTH",
"207 683 OFFCURVE",
"206 660 OFFCURVE",
"206 653 QCURVE SMOOTH",
"206 632 LINE SMOOTH",
"206 605 OFFCURVE",
"207 590 QCURVE",
"208 553 OFFCURVE",
"173 529 QCURVE SMOOTH",
"127 497 OFFCURVE",
"93 463 QCURVE SMOOTH",
"48 419 OFFCURVE",
"50 373 QCURVE SMOOTH",
"51 349 OFFCURVE",
"77 307 OFFCURVE",
"102 292 QCURVE",
"123 281 OFFCURVE",
"146 272 OFFCURVE",
"159 273 QCURVE SMOOTH",
"175 274 OFFCURVE",
"185 276 QCURVE SMOOTH",
"209 281 OFFCURVE",
"224 257 OFFCURVE",
"224 239 QCURVE SMOOTH",
"224 232 OFFCURVE",
"223 209 OFFCURVE",
"223 201 QCURVE",
"224 196 OFFCURVE",
"224 186 QCURVE SMOOTH",
"224 145 OFFCURVE",
"210 114 OFFCURVE",
"189 114 QCURVE SMOOTH",
"174 114 OFFCURVE",
"132 125 QCURVE",
"127 126 OFFCURVE",
"110 122 OFFCURVE",
"106 121 QCURVE",
"107 119 OFFCURVE",
"109 101 OFFCURVE",
"113 99 QCURVE",
"121 94 OFFCURVE",
"149 78 OFFCURVE",
"177 64 OFFCURVE",
"193 60 QCURVE SMOOTH",
"211 56 OFFCURVE",
"229 40 OFFCURVE",
"229 24 QCURVE",
"232 -10 OFFCURVE",
"233 -28 QCURVE SMOOTH",
"234 -41 OFFCURVE",
"236 -76 OFFCURVE",
"236 -102 QCURVE SMOOTH",
"236 -107 OFFCURVE",
"237 -135 OFFCURVE",
"255 -157 OFFCURVE",
"288 -157 QCURVE SMOOTH",
"329 -157 OFFCURVE",
"329 -99 QCURVE SMOOTH",
"329 -24 LINE SMOOTH",
"330 20 OFFCURVE",
"328 51 QCURVE SMOOTH",
"327 68 LINE",
"327 79 OFFCURVE",
"340 94 OFFCURVE",
"364 114 QCURVE SMOOTH",
"385 132 OFFCURVE",
"416 170 OFFCURVE",
"436 197 QCURVE SMOOTH",
"442 205 OFFCURVE",
"457 225 OFFCURVE",
"467 238 QCURVE",
"485 259 OFFCURVE",
"485 286 QCURVE SMOOTH",
"485 304 OFFCURVE",
"468 335 OFFCURVE",
"454 344 QCURVE SMOOTH",
"439 354 OFFCURVE",
"397 371 OFFCURVE",
"380 375 QCURVE",
"355 377 OFFCURVE",
"319 383 OFFCURVE",
"306 391 OFFCURVE",
"306 401 QCURVE SMOOTH",
"306 414 OFFCURVE",
"318 454 QCURVE",
"322 487 LINE",
"342 486 LINE",
"362 483 OFFCURVE",
"384 483 QCURVE SMOOTH",
"394 483 OFFCURVE",
"398 484 QCURVE SMOOTH"
);
},
{
closed = 1;
nodes = (
"223 350 OFFCURVE",
"199 339 OFFCURVE",
"184 339 QCURVE SMOOTH",
"165 339 OFFCURVE",
"146 370 OFFCURVE",
"148 392 QCURVE",
"146 403 OFFCURVE",
"146 407 QCURVE SMOOTH",
"146 430 OFFCURVE",
"182 460 OFFCURVE",
"214 471 QCURVE",
"218 469 OFFCURVE",
"226 408 OFFCURVE",
"226 382 QCURVE SMOOTH",
"226 369 OFFCURVE",
"224 358 QCURVE"
);
},
{
closed = 1;
nodes = (
"305 221 OFFCURVE",
"305 252 QCURVE SMOOTH",
"305 308 OFFCURVE",
"356 308 QCURVE SMOOTH",
"371 308 OFFCURVE",
"398 300 QCURVE",
"400 263 OFFCURVE",
"364 200 OFFCURVE",
"320 180 QCURVE"
);
}
);
userData = {
assembly = "NPUSHB[ ]\011/* 89 values pushed */
122 120 2 7 0 131 1 4 8 137 1 3 4 43 41 2 2 3 4 76 0 5 6 5 133 0 8 7 4 7 8 4 128 0 3 4 2 4 3 2 128 0 2 2 132 0 6 1 1 0 7 6 0 105 0 7 8 4 7 89 0 7 7 4 97 0 4 7 4 81 134 132 126 124 104 102 96 94 71 70 59 57 35 33 17 17 9 8 24 
CALL[ ]\011/* CallFunction */";
};
width = 569;
}
);
note = dollar;
unicode = 0024;
},
{
glyphname = percent;
layers = (
{
layerId = "D6A4831D-747C-4592-93C0-305F4CD57904";
paths = (
{
closed = 1;
nodes = (
"356 539 LINE",
"381 548 LINE",
"422 561 OFFCURVE",
"439 575 QCURVE SMOOTH",
"483 611 OFFCURVE",
"485 664 QCURVE SMOOTH",
"486 692 OFFCURVE",
"472 734 QCURVE SMOOTH",
"460 771 OFFCURVE",
"390 833 OFFCURVE",
"355 833 QCURVE SMOOTH",
"321 833 LINE SMOOTH",
"295 833 OFFCURVE",
"286 826 QCURVE SMOOTH",
"243 792 OFFCURVE",
"227 754 QCURVE SMOOTH",
"215 726 OFFCURVE",
"216 692 QCURVE SMOOTH",
"218 634 OFFCURVE",
"278 547 OFFCURVE",
"337 547 QCURVE SMOOTH",
"347 547 OFFCURVE",
"353 548 QCURVE"
);
},
{
closed = 1;
nodes = (
"330 607 OFFCURVE",
"323 607 QCURVE SMOOTH",
"310 607 OFFCURVE",
"305 626 QCURVE SMOOTH",
"282 713 OFFCURVE",
"273 778 QCURVE SMOOTH",
"271 792 OFFCURVE",
"304 815 OFFCURVE",
"323 815 QCURVE SMOOTH",
"340 815 OFFCURVE",
"377 789 OFFCURVE",
"402 753 OFFCURVE",
"403 741 QCURVE",
"399 689 OFFCURVE",
"374 631 OFFCURVE",
"341 613 QCURVE SMOOTH"
);
},
{
closed = 1;
nodes = (
"212 145 LINE SMOOTH",
"315 233 OFFCURVE",
"364 282 QCURVE SMOOTH",
"411 329 OFFCURVE",
"537 459 OFFCURVE",
"571 495 QCURVE SMOOTH",
"647 571 OFFCURVE",
"718 648 QCURVE SMOOTH",
"730 661 OFFCURVE",
"730 674 QCURVE SMOOTH",
"730 682 OFFCURVE",
"719 697 OFFCURVE",
"710 700 QCURVE",
"695 708 OFFCURVE",
"671 708 QCURVE SMOOTH",
"661 708 OFFCURVE",
"647 706 QCURVE SMOOTH",
"620 702 OFFCURVE",
"583 674 OFFCURVE",
"561 646 QCURVE SMOOTH",
"547 628 OFFCURVE",
"538 619 QCURVE SMOOTH",
"438 517 OFFCURVE",
"278 340 QCURVE",
"228 290 OFFCURVE",
"136 173 QCURVE SMOOTH",
"114 145 LINE",
"107 135 OFFCURVE",
"107 120 QCURVE SMOOTH",
"107 115 OFFCURVE",
"108 112 QCURVE",
"109 107 OFFCURVE",
"129 98 OFFCURVE",
"135 94 QCURVE",
"144 98 OFFCURVE",
"175 114 OFFCURVE",
"184 121 QCURVE"
);
},
{
closed = 1;
nodes = (
"649 321 LINE SMOOTH",
"633 321 OFFCURVE",
"609 329 OFFCURVE",
"600 343 QCURVE",
"599 346 OFFCURVE",
"591 346 QCURVE SMOOTH",
"584 346 OFFCURVE",
"581 343 QCURVE SMOOTH",
"575 337 OFFCURVE",
"551 321 OFFCURVE",
"530 302 OFFCURVE",
"523 291 QCURVE SMOOTH",
"502 257 OFFCURVE",
"502 219 QCURVE SMOOTH",
"502 170 OFFCURVE",
"562 91 OFFCURVE",
"606 80 QCURVE",
"631 76 OFFCURVE",
"651 76 QCURVE SMOOTH",
"702 76 OFFCURVE",
"771 128 OFFCURVE",
"771 182 QCURVE SMOOTH",
"771 241 OFFCURVE",
"711 321 OFFCURVE",
"664 321 QCURVE SMOOTH"
);
},
{
closed = 1;
nodes = (
"617 177 OFFCURVE",
"601 221 OFFCURVE",
"601 245 QCURVE SMOOTH",
"601 279 OFFCURVE",
"616 302 QCURVE",
"635 288 OFFCURVE",
"655 245 OFFCURVE",
"655 223 QCURVE SMOOTH",
"655 189 OFFCURVE",
"633 164 QCURVE"
);
}
);
userData = {
assembly = "NPUSHB[ ]\011/* 15 values pushed */
25 1 4 2 94 1 6 0 110 105 2 5 6 3 76 
MPPEM[ ]\011/* MeasurePixelPerEm */
PUSHB[ ]\011/* 1 value pushed */
21 
LT[ ]\011/* LessThan */
IF[ ]\011/* If */
NPUSHB[ ]\011/* 31 values pushed */
0 1 0 2 4 1 2 105 0 3 7 1 0 6 3 0 105 8 1 6 0 5 6 5 101 0 4 4 36 4 78 
ELSE[ ]\011/* Else */
NPUSHB[ ]\011/* 43 values pushed */
0 4 2 3 2 4 3 128 0 1 0 2 4 1 2 105 0 3 7 1 0 6 3 0 105 8 1 6 5 5 6 89 8 1 6 6 5 97 0 5 6 5 81 
EIF[ ]\011/* EndIf */
NPUSHB[ ]\011/* 25 values pushed */
76 76 2 0 76 100 76 98 82 80 61 59 36 35 30 28 12 9 0 22 2 22 9 8 22 
CALL[ ]\011/* CallFunction */";
};
width = 820;
}
);
note = percent;
unicode = 0025;
},
{
glyphname = ampersand;
layers = (
{
layerId = "D6A4831D-747C-4592-93C0-305F4CD57904";
paths = (
{
closed = 1;
nodes = (
"306 389 OFFCURVE",
"306 408 QCURVE SMOOTH",
"306 428 OFFCURVE",
"329 449 QCURVE SMOOTH",
"392 508 OFFCURVE",
"408 605 QCURVE SMOOTH",
"410 617 OFFCURVE",
"410 624 QCURVE SMOOTH",
"410 662 OFFCURVE",
"376 746 OFFCURVE",
"350 764 QCURVE SMOOTH",
"321 785 OFFCURVE",
"275 785 QCURVE SMOOTH",
"224 785 OFFCURVE",
"119 731 OFFCURVE",
"50 639 OFFCURVE",
"50 585 QCURVE SMOOTH",
"50 538 OFFCURVE",
"91 462 OFFCURVE",
"128 426 QCURVE SMOOTH",
"145 409 OFFCURVE",
"145 397 QCURVE SMOOTH",
"145 387 OFFCURVE",
"131 368 QCURVE SMOOTH",
"70 288 OFFCURVE",
"70 209 QCURVE SMOOTH",
"70 193 OFFCURVE",
"73 175 QCURVE SMOOTH",
"83 107 OFFCURVE",
"178 22 OFFCURVE",
"239 22 QCURVE SMOOTH",
"276 22 OFFCURVE",
"313 40 QCURVE SMOOTH",
"336 51 OFFCURVE",
"375 87 OFFCURVE",
"402 116 QCURVE SMOOTH",
"422 137 LINE SMOOTH",
"433 149 OFFCURVE",
"445 159 OFFCURVE",
"453 159 QCURVE SMOOTH",
"458 159 OFFCURVE",
"470 154 QCURVE",
"499 139 OFFCURVE",
"552 53 OFFCURVE",
"552 20 QCURVE SMOOTH",
"552 12 OFFCURVE",
"551 9 QCURVE SMOOTH",
"550 6 OFFCURVE",
"550 -1 QCURVE SMOOTH",
"550 -14 OFFCURVE",
"565 -29 OFFCURVE",
"579 -33 QCURVE",
"588 -36 OFFCURVE",
"596 -36 QCURVE SMOOTH",
"616 -36 OFFCURVE",
"641 -2 OFFCURVE",
"641 26 QCURVE SMOOTH",
"641 152 OFFCURVE",
"531 217 QCURVE",
"507 233 OFFCURVE",
"507 250 QCURVE SMOOTH",
"507 260 OFFCURVE",
"514 279 QCURVE SMOOTH",
"534 329 OFFCURVE",
"559 416 QCURVE SMOOTH",
"562 428 OFFCURVE",
"562 440 QCURVE SMOOTH",
"562 477 OFFCURVE",
"523 477 QCURVE SMOOTH",
"484 477 OFFCURVE",
"473 430 QCURVE SMOOTH",
"467 406 OFFCURVE",
"445 352 OFFCURVE",
"442 344 QCURVE SMOOTH",
"439 336 OFFCURVE",
"429 313 OFFCURVE",
"423 297 QCURVE",
"360 347 OFFCURVE",
"329 370 QCURVE"
);
},
{
closed = 1;
nodes = (
"238 482 OFFCURVE",
"226 482 QCURVE SMOOTH",
"215 482 OFFCURVE",
"201 500 QCURVE SMOOTH",
"168 545 OFFCURVE",
"168 594 QCURVE SMOOTH",
"168 621 OFFCURVE",
"191 673 OFFCURVE",
"212 693 QCURVE SMOOTH",
"237 716 OFFCURVE",
"253 716 QCURVE SMOOTH",
"265 716 OFFCURVE",
"281 694 OFFCURVE",
"287 672 QCURVE SMOOTH",
"290 661 OFFCURVE",
"294 632 QCURVE",
"301 627 LINE",
"283 582 LINE",
"276 567 OFFCURVE",
"259 526 OFFCURVE",
"247 500 QCURVE SMOOTH"
);
},
{
closed = 1;
nodes = (
"350 240 OFFCURVE",
"354 226 OFFCURVE",
"354 219 QCURVE SMOOTH",
"354 212 OFFCURVE",
"352 210 QCURVE",
"313 152 OFFCURVE",
"279 115 QCURVE SMOOTH",
"268 103 OFFCURVE",
"251 103 QCURVE SMOOTH",
"233 103 OFFCURVE",
"202 132 OFFCURVE",
"198 155 QCURVE",
"194 185 OFFCURVE",
"194 200 QCURVE SMOOTH",
"194 268 OFFCURVE",
"234 325 QCURVE",
"275 295 LINE SMOOTH",
"288 285 OFFCURVE",
"324 259 OFFCURVE",
"346 242 QCURVE"
);
}
);
userData = {
assembly = "MPPEM[ ]\011/* MeasurePixelPerEm */
PUSHB[ ]\011/* 1 value pushed */
46 
LT[ ]\011/* LessThan */
IF[ ]\011/* If */
NPUSHB[ ]\011/* 18 values pushed */
82 70 2 0 5 116 103 1 3 2 0 33 29 2 1 3 3 76 
ELSE[ ]\011/* Else */
NPUSHB[ ]\011/* 18 values pushed */
82 70 2 6 5 116 103 1 3 2 0 33 29 2 1 3 3 76 
EIF[ ]\011/* EndIf */
MPPEM[ ]\011/* MeasurePixelPerEm */
PUSHB[ ]\011/* 1 value pushed */
26 
LT[ ]\011/* LessThan */
IF[ ]\011/* If */
NPUSHB[ ]\011/* 40 values pushed */
6 1 0 5 2 5 0 2 128 0 2 7 5 2 7 126 0 4 0 5 0 4 5 105 0 7 7 3 98 0 3 3 34 77 0 1 1 31 1 78 
ELSE[ ]\011/* Else */
MPPEM[ ]\011/* MeasurePixelPerEm */
PUSHB[ ]\011/* 1 value pushed */
46 
LT[ ]\011/* LessThan */
IF[ ]\011/* If */
NPUSHB[ ]\011/* 40 values pushed */
6 1 0 5 2 5 0 2 128 0 2 7 5 2 7 126 0 1 3 1 134 0 4 0 5 0 4 5 105 0 7 7 3 98 0 3 3 34 3 78 
ELSE[ ]\011/* Else */
NPUSHB[ ]\011/* 46 values pushed */
0 6 5 0 5 6 0 128 0 0 2 5 0 2 126 0 2 7 5 2 7 126 0 1 3 1 134 0 4 0 5 6 4 5 105 0 7 7 3 98 0 3 3 34 3 78 
EIF[ ]\011/* EndIf */
EIF[ ]\011/* EndIf */
NPUSHB[ ]\011/* 15 values pushed */
111 109 98 96 89 87 66 64 39 45 29 40 8 8 26 
CALL[ ]\011/* CallFunction */";
};
width = 691;
}
);
note = ampersand;
unicode = 0026;
},
{
glyphname = quotesingle;
lastChange = "2019-03-19 08:22:37 +0000";
layers = (
{
layerId = "D6A4831D-747C-4592-93C0-305F4CD57904";
paths = (
{
closed = 1;
nodes = (
"99 691 OFFCURVE",
"132 660 OFFCURVE",
"123 622 CURVE",
"111 577 OFFCURVE",
"99 531 OFFCURVE",
"81 488 CURVE",
"75 473 OFFCURVE",
"52 464 OFFCURVE",
"35 455 CURVE",
"32 454 OFFCURVE",
"15 469 OFFCURVE",
"16 476 CURVE",
"20 537 OFFCURVE",
"25 598 OFFCURVE",
"32 659 CURVE",
"33 669 OFFCURVE",
"48 677 OFFCURVE",
"50 679 CURVE"
);
}
);
userData = {
assembly = "NPUSHB[ ]\011/* 12 values pushed */
14 1 0 73 0 0 0 118 34 1 8 23 
CALL[ ]\011/* CallFunction */";
};
width = 120;
}
);
note = quotesingle;
unicode = 0027;
},
{
glyphname = parenleft;
lastChange = "2019-03-19 08:02:52 +0000";
layers = (
{
layerId = "D6A4831D-747C-4592-93C0-305F4CD57904";
paths = (
{
closed = 1;
nodes = (
"349 -86 LINE",
"316 -71 LINE SMOOTH",
"245 -39 OFFCURVE",
"202 -18 QCURVE SMOOTH",
"155 5 OFFCURVE",
"152 62 QCURVE SMOOTH",
"150 104 OFFCURVE",
"156 130 QCURVE SMOOTH",
"169 188 OFFCURVE",
"211 306 OFFCURVE",
"244 369 QCURVE SMOOTH",
"293 465 OFFCURVE",
"381 535 QCURVE SMOOTH",
"400 550 OFFCURVE",
"400 567 QCURVE SMOOTH",
"400 573 OFFCURVE",
"397 579 QCURVE",
"389 601 OFFCURVE",
"370 627 OFFCURVE",
"352 632 QCURVE",
"301 593 LINE SMOOTH",
"290 585 OFFCURVE",
"283 575 QCURVE",
"122 403 OFFCURVE",
"83 154 QCURVE",
"81 138 OFFCURVE",
"81 131 QCURVE SMOOTH",
"82 100 OFFCURVE",
"96 49 QCURVE SMOOTH",
"107 10 OFFCURVE",
"160 -43 OFFCURVE",
"205 -74 QCURVE SMOOTH",
"277 -124 OFFCURVE",
"349 -124 QCURVE SMOOTH",
"361 -124 OFFCURVE",
"380 -115 OFFCURVE",
"387 -102 QCURVE"
);
}
);
userData = {
assembly = "NPUSHB[ ]\011/* 12 values pushed */
16 1 0 74 0 0 0 118 33 1 8 23 
CALL[ ]\011/* CallFunction */";
};
width = 400;
}
);
note = parenleft;
unicode = 0028;
},
{
glyphname = parenright;
lastChange = "2019-03-19 08:01:59 +0000";
layers = (
{
layerId = "D6A4831D-747C-4592-93C0-305F4CD57904";
paths = (
{
closed = 1;
nodes = (
"27 562 OFFCURVE",
"54 528 QCURVE",
"64 518 OFFCURVE",
"73 506 QCURVE",
"79 499 OFFCURVE",
"116 456 OFFCURVE",
"126 435 QCURVE SMOOTH",
"174 335 OFFCURVE",
"174 236 QCURVE SMOOTH",
"175 115 OFFCURVE",
"104 0 QCURVE SMOOTH",
"64 -65 LINE",
"30 -120 LINE",
"84 -115 OFFCURVE",
"162 -79 OFFCURVE",
"184 -41 QCURVE SMOOTH",
"255 83 OFFCURVE",
"255 194 QCURVE SMOOTH",
"255 207 OFFCURVE",
"253 233 QCURVE",
"250 256 LINE SMOOTH",
"242 321 OFFCURVE",
"221 408 OFFCURVE",
"193 445 QCURVE SMOOTH",
"174 468 OFFCURVE",
"114 544 QCURVE SMOOTH",
"83 583 LINE",
"71 597 OFFCURVE",
"37 609 OFFCURVE",
"9 609 QCURVE",
"12 600 OFFCURVE",
"23 568 OFFCURVE",
"29 559 QCURVE"
);
}
);
userData = {
assembly = "NPUSHB[ ]\011/* 12 values pushed */
19 1 0 73 0 0 0 118 18 1 8 23 
CALL[ ]\011/* CallFunction */";
};
width = 300;
}
);
note = parenright;
unicode = 0029;
},
{
glyphname = asterisk;
layers = (
{
layerId = "D6A4831D-747C-4592-93C0-305F4CD57904";
paths = (
{
closed = 1;
nodes = (
"283 543 OFFCURVE",
"271 543 QCURVE SMOOTH",
"257 543 OFFCURVE",
"247 538 QCURVE SMOOTH",
"237 533 OFFCURVE",
"237 504 QCURVE SMOOTH",
"238 471 OFFCURVE",
"244 409 QCURVE",
"233 405 LINE",
"211 431 LINE",
"187 464 OFFCURVE",
"139 504 OFFCURVE",
"107 511 QCURVE SMOOTH",
"97 513 OFFCURVE",
"70 504 OFFCURVE",
"62 496 QCURVE",
"60 492 OFFCURVE",
"60 487 QCURVE SMOOTH",
"60 478 OFFCURVE",
"66 459 OFFCURVE",
"71 454 QCURVE SMOOTH",
"118 405 OFFCURVE",
"175 358 QCURVE",
"192 345 OFFCURVE",
"192 336 QCURVE SMOOTH",
"192 330 OFFCURVE",
"181 321 OFFCURVE",
"169 314 QCURVE",
"115 287 OFFCURVE",
"67 251 QCURVE SMOOTH",
"50 238 OFFCURVE",
"50 223 QCURVE SMOOTH",
"50 215 OFFCURVE",
"64 199 OFFCURVE",
"76 195 QCURVE SMOOTH",
"92 190 OFFCURVE",
"127 190 QCURVE SMOOTH",
"148 190 LINE SMOOTH",
"150 190 OFFCURVE",
"176 194 QCURVE",
"163 168 LINE",
"160 163 OFFCURVE",
"145 131 OFFCURVE",
"137 120 QCURVE",
"126 103 OFFCURVE",
"126 89 QCURVE SMOOTH",
"126 71 OFFCURVE",
"145 58 QCURVE",
"164 46 OFFCURVE",
"186 46 QCURVE SMOOTH",
"217 46 OFFCURVE",
"231 67 QCURVE SMOOTH",
"256 107 LINE SMOOTH",
"260 113 OFFCURVE",
"271 132 OFFCURVE",
"279 144 QCURVE",
"328 -34 LINE",
"336 -30 OFFCURVE",
"359 -19 OFFCURVE",
"360 -15 QCURVE",
"371 78 OFFCURVE",
"382 195 QCURVE SMOOTH",
"386 232 LINE",
"488 180 LINE",
"493 177 OFFCURVE",
"514 163 OFFCURVE",
"522 163 QCURVE SMOOTH",
"534 163 OFFCURVE",
"543 175 QCURVE",
"529 205 OFFCURVE",
"482 244 OFFCURVE",
"443 267 QCURVE SMOOTH",
"413 285 OFFCURVE",
"399 295 QCURVE",
"430 313 LINE",
"475 338 LINE SMOOTH",
"532 369 OFFCURVE",
"547 378 QCURVE SMOOTH",
"552 381 OFFCURVE",
"560 397 OFFCURVE",
"562 401 QCURVE",
"558 403 OFFCURVE",
"542 412 OFFCURVE",
"536 412 QCURVE",
"523 413 OFFCURVE",
"497 413 QCURVE SMOOTH",
"455 413 LINE",
"463 432 LINE",
"482 473 OFFCURVE",
"491 502 QCURVE",
"493 512 OFFCURVE",
"493 519 QCURVE SMOOTH",
"493 531 OFFCURVE",
"491 550 OFFCURVE",
"490 557 QCURVE",
"485 555 OFFCURVE",
"452 542 OFFCURVE",
"440 534 QCURVE SMOOTH",
"431 528 OFFCURVE",
"414 506 OFFCURVE",
"410 501 QCURVE SMOOTH",
"364 443 LINE",
"347 465 LINE SMOOTH",
"314 509 OFFCURVE",
"287 539 QCURVE"
);
}
);
userData = {
assembly = "NPUSHB[ ]\011/* 27 values pushed */
86 12 2 3 0 4 96 64 41 30 4 3 0 35 1 1 3 48 1 2 1 4 76 47 1 2 73 
MPPEM[ ]\011/* MeasurePixelPerEm */
PUSHB[ ]\011/* 1 value pushed */
39 
LT[ ]\011/* LessThan */
IF[ ]\011/* If */
NPUSHB[ ]\011/* 30 values pushed */
0 4 0 4 133 0 3 0 1 0 3 1 128 0 1 2 0 1 2 126 0 2 2 132 0 0 0 33 0 78 
ELSE[ ]\011/* Else */
NPUSHB[ ]\011/* 24 values pushed */
0 4 0 4 133 0 0 3 0 133 0 3 1 3 133 0 1 2 1 133 0 2 2 118 
EIF[ ]\011/* EndIf */
NPUSHB[ ]\011/* 13 values pushed */
103 101 68 65 55 53 37 36 19 17 5 8 22 
CALL[ ]\011/* CallFunction */";
};
width = 612;
}
);
note = asterisk;
unicode = 002A;
},
{
glyphname = plus;
lastChange = "2019-11-20 00:16:54 +0000";
layers = (
{
layerId = "D6A4831D-747C-4592-93C0-305F4CD57904";
paths = (
{
closed = 1;
nodes = (
"582 364 LINE",
"540 359 OFFCURVE",
"453 353 QCURVE",
"445 352 OFFCURVE",
"424 358 OFFCURVE",
"419 359 QCURVE",
"420 420 LINE SMOOTH",
"420 440 OFFCURVE",
"419 450 QCURVE SMOOTH",
"413 508 OFFCURVE",
"351 530 QCURVE",
"342 534 OFFCURVE",
"332 534 QCURVE SMOOTH",
"316 534 OFFCURVE",
"296 510 OFFCURVE",
"294 490 QCURVE",
"294 485 OFFCURVE",
"298 468 OFFCURVE",
"298 463 QCURVE SMOOTH",
"299 405 LINE SMOOTH",
"299 379 OFFCURVE",
"297 367 QCURVE",
"295 344 OFFCURVE",
"289 328 OFFCURVE",
"274 321 OFFCURVE",
"251 315 QCURVE SMOOTH",
"200 301 OFFCURVE",
"124 269 OFFCURVE",
"92 242 QCURVE SMOOTH",
"71 224 OFFCURVE",
"71 206 QCURVE SMOOTH",
"71 172 OFFCURVE",
"109 161 QCURVE SMOOTH",
"138 153 OFFCURVE",
"154 153 QCURVE SMOOTH",
"183 153 OFFCURVE",
"207 169 QCURVE SMOOTH",
"232 188 OFFCURVE",
"265 188 QCURVE",
"260 154 LINE",
"254 116 LINE SMOOTH",
"241 34 OFFCURVE",
"237 -4 QCURVE SMOOTH",
"236 -18 OFFCURVE",
"245 -34 OFFCURVE",
"253 -34 QCURVE SMOOTH",
"262 -34 OFFCURVE",
"274 -26 QCURVE SMOOTH",
"315 1 OFFCURVE",
"325 24 QCURVE SMOOTH",
"347 78 OFFCURVE",
"381 191 QCURVE SMOOTH",
"387 212 OFFCURVE",
"410 233 OFFCURVE",
"433 236 QCURVE SMOOTH",
"457 239 OFFCURVE",
"506 246 QCURVE SMOOTH",
"561 255 LINE",
"587 268 OFFCURVE",
"634 322 OFFCURVE",
"634 341 QCURVE SMOOTH",
"634 365 OFFCURVE",
"595 365 QCURVE"
);
}
);
userData = {
assembly = "NPUSHB[ ]\011/* 14 values pushed */
43 1 5 3 56 1 4 5 19 1 0 2 3 76 
MPPEM[ ]\011/* MeasurePixelPerEm */
PUSHB[ ]\011/* 1 value pushed */
26 
LT[ ]\011/* LessThan */
IF[ ]\011/* If */
NPUSHB[ ]\011/* 37 values pushed */
0 3 5 3 133 0 1 4 2 4 1 2 128 0 2 0 4 2 0 126 6 1 5 5 33 77 0 4 4 33 77 0 0 0 31 0 78 
ELSE[ ]\011/* Else */
MPPEM[ ]\011/* MeasurePixelPerEm */
PUSHB[ ]\011/* 1 value pushed */
31 
LT[ ]\011/* LessThan */
IF[ ]\011/* If */
NPUSHB[ ]\011/* 39 values pushed */
0 3 5 3 133 0 4 5 1 5 4 1 128 0 1 2 5 1 2 126 0 2 0 5 2 0 126 6 1 5 5 33 77 0 0 0 31 0 78 
ELSE[ ]\011/* Else */
NPUSHB[ ]\011/* 38 values pushed */
0 3 5 3 133 0 4 5 1 5 4 1 128 0 1 2 5 1 2 126 0 2 0 5 2 0 126 0 0 0 132 6 1 5 5 33 5 78 
EIF[ ]\011/* EndIf */
EIF[ ]\011/* EndIf */
NPUSHB[ ]\011/* 16 values pushed */
0 0 0 62 0 62 60 59 50 48 34 22 47 7 8 25 
CALL[ ]\011/* CallFunction */";
};
width = 700;
}
);
note = plus;
unicode = 002B;
},
{
glyphname = comma;
lastChange = "2019-03-19 07:57:21 +0000";
layers = (
{
layerId = "D6A4831D-747C-4592-93C0-305F4CD57904";
paths = (
{
closed = 1;
nodes = (
"100 130 OFFCURVE",
"82 79 OFFCURVE",
"76 40 OFFCURVE",
"74 34 QCURVE SMOOTH",
"41 -74 LINE",
"26 -146 OFFCURVE",
"8 -182 QCURVE SMOOTH",
"7 -184 OFFCURVE",
"43 -202 OFFCURVE",
"46 -208 QCURVE",
"149 -109 OFFCURVE",
"193 29 QCURVE SMOOTH",
"199 48 OFFCURVE",
"203 58 QCURVE SMOOTH",
"221 100 OFFCURVE",
"228 137 QCURVE SMOOTH",
"231 153 OFFCURVE",
"169 166 OFFCURVE",
"138 163 QCURVE SMOOTH",
"119 161 OFFCURVE",
"116 156 QCURVE SMOOTH"
);
}
);
userData = {
assembly = "PUSHB[ ]\011/* 4 values pushed */
10 2 1 50 
CALL[ ]\011/* CallFunction */";
};
width = 300;
}
);
note = comma;
unicode = 002C;
},
{
glyphname = hyphen;
layers = (
{
layerId = "D6A4831D-747C-4592-93C0-305F4CD57904";
paths = (
{
closed = 1;
nodes = (
"499 301 OFFCURVE",
"408 323 OFFCURVE",
"354 323 QCURVE SMOOTH",
"285 323 OFFCURVE",
"179 314 QCURVE SMOOTH",
"131 311 LINE",
"104 308 OFFCURVE",
"79 297 QCURVE",
"50 283 OFFCURVE",
"50 264 QCURVE SMOOTH",
"50 247 OFFCURVE",
"70 233 QCURVE",
"115 199 OFFCURVE",
"164 199 QCURVE SMOOTH",
"172 199 OFFCURVE",
"186 201 QCURVE",
"218 207 LINE",
"253 215 OFFCURVE",
"274 217 QCURVE SMOOTH",
"314 220 LINE SMOOTH",
"381 227 OFFCURVE",
"429 227 QCURVE SMOOTH",
"492 227 OFFCURVE",
"535 216 QCURVE",
"538 215 OFFCURVE",
"554 218 QCURVE",
"561 229 OFFCURVE",
"561 239 QCURVE SMOOTH",
"561 249 OFFCURVE",
"549 263 OFFCURVE",
"537 272 QCURVE SMOOTH"
);
}
);
userData = {
assembly = "NPUSHB[ ]\011/* 31 values pushed */
0 2 0 1 2 87 0 3 0 0 1 3 0 105 0 2 2 1 97 0 1 2 1 81 33 23 38 39 4 8 26 
CALL[ ]\011/* CallFunction */";
};
width = 611;
}
);
note = hyphen;
unicode = 002D;
},
{
glyphname = period;
layers = (
{
layerId = "D6A4831D-747C-4592-93C0-305F4CD57904";
paths = (
{
closed = 1;
nodes = (
"174 24 OFFCURVE",
"174 28 QCURVE SMOOTH",
"174 46 OFFCURVE",
"155 87 OFFCURVE",
"142 95 QCURVE",
"132 102 OFFCURVE",
"123 102 QCURVE SMOOTH",
"117 102 OFFCURVE",
"104 95 OFFCURVE",
"90 81 OFFCURVE",
"88 79 QCURVE",
"88 79 OFFCURVE",
"79 73 QCURVE SMOOTH",
"65 64 OFFCURVE",
"50 46 OFFCURVE",
"50 34 QCURVE SMOOTH",
"50 9 OFFCURVE",
"93 -33 OFFCURVE",
"116 -34 QCURVE",
"133 -34 OFFCURVE",
"166 -4 OFFCURVE",
"172 16 QCURVE"
);
}
);
userData = {
assembly = "PUSHB[ ]\011/* 6 values pushed */
19 1 0 1 1 76 
MPPEM[ ]\011/* MeasurePixelPerEm */
PUSHB[ ]\011/* 1 value pushed */
31 
LT[ ]\011/* LessThan */
IF[ ]\011/* If */
NPUSHB[ ]\011/* 11 values pushed */
0 1 1 0 97 0 0 0 31 0 78 
ELSE[ ]\011/* Else */
NPUSHB[ ]\011/* 16 values pushed */
0 1 0 0 1 89 0 1 1 0 97 0 0 1 0 81 
EIF[ ]\011/* EndIf */
PUSHB[ ]\011/* 5 values pushed */
42 33 2 8 24 
CALL[ ]\011/* CallFunction */";
};
width = 224;
}
);
note = period;
unicode = 002E;
},
{
glyphname = slash;
lastChange = "2019-03-17 10:48:41 +0000";
layers = (
{
layerId = "D6A4831D-747C-4592-93C0-305F4CD57904";
paths = (
{
closed = 1;
nodes = (
"174 32 OFFCURVE",
"210 160 OFFCURVE",
"217 185 QCURVE SMOOTH",
"219 192 OFFCURVE",
"223 205 OFFCURVE",
"224 210 QCURVE",
"262 356 LINE SMOOTH",
"287 454 OFFCURVE",
"299 502 QCURVE SMOOTH",
"317 563 OFFCURVE",
"343 651 QCURVE SMOOTH",
"371 746 LINE",
"376 766 OFFCURVE",
"376 777 QCURVE SMOOTH",
"376 799 OFFCURVE",
"347 822 OFFCURVE",
"316 829 QCURVE",
"305 832 OFFCURVE",
"294 832 QCURVE SMOOTH",
"285 832 OFFCURVE",
"267 830 OFFCURVE",
"256 830 QCURVE",
"250 808 OFFCURVE",
"234 738 QCURVE SMOOTH",
"187 534 LINE SMOOTH",
"173 474 OFFCURVE",
"167 444 QCURVE SMOOTH",
"157 388 OFFCURVE",
"143 337 QCURVE SMOOTH",
"110 221 LINE SMOOTH",
"85 138 OFFCURVE",
"68 71 QCURVE SMOOTH",
"62 44 OFFCURVE",
"55 -10 QCURVE SMOOTH",
"50 -50 LINE",
"97 -80 OFFCURVE",
"117 -80 QCURVE SMOOTH",
"131 -80 OFFCURVE",
"149 -53 OFFCURVE",
"159 -19 QCURVE SMOOTH"
);
}
);
userData = {
assembly = "PUSHB[ ]\011/* 6 values pushed */
4 1 0 1 1 76 
MPPEM[ ]\011/* MeasurePixelPerEm */
PUSHB[ ]\011/* 1 value pushed */
31 
LT[ ]\011/* LessThan */
IF[ ]\011/* If */
NPUSHB[ ]\011/* 12 values pushed */
2 1 1 0 1 133 0 0 0 31 0 78 
ELSE[ ]\011/* Else */
NPUSHB[ ]\011/* 10 values pushed */
2 1 1 0 1 133 0 0 0 118 
EIF[ ]\011/* EndIf */
PUSHB[ ]\011/* 6 values pushed */
33 30 33 3 8 25 
CALL[ ]\011/* CallFunction */";
};
width = 438;
}
);
note = slash;
unicode = 002F;
},
{
glyphname = zero;
lastChange = "2019-04-02 08:41:37 +0000";
layers = (
{
layerId = "D6A4831D-747C-4592-93C0-305F4CD57904";
paths = (
{
closed = 1;
nodes = (
"24 323 OFFCURVE",
"24 228 QCURVE SMOOTH",
"24 180 OFFCURVE",
"38 120 QCURVE SMOOTH",
"50 70 OFFCURVE",
"114 -6 OFFCURVE",
"159 -23 QCURVE SMOOTH",
"191 -35 OFFCURVE",
"221 -35 QCURVE SMOOTH",
"278 -35 OFFCURVE",
"327 2 QCURVE SMOOTH",
"381 43 OFFCURVE",
"424 131 QCURVE SMOOTH",
"449 182 OFFCURVE",
"478 266 OFFCURVE",
"478 309 QCURVE",
"477 367 OFFCURVE",
"447 420 QCURVE SMOOTH",
"439 434 OFFCURVE",
"413 469 QCURVE",
"403 481 OFFCURVE",
"393 496 QCURVE",
"383 508 LINE",
"398 511 LINE",
"408 512 LINE",
"417 514 LINE",
"429 519 LINE SMOOTH",
"445 526 OFFCURVE",
"447 528 QCURVE",
"449 536 OFFCURVE",
"441 560 OFFCURVE",
"437 563 QCURVE",
"412 576 OFFCURVE",
"381 590 OFFCURVE",
"366 590 QCURVE SMOOTH",
"363 590 LINE",
"272 586 OFFCURVE",
"202 528 QCURVE SMOOTH",
"168 500 OFFCURVE",
"99 424 OFFCURVE",
"79 395 QCURVE"
);
},
{
closed = 1;
nodes = (
"270 454 OFFCURVE",
"308 479 QCURVE",
"332 497 OFFCURVE",
"346 497 QCURVE SMOOTH",
"352 497 OFFCURVE",
"356 495 QCURVE",
"373 485 OFFCURVE",
"375 441 QCURVE",
"376 437 OFFCURVE",
"376 428 QCURVE",
"377 422 LINE",
"377 421 LINE",
"368 203 OFFCURVE",
"247 82 QCURVE SMOOTH",
"235 70 OFFCURVE",
"200 53 OFFCURVE",
"184 53 QCURVE SMOOTH",
"177 53 OFFCURVE",
"171 55 QCURVE SMOOTH",
"156 60 OFFCURVE",
"132 106 OFFCURVE",
"129 127 QCURVE SMOOTH",
"125 153 OFFCURVE",
"126 176 QCURVE SMOOTH",
"130 314 OFFCURVE",
"225 409 QCURVE SMOOTH"
);
}
);
userData = {
assembly = "PUSHB[ ]\011/* 6 values pushed */
17 1 3 0 1 76 
MPPEM[ ]\011/* MeasurePixelPerEm */
PUSHB[ ]\011/* 1 value pushed */
29 
LT[ ]\011/* LessThan */
IF[ ]\011/* If */
NPUSHB[ ]\011/* 19 values pushed */
0 0 0 3 2 0 3 105 0 2 2 1 97 0 1 1 31 1 78 
ELSE[ ]\011/* Else */
NPUSHB[ ]\011/* 24 values pushed */
0 0 0 3 2 0 3 105 0 2 1 1 2 89 0 2 2 1 97 0 1 2 1 81 
EIF[ ]\011/* EndIf */
NPUSHB[ ]\011/* 10 values pushed */
63 62 50 49 32 30 51 4 8 23 
CALL[ ]\011/* CallFunction */";
};
width = 514;
}
);
note = zero;
unicode = 0030;
},
{
glyphname = one;
lastChange = "2019-11-20 00:17:39 +0000";
layers = (
{
layerId = "D6A4831D-747C-4592-93C0-305F4CD57904";
paths = (
{
closed = 1;
nodes = (
"260 502 OFFCURVE",
"262 492 OFFCURVE",
"262 488 QCURVE SMOOTH",
"262 436 OFFCURVE",
"260 333 QCURVE SMOOTH",
"256 182 OFFCURVE",
"258 106 QCURVE SMOOTH",
"259 58 OFFCURVE",
"262 34 QCURVE SMOOTH",
"265 8 OFFCURVE",
"301 -4 OFFCURVE",
"332 -3 QCURVE",
"335 -2 OFFCURVE",
"345 29 OFFCURVE",
"345 40 QCURVE SMOOTH",
"345 87 LINE",
"345 181 LINE SMOOTH",
"345 235 OFFCURVE",
"346 262 QCURVE SMOOTH",
"352 420 LINE SMOOTH",
"353 446 OFFCURVE",
"358 524 OFFCURVE",
"358 578 QCURVE SMOOTH",
"358 600 LINE",
"358 617 OFFCURVE",
"348 637 OFFCURVE",
"332 642 QCURVE",
"327 644 OFFCURVE",
"289 656 OFFCURVE",
"272 656 QCURVE SMOOTH",
"245 656 OFFCURVE",
"226 632 QCURVE SMOOTH",
"128 502 LINE",
"56 408 LINE SMOOTH",
"36 387 OFFCURVE",
"40 371 QCURVE SMOOTH",
"52 316 OFFCURVE",
"103 329 OFFCURVE",
"119 350 QCURVE",
"133 372 OFFCURVE",
"147 393 QCURVE SMOOTH",
"174 433 OFFCURVE",
"246 512 QCURVE",
"250 510 OFFCURVE",
"257 508 OFFCURVE",
"260 507 QCURVE"
);
}
);
userData = {
assembly = "PUSHB[ ]\011/* 6 values pushed */
45 1 0 1 1 76 
MPPEM[ ]\011/* MeasurePixelPerEm */
PUSHB[ ]\011/* 1 value pushed */
21 
LT[ ]\011/* LessThan */
IF[ ]\011/* If */
NPUSHB[ ]\011/* 19 values pushed */
0 0 1 2 1 0 2 128 0 1 1 36 77 0 2 2 40 2 78 
ELSE[ ]\011/* Else */
MPPEM[ ]\011/* MeasurePixelPerEm */
PUSHB[ ]\011/* 1 value pushed */
36 
LT[ ]\011/* LessThan */
IF[ ]\011/* If */
NPUSHB[ ]\011/* 16 values pushed */
0 1 0 1 133 0 0 2 0 133 0 2 2 40 2 78 
ELSE[ ]\011/* Else */
NPUSHB[ ]\011/* 14 values pushed */
0 1 0 1 133 0 0 2 0 133 0 2 2 118 
EIF[ ]\011/* EndIf */
EIF[ ]\011/* EndIf */
PUSHB[ ]\011/* 7 values pushed */
37 35 40 39 3 8 24 
CALL[ ]\011/* CallFunction */";
};
width = 431;
}
);
note = one;
unicode = 0031;
},
{
glyphname = two;
lastChange = "2019-04-02 08:42:32 +0000";
layers = (
{
layerId = "D6A4831D-747C-4592-93C0-305F4CD57904";
paths = (
{
closed = 1;
nodes = (
"194 -31 OFFCURVE",
"275 -31 QCURVE SMOOTH",
"331 -31 OFFCURVE",
"385 -13 QCURVE SMOOTH",
"435 4 OFFCURVE",
"555 62 OFFCURVE",
"555 89 QCURVE SMOOTH",
"555 91 OFFCURVE",
"553 98 QCURVE",
"546 112 OFFCURVE",
"525 112 QCURVE SMOOTH",
"500 112 OFFCURVE",
"436 85 OFFCURVE",
"429 82 QCURVE",
"368 61 OFFCURVE",
"263 43 OFFCURVE",
"197 39 QCURVE",
"285 202 OFFCURVE",
"368 369 QCURVE SMOOTH",
"372 377 OFFCURVE",
"395 421 QCURVE SMOOTH",
"407 444 OFFCURVE",
"407 466 QCURVE SMOOTH",
"407 495 OFFCURVE",
"374 546 OFFCURVE",
"314 578 OFFCURVE",
"276 578 QCURVE SMOOTH",
"245 578 OFFCURVE",
"208 565 QCURVE SMOOTH",
"182 556 OFFCURVE",
"101 504 OFFCURVE",
"41 437 OFFCURVE",
"41 406 QCURVE SMOOTH",
"41 377 OFFCURVE",
"81 352 QCURVE SMOOTH",
"89 347 OFFCURVE",
"96 347 QCURVE SMOOTH",
"113 347 OFFCURVE",
"152 381 OFFCURVE",
"179 411 QCURVE SMOOTH",
"194 428 LINE",
"210 450 LINE SMOOTH",
"234 484 OFFCURVE",
"244 493 QCURVE",
"255 501 OFFCURVE",
"266 501 QCURVE SMOOTH",
"280 501 OFFCURVE",
"296 469 OFFCURVE",
"294 450 QCURVE",
"290 433 OFFCURVE",
"259 368 OFFCURVE",
"205 265 OFFCURVE",
"198 253 QCURVE SMOOTH",
"144 161 OFFCURVE",
"92 42 OFFCURVE",
"92 22 QCURVE SMOOTH",
"92 16 OFFCURVE",
"95 14 QCURVE"
);
}
);
userData = {
assembly = "PUSHB[ ]\011/* 6 values pushed */
1 1 5 3 1 76 
MPPEM[ ]\011/* MeasurePixelPerEm */
PUSHB[ ]\011/* 1 value pushed */
39 
LT[ ]\011/* LessThan */
IF[ ]\011/* If */
NPUSHB[ ]\011/* 34 values pushed */
0 1 0 4 0 1 4 128 0 4 3 0 4 3 126 0 2 0 0 1 2 0 105 0 3 3 5 97 0 5 5 31 5 78 
ELSE[ ]\011/* Else */
NPUSHB[ ]\011/* 39 values pushed */
0 1 0 4 0 1 4 128 0 4 3 0 4 3 126 0 2 0 0 1 2 0 105 0 3 5 5 3 89 0 3 3 5 97 0 5 3 5 81 
EIF[ ]\011/* EndIf */
NPUSHB[ ]\011/* 9 values pushed */
39 36 25 41 23 42 6 8 28 
CALL[ ]\011/* CallFunction */";
};
width = 555;
}
);
note = two;
unicode = 0032;
},
{
glyphname = three;
layers = (
{
layerId = "D6A4831D-747C-4592-93C0-305F4CD57904";
paths = (
{
closed = 1;
nodes = (
"345 72 OFFCURVE",
"381 199 OFFCURVE",
"381 274 QCURVE SMOOTH",
"381 326 OFFCURVE",
"351 385 OFFCURVE",
"283 415 OFFCURVE",
"222 423 QCURVE",
"227 431 OFFCURVE",
"248 458 QCURVE",
"262 478 OFFCURVE",
"263 479 QCURVE",
"280 508 OFFCURVE",
"280 531 QCURVE SMOOTH",
"280 563 OFFCURVE",
"247 591 QCURVE",
"217 614 OFFCURVE",
"175 614 QCURVE SMOOTH",
"124 614 OFFCURVE",
"78 579 QCURVE",
"70 576 OFFCURVE",
"46 562 OFFCURVE",
"34 551 OFFCURVE",
"34 544 QCURVE SMOOTH",
"34 539 OFFCURVE",
"36 531 QCURVE",
"47 523 OFFCURVE",
"65 523 QCURVE SMOOTH",
"82 523 OFFCURVE",
"113 532 QCURVE",
"139 538 OFFCURVE",
"146 538 QCURVE SMOOTH",
"167 538 OFFCURVE",
"167 518 QCURVE SMOOTH",
"167 512 OFFCURVE",
"165 501 QCURVE",
"160 479 OFFCURVE",
"154 471 QCURVE",
"108 399 LINE",
"61 326 LINE SMOOTH",
"50 309 OFFCURVE",
"50 300 QCURVE SMOOTH",
"50 296 OFFCURVE",
"51 296 QCURVE",
"66 285 OFFCURVE",
"84 275 OFFCURVE",
"95 275 QCURVE SMOOTH",
"107 275 OFFCURVE",
"119 283 QCURVE",
"207 347 LINE",
"227 360 OFFCURVE",
"237 360 QCURVE SMOOTH",
"261 360 OFFCURVE",
"267 314 QCURVE",
"269 289 OFFCURVE",
"269 276 QCURVE SMOOTH",
"269 189 OFFCURVE",
"228 91 QCURVE SMOOTH",
"210 46 OFFCURVE",
"154 -10 OFFCURVE",
"110 -15 QCURVE",
"105 -16 OFFCURVE",
"85 -25 OFFCURVE",
"77 -28 QCURVE",
"144 -61 OFFCURVE",
"185 -61 QCURVE SMOOTH",
"217 -61 OFFCURVE",
"273 -24 OFFCURVE",
"304 18 QCURVE SMOOTH"
);
}
);
userData = {
assembly = "NPUSHB[ ]\011/* 10 values pushed */
60 1 1 4 4 1 0 2 2 76 
MPPEM[ ]\011/* MeasurePixelPerEm */
PUSHB[ ]\011/* 1 value pushed */
21 
LT[ ]\011/* LessThan */
IF[ ]\011/* If */
NPUSHB[ ]\011/* 37 values pushed */
0 4 3 1 3 4 1 128 0 1 2 3 1 2 126 0 2 0 3 2 0 126 0 0 0 132 0 3 3 5 97 0 5 5 32 3 78 
ELSE[ ]\011/* Else */
NPUSHB[ ]\011/* 42 values pushed */
0 4 3 1 3 4 1 128 0 1 2 3 1 2 126 0 2 0 3 2 0 126 0 0 0 132 0 5 3 3 5 89 0 5 5 3 97 0 3 5 3 81 
EIF[ ]\011/* EndIf */
NPUSHB[ ]\011/* 9 values pushed */
40 35 29 35 44 33 6 8 28 
CALL[ ]\011/* CallFunction */";
};
width = 408;
}
);
note = three;
unicode = 0033;
},
{
glyphname = four;
lastChange = "2019-04-03 05:42:31 +0000";
layers = (
{
layerId = "D6A4831D-747C-4592-93C0-305F4CD57904";
paths = (
{
closed = 1;
nodes = (
"415 402 OFFCURVE",
"420 421 QCURVE",
"431 476 OFFCURVE",
"434 504 QCURVE",
"437 532 OFFCURVE",
"437 559 QCURVE",
"437 590 OFFCURVE",
"433 613 QCURVE",
"430 632 OFFCURVE",
"374 647 OFFCURVE",
"340 647 QCURVE",
"310 647 OFFCURVE",
"300 644 QCURVE",
"293 641 OFFCURVE",
"260 632 OFFCURVE",
"253 623 QCURVE",
"129 479 OFFCURVE",
"51 306 QCURVE",
"32 267 OFFCURVE",
"35 240 QCURVE",
"36 230 OFFCURVE",
"36 226 QCURVE SMOOTH",
"41 201 OFFCURVE",
"97 170 OFFCURVE",
"132 170 QCURVE",
"153 170 OFFCURVE",
"166 174 QCURVE",
"218 191 OFFCURVE",
"254 198 QCURVE SMOOTH",
"287 207 LINE SMOOTH",
"287 199 OFFCURVE",
"288 180 OFFCURVE",
"287 168 QCURVE",
"285 132 LINE",
"284 106 OFFCURVE",
"281 54 QCURVE SMOOTH",
"282 -19 OFFCURVE",
"284 -96 QCURVE",
"285 -133 OFFCURVE",
"314 -126 QCURVE SMOOTH",
"325 -123 OFFCURVE",
"343 -109 OFFCURVE",
"346 -102 QCURVE SMOOTH",
"358 -76 OFFCURVE",
"361 -31 QCURVE",
"377 183 LINE SMOOTH",
"377 191 OFFCURVE",
"379 235 OFFCURVE",
"401 262 OFFCURVE",
"449 274 QCURVE",
"462 277 OFFCURVE",
"493 294 QCURVE",
"515 305 OFFCURVE",
"517 308 QCURVE SMOOTH",
"500 346 OFFCURVE",
"467 346 QCURVE",
"457 346 OFFCURVE",
"431 339 OFFCURVE",
"426 338 QCURVE SMOOTH",
"415 333 OFFCURVE",
"401 331 QCURVE SMOOTH",
"401 340 OFFCURVE",
"406 361 OFFCURVE",
"407 365 QCURVE SMOOTH"
);
},
{
closed = 1;
nodes = (
"328 520 LINE",
"324 486 OFFCURVE",
"323 467 QCURVE SMOOTH",
"315 395 OFFCURVE",
"302 312 QCURVE",
"301 305 OFFCURVE",
"292 287 OFFCURVE",
"286 286 QCURVE SMOOTH",
"219 266 OFFCURVE",
"154 245 QCURVE",
"151 244 OFFCURVE",
"138 246 OFFCURVE",
"134 247 QCURVE SMOOTH",
"185 410 OFFCURVE",
"330 546 QCURVE SMOOTH"
);
}
);
userData = {
assembly = "NPUSHB[ ]\011/* 17 values pushed */
78 75 2 0 3 65 9 2 1 0 2 76 30 18 2 2 73 
MPPEM[ ]\011/* MeasurePixelPerEm */
PUSHB[ ]\011/* 1 value pushed */
21 
LT[ ]\011/* LessThan */
IF[ ]\011/* If */
NPUSHB[ ]\011/* 23 values pushed */
0 1 0 2 0 1 2 128 0 2 2 132 0 3 3 32 77 0 0 0 33 0 78 
ELSE[ ]\011/* Else */
MPPEM[ ]\011/* MeasurePixelPerEm */
PUSHB[ ]\011/* 1 value pushed */
44 
LT[ ]\011/* LessThan */
IF[ ]\011/* If */
NPUSHB[ ]\011/* 25 values pushed */
0 0 3 1 3 0 1 128 0 1 2 3 1 2 126 0 2 2 132 0 3 3 32 3 78 
ELSE[ ]\011/* Else */
NPUSHB[ ]\011/* 19 values pushed */
0 3 0 3 133 0 0 1 0 133 0 1 2 1 133 0 2 2 118 
EIF[ ]\011/* EndIf */
EIF[ ]\011/* EndIf */
NPUSHB[ ]\011/* 10 values pushed */
53 51 39 37 34 32 38 4 8 23 
CALL[ ]\011/* CallFunction */";
};
width = 559;
}
);
note = four;
unicode = 0034;
},
{
glyphname = five;
layers = (
{
layerId = "D6A4831D-747C-4592-93C0-305F4CD57904";
paths = (
{
closed = 1;
nodes = (
"657 579 OFFCURVE",
"665 602 OFFCURVE",
"665 614 QCURVE SMOOTH",
"665 625 OFFCURVE",
"659 641 OFFCURVE",
"654 642 QCURVE",
"612 646 LINE SMOOTH",
"595 648 OFFCURVE",
"590 648 QCURVE SMOOTH",
"581 648 OFFCURVE",
"550 645 QCURVE SMOOTH",
"528 643 OFFCURVE",
"449 631 QCURVE SMOOTH",
"361 616 OFFCURVE",
"315 614 QCURVE SMOOTH",
"280 613 OFFCURVE",
"233 587 OFFCURVE",
"213 557 QCURVE SMOOTH",
"161 479 OFFCURVE",
"115 434 QCURVE SMOOTH",
"101 420 OFFCURVE",
"88 403 OFFCURVE",
"89 397 QCURVE",
"90 389 OFFCURVE",
"122 372 QCURVE SMOOTH",
"150 356 OFFCURVE",
"167 354 QCURVE SMOOTH",
"217 347 OFFCURVE",
"275 286 OFFCURVE",
"295 238 QCURVE",
"307 215 OFFCURVE",
"307 187 QCURVE SMOOTH",
"307 149 OFFCURVE",
"280 117 QCURVE",
"262 91 OFFCURVE",
"214 61 OFFCURVE",
"180 61 QCURVE SMOOTH",
"163 61 OFFCURVE",
"154 63 QCURVE SMOOTH",
"136 67 OFFCURVE",
"116 67 QCURVE SMOOTH",
"93 67 OFFCURVE",
"68 63 QCURVE",
"57 63 OFFCURVE",
"36 61 QCURVE",
"35 54 LINE",
"115 -13 OFFCURVE",
"220 -13 QCURVE SMOOTH",
"241 -13 OFFCURVE",
"264 -10 QCURVE SMOOTH",
"308 -5 OFFCURVE",
"367 57 OFFCURVE",
"392 108 QCURVE SMOOTH",
"417 160 OFFCURVE",
"417 204 QCURVE SMOOTH",
"417 273 OFFCURVE",
"353 324 QCURVE SMOOTH",
"340 335 OFFCURVE",
"328 342 QCURVE",
"307 356 OFFCURVE",
"277 383 QCURVE",
"254 401 OFFCURVE",
"252 402 QCURVE",
"244 407 OFFCURVE",
"290 468 OFFCURVE",
"352 529 OFFCURVE",
"363 531 QCURVE SMOOTH",
"437 546 OFFCURVE",
"556 561 QCURVE SMOOTH",
"613 568 LINE",
"634 572 OFFCURVE",
"649 576 QCURVE"
);
}
);
userData = {
assembly = "NPUSHB[ ]\011/* 10 values pushed */
48 1 1 4 25 1 0 1 2 76 
MPPEM[ ]\011/* MeasurePixelPerEm */
PUSHB[ ]\011/* 1 value pushed */
21 
LT[ ]\011/* LessThan */
IF[ ]\011/* If */
NPUSHB[ ]\011/* 23 values pushed */
0 5 5 32 77 0 4 4 32 77 3 2 2 1 1 0 97 0 0 0 31 0 78 
ELSE[ ]\011/* Else */
MPPEM[ ]\011/* MeasurePixelPerEm */
PUSHB[ ]\011/* 1 value pushed */
41 
LT[ ]\011/* LessThan */
IF[ ]\011/* If */
NPUSHB[ ]\011/* 26 values pushed */
0 4 5 1 5 4 1 128 0 5 5 32 77 3 2 2 1 1 0 97 0 0 0 31 0 78 
ELSE[ ]\011/* Else */
NPUSHB[ ]\011/* 23 values pushed */
0 5 4 5 133 0 4 1 4 133 3 2 2 1 1 0 97 0 0 0 31 0 78 
EIF[ ]\011/* EndIf */
EIF[ ]\011/* EndIf */
NPUSHB[ ]\011/* 15 values pushed */
62 61 57 55 35 33 31 29 28 27 24 22 6 8 22 
CALL[ ]\011/* CallFunction */";
};
width = 649;
}
);
note = five;
unicode = 0035;
},
{
glyphname = six;
layers = (
{
layerId = "D6A4831D-747C-4592-93C0-305F4CD57904";
paths = (
{
closed = 1;
nodes = (
"293 -6 OFFCURVE",
"311 -6 QCURVE SMOOTH",
"376 -7 OFFCURVE",
"421 29 QCURVE SMOOTH",
"441 45 OFFCURVE",
"470 102 OFFCURVE",
"470 128 QCURVE SMOOTH",
"470 157 OFFCURVE",
"429 209 OFFCURVE",
"366 240 OFFCURVE",
"334 240 QCURVE SMOOTH",
"300 240 OFFCURVE",
"276 222 QCURVE SMOOTH",
"256 207 OFFCURVE",
"226 180 OFFCURVE",
"208 156 QCURVE SMOOTH",
"202 148 OFFCURVE",
"189 127 OFFCURVE",
"185 127 QCURVE SMOOTH",
"179 127 OFFCURVE",
"168 151 QCURVE SMOOTH",
"145 200 OFFCURVE",
"144 261 QCURVE SMOOTH",
"143 306 OFFCURVE",
"174 390 OFFCURVE",
"200 438 QCURVE",
"204 444 OFFCURVE",
"209 454 OFFCURVE",
"211 458 QCURVE SMOOTH",
"230 493 OFFCURVE",
"260 534 OFFCURVE",
"308 563 OFFCURVE",
"342 563 QCURVE SMOOTH",
"347 563 OFFCURVE",
"362 579 OFFCURVE",
"361 583 QCURVE SMOOTH",
"357 598 OFFCURVE",
"347 616 OFFCURVE",
"340 622 QCURVE",
"320 637 OFFCURVE",
"282 637 QCURVE SMOOTH",
"257 637 OFFCURVE",
"210 622 OFFCURVE",
"195 606 QCURVE SMOOTH",
"45 446 OFFCURVE",
"34 255 QCURVE",
"33 248 OFFCURVE",
"33 237 QCURVE SMOOTH",
"33 181 OFFCURVE",
"113 71 OFFCURVE",
"232 1 OFFCURVE",
"284 -5 QCURVE SMOOTH"
);
},
{
closed = 1;
nodes = (
"327 169 OFFCURVE",
"335 169 QCURVE SMOOTH",
"354 169 OFFCURVE",
"369 145 QCURVE SMOOTH",
"375 135 OFFCURVE",
"375 126 QCURVE SMOOTH",
"375 105 OFFCURVE",
"323 73 OFFCURVE",
"293 73 QCURVE SMOOTH",
"269 73 OFFCURVE",
"256 82 QCURVE",
"256 104 OFFCURVE",
"273 134 OFFCURVE",
"295 151 OFFCURVE",
"318 164 QCURVE SMOOTH"
);
}
);
userData = {
assembly = "NPUSHB[ ]\011/* 10 values pushed */
15 1 1 0 55 1 5 2 2 76 
MPPEM[ ]\011/* MeasurePixelPerEm */
PUSHB[ ]\011/* 1 value pushed */
44 
LT[ ]\011/* LessThan */
IF[ ]\011/* If */
NPUSHB[ ]\011/* 37 values pushed */
0 2 6 5 6 2 5 128 0 3 0 6 2 3 6 105 0 1 1 0 97 0 0 0 32 77 0 5 5 4 97 0 4 4 31 4 78 
ELSE[ ]\011/* Else */
NPUSHB[ ]\011/* 34 values pushed */
0 2 6 5 6 2 5 128 0 3 0 6 2 3 6 105 0 5 0 4 5 4 101 0 1 1 0 97 0 0 0 32 1 78 
EIF[ ]\011/* EndIf */
NPUSHB[ ]\011/* 10 values pushed */
21 38 39 38 44 38 41 7 8 29 
CALL[ ]\011/* CallFunction */";
};
width = 520;
}
);
note = six;
unicode = 0036;
},
{
glyphname = seven;
lastChange = "2019-04-02 08:44:43 +0000";
layers = (
{
layerId = "D6A4831D-747C-4592-93C0-305F4CD57904";
paths = (
{
closed = 1;
nodes = (
"288 547 OFFCURVE",
"337 550 QCURVE SMOOTH",
"353 551 OFFCURVE",
"374 536 OFFCURVE",
"374 520 QCURVE SMOOTH",
"374 512 OFFCURVE",
"373 508 QCURVE SMOOTH",
"368 486 OFFCURVE",
"341 427 OFFCURVE",
"338 421 QCURVE SMOOTH",
"318 380 OFFCURVE",
"311 358 QCURVE SMOOTH",
"296 311 OFFCURVE",
"257 214 OFFCURVE",
"253 203 QCURVE SMOOTH",
"217 102 OFFCURVE",
"195 47 QCURVE SMOOTH",
"189 32 OFFCURVE",
"190 17 QCURVE SMOOTH",
"192 -7 OFFCURVE",
"200 -20 QCURVE",
"208 -32 OFFCURVE",
"231 -32 QCURVE SMOOTH",
"240 -32 OFFCURVE",
"249 -29 QCURVE SMOOTH",
"271 -22 OFFCURVE",
"290 19 QCURVE SMOOTH",
"305 54 OFFCURVE",
"325 115 QCURVE SMOOTH",
"334 142 LINE SMOOTH",
"343 169 OFFCURVE",
"353 204 QCURVE SMOOTH",
"375 282 OFFCURVE",
"394 328 QCURVE SMOOTH",
"422 395 OFFCURVE",
"455 485 OFFCURVE",
"477 528 QCURVE SMOOTH",
"491 556 OFFCURVE",
"491 575 QCURVE SMOOTH",
"491 609 OFFCURVE",
"444 623 QCURVE SMOOTH",
"417 631 OFFCURVE",
"378 632 QCURVE SMOOTH",
"214 636 OFFCURVE",
"134 623 QCURVE SMOOTH",
"110 619 OFFCURVE",
"52 614 OFFCURVE",
"41 613 QCURVE",
"24 610 OFFCURVE",
"-10 606 QCURVE",
"14 562 OFFCURVE",
"56 532 OFFCURVE",
"89 532 QCURVE SMOOTH",
"99 532 OFFCURVE",
"125 534 QCURVE SMOOTH"
);
}
);
userData = {
assembly = "NPUSHB[ ]\011/* 11 values pushed */
4 1 3 1 49 35 2 2 0 2 76 
MPPEM[ ]\011/* MeasurePixelPerEm */
PUSHB[ ]\011/* 1 value pushed */
36 
LT[ ]\011/* LessThan */
IF[ ]\011/* If */
NPUSHB[ ]\011/* 24 values pushed */
0 0 3 2 3 0 2 128 0 3 3 1 97 0 1 1 32 77 0 2 2 31 2 78 
ELSE[ ]\011/* Else */
NPUSHB[ ]\011/* 23 values pushed */
0 0 3 2 3 0 2 128 0 2 2 132 0 3 3 1 97 0 1 1 32 3 78 
EIF[ ]\011/* EndIf */
NPUSHB[ ]\011/* 9 values pushed */
53 51 32 30 40 32 4 8 24 
CALL[ ]\011/* CallFunction */";
};
width = 511;
}
);
note = seven;
unicode = 0037;
},
{
glyphname = eight;
layers = (
{
layerId = "D6A4831D-747C-4592-93C0-305F4CD57904";
paths = (
{
closed = 1;
nodes = (
"97 390 LINE SMOOTH",
"62 324 OFFCURVE",
"34 247 OFFCURVE",
"32 198 QCURVE",
"30 184 OFFCURVE",
"30 177 QCURVE SMOOTH",
"30 132 OFFCURVE",
"87 51 OFFCURVE",
"180 2 OFFCURVE",
"231 2 QCURVE SMOOTH",
"290 2 OFFCURVE",
"380 77 OFFCURVE",
"401 139 QCURVE",
"404 150 OFFCURVE",
"423 210 OFFCURVE",
"438 278 OFFCURVE",
"438 317 QCURVE SMOOTH",
"438 352 OFFCURVE",
"411 441 OFFCURVE",
"391 461 QCURVE",
"379 476 OFFCURVE",
"352 503 OFFCURVE",
"352 506 QCURVE SMOOTH",
"352 510 OFFCURVE",
"376 528 OFFCURVE",
"390 540 QCURVE SMOOTH",
"405 553 OFFCURVE",
"429 624 OFFCURVE",
"429 649 QCURVE SMOOTH",
"429 662 OFFCURVE",
"425 666 QCURVE SMOOTH",
"404 687 OFFCURVE",
"353 733 OFFCURVE",
"324 742 QCURVE SMOOTH",
"283 755 OFFCURVE",
"253 753 QCURVE SMOOTH",
"204 750 OFFCURVE",
"123 704 OFFCURVE",
"83 657 QCURVE",
"65 624 OFFCURVE",
"47 583 OFFCURVE",
"47 560 QCURVE SMOOTH",
"47 530 OFFCURVE",
"64 502 QCURVE",
"74 482 OFFCURVE",
"109 459 OFFCURVE",
"137 450 QCURVE",
"133 444 OFFCURVE",
"114 424 OFFCURVE",
"113 420 QCURVE"
);
},
{
closed = 1;
nodes = (
"316 686 OFFCURVE",
"334 670 OFFCURVE",
"334 658 QCURVE SMOOTH",
"334 648 OFFCURVE",
"330 640 QCURVE SMOOTH",
"285 550 OFFCURVE",
"203 516 QCURVE SMOOTH",
"194 512 OFFCURVE",
"185 512 QCURVE SMOOTH",
"173 512 OFFCURVE",
"161 529 OFFCURVE",
"161 544 QCURVE SMOOTH",
"161 583 OFFCURVE",
"198 648 OFFCURVE",
"262 686 OFFCURVE",
"301 686 QCURVE SMOOTH"
);
},
{
closed = 1;
nodes = (
"327 268 OFFCURVE",
"293 183 OFFCURVE",
"265 124 QCURVE SMOOTH",
"255 103 OFFCURVE",
"226 73 OFFCURVE",
"208 73 QCURVE SMOOTH",
"199 73 OFFCURVE",
"189 78 QCURVE",
"173 88 OFFCURVE",
"149 134 OFFCURVE",
"146 158 QCURVE SMOOTH",
"141 198 OFFCURVE",
"141 231 QCURVE SMOOTH",
"141 322 OFFCURVE",
"177 377 QCURVE SMOOTH",
"196 406 OFFCURVE",
"247 446 OFFCURVE",
"295 477 QCURVE",
"298 476 OFFCURVE",
"321 414 OFFCURVE",
"338 338 OFFCURVE",
"336 312 QCURVE"
);
}
);
userData = {
assembly = "NPUSHB[ ]\011/* 56 values pushed */
20 1 2 3 45 43 2 3 4 2 2 76 0 2 3 4 3 2 4 128 0 0 5 1 3 2 0 3 105 0 4 4 1 97 0 1 1 40 1 78 50 50 82 80 50 65 50 64 57 55 40 38 44 6 8 23 
CALL[ ]\011/* CallFunction */";
};
width = 489;
}
);
note = eight;
unicode = 0038;
},
{
glyphname = nine;
layers = (
{
layerId = "D6A4831D-747C-4592-93C0-305F4CD57904";
paths = (
{
closed = 1;
nodes = (
"389 618 OFFCURVE",
"398 618 QCURVE SMOOTH",
"420 618 OFFCURVE",
"437 630 QCURVE",
"440 633 OFFCURVE",
"440 643 QCURVE SMOOTH",
"440 651 OFFCURVE",
"436 669 OFFCURVE",
"433 674 QCURVE",
"410 705 OFFCURVE",
"341 735 OFFCURVE",
"300 735 QCURVE SMOOTH",
"222 735 OFFCURVE",
"103 651 OFFCURVE",
"54 577 QCURVE SMOOTH",
"27 536 OFFCURVE",
"27 497 QCURVE SMOOTH",
"27 476 OFFCURVE",
"32 462 QCURVE",
"45 421 OFFCURVE",
"134 357 OFFCURVE",
"176 357 QCURVE SMOOTH",
"197 357 OFFCURVE",
"248 375 OFFCURVE",
"258 378 QCURVE SMOOTH",
"267 381 OFFCURVE",
"274 381 QCURVE SMOOTH",
"282 381 OFFCURVE",
"287 368 OFFCURVE",
"286 352 QCURVE SMOOTH",
"278 230 OFFCURVE",
"278 166 QCURVE SMOOTH",
"278 132 LINE SMOOTH",
"279 101 OFFCURVE",
"293 43 OFFCURVE",
"306 -7 QCURVE",
"312 -27 OFFCURVE",
"345 -48 OFFCURVE",
"368 -48 QCURVE SMOOTH",
"382 -48 OFFCURVE",
"394 -39 OFFCURVE",
"394 -28 QCURVE SMOOTH",
"394 -25 OFFCURVE",
"392 -14 QCURVE",
"372 77 OFFCURVE",
"372 171 QCURVE SMOOTH",
"372 314 OFFCURVE",
"421 485 QCURVE SMOOTH",
"427 504 OFFCURVE",
"427 511 QCURVE SMOOTH",
"427 527 OFFCURVE",
"410 537 QCURVE",
"387 552 OFFCURVE",
"361 552 QCURVE SMOOTH",
"336 552 OFFCURVE",
"326 538 QCURVE",
"256 457 OFFCURVE",
"180 433 QCURVE SMOOTH",
"166 429 OFFCURVE",
"153 429 QCURVE SMOOTH",
"136 429 OFFCURVE",
"128 435 QCURVE",
"122 441 OFFCURVE",
"116 464 OFFCURVE",
"116 475 QCURVE SMOOTH",
"116 484 OFFCURVE",
"117 488 QCURVE",
"126 532 OFFCURVE",
"195 612 OFFCURVE",
"290 659 OFFCURVE",
"334 656 QCURVE",
"341 650 OFFCURVE",
"372 624 OFFCURVE",
"386 620 QCURVE"
);
}
);
userData = {
assembly = "NPUSHB[ ]\011/* 70 values pushed */
23 8 2 1 2 1 76 0 7 0 2 0 7 2 128 0 2 1 0 2 1 126 0 4 1 5 1 4 5 128 0 3 5 3 134 0 6 0 0 7 6 0 105 0 1 4 5 1 89 0 1 1 5 97 0 5 1 5 81 40 40 35 42 45 36 41 18 8 8 30 
CALL[ ]\011/* CallFunction */";
};
width = 490;
}
);
note = nine;
unicode = 0039;
},
{
glyphname = colon;
lastChange = "2019-03-19 07:58:05 +0000";
layers = (
{
layerId = "D6A4831D-747C-4592-93C0-305F4CD57904";
paths = (
{
closed = 1;
nodes = (
"98 372 OFFCURVE",
"98 361 QCURVE SMOOTH",
"98 332 OFFCURVE",
"142 263 OFFCURVE",
"167 251 QCURVE SMOOTH",
"177 246 OFFCURVE",
"190 247 QCURVE SMOOTH",
"208 248 OFFCURVE",
"230 272 OFFCURVE",
"230 293 QCURVE SMOOTH",
"230 311 OFFCURVE",
"195 361 OFFCURVE",
"146 400 OFFCURVE",
"126 402 QCURVE",
"122 399 OFFCURVE",
"102 384 OFFCURVE",
"100 376 QCURVE"
);
},
{
closed = 1;
nodes = (
"93 185 LINE",
"76 174 LINE",
"76 166 OFFCURVE",
"73 148 OFFCURVE",
"73 140 QCURVE SMOOTH",
"73 131 OFFCURVE",
"77 125 QCURVE",
"102 87 OFFCURVE",
"146 43 QCURVE SMOOTH",
"162 27 OFFCURVE",
"183 27 QCURVE SMOOTH",
"200 27 OFFCURVE",
"216 40 QCURVE",
"228 49 OFFCURVE",
"228 67 QCURVE SMOOTH",
"228 80 OFFCURVE",
"216 105 OFFCURVE",
"203 114 QCURVE",
"177 130 OFFCURVE",
"127 163 QCURVE SMOOTH"
);
}
);
userData = {
assembly = "NPUSHB[ ]\011/* 29 values pushed */
36 35 2 2 1 1 76 0 0 1 0 133 0 1 2 1 133 0 2 2 34 2 78 47 37 33 3 8 25 
CALL[ ]\011/* CallFunction */";
};
width = 276;
}
);
note = colon;
unicode = 003A;
},
{
glyphname = semicolon;
layers = (
{
layerId = "D6A4831D-747C-4592-93C0-305F4CD57904";
paths = (
{
closed = 1;
nodes = (
"171 176 OFFCURVE",
"204 169 OFFCURVE",
"218 172 QCURVE SMOOTH",
"234 175 OFFCURVE",
"236 185 QCURVE",
"247 225 OFFCURVE",
"241 265 QCURVE",
"238 278 OFFCURVE",
"213 292 OFFCURVE",
"196 286 QCURVE SMOOTH",
"184 282 OFFCURVE",
"165 280 OFFCURVE",
"158 278 QCURVE",
"135 273 LINE",
"134 258 OFFCURVE",
"138 238 QCURVE SMOOTH",
"145 202 OFFCURVE",
"162 185 QCURVE SMOOTH"
);
},
{
closed = 1;
nodes = (
"236 56 OFFCURVE",
"232 77 QCURVE SMOOTH",
"227 102 OFFCURVE",
"203 124 QCURVE SMOOTH",
"190 136 OFFCURVE",
"176 133 QCURVE SMOOTH",
"168 131 OFFCURVE",
"153 112 OFFCURVE",
"151 99 QCURVE SMOOTH",
"145 57 OFFCURVE",
"147 2 QCURVE",
"149 -11 LINE",
"144 -123 OFFCURVE",
"125 -220 QCURVE SMOOTH",
"123 -230 OFFCURVE",
"123 -244 QCURVE SMOOTH",
"123 -267 LINE",
"157 -251 OFFCURVE",
"196 -202 OFFCURVE",
"206 -168 QCURVE SMOOTH",
"222 -118 OFFCURVE",
"225 -68 QCURVE SMOOTH",
"227 -39 OFFCURVE",
"231 21 QCURVE"
);
}
);
userData = {
assembly = "PUSHB[ ]\011/* 6 values pushed */
36 24 15 8 2 50 
CALL[ ]\011/* CallFunction */";
};
width = 325;
}
);
note = semicolon;
unicode = 003B;
},
{
glyphname = less;
layers = (
{
layerId = "D6A4831D-747C-4592-93C0-305F4CD57904";
paths = (
{
closed = 1;
nodes = (
"409 476 OFFCURVE",
"487 549 QCURVE SMOOTH",
"503 564 OFFCURVE",
"538 590 QCURVE SMOOTH",
"563 609 LINE",
"579 624 OFFCURVE",
"579 647 QCURVE SMOOTH",
"579 660 OFFCURVE",
"567 682 OFFCURVE",
"555 687 QCURVE SMOOTH",
"522 702 OFFCURVE",
"494 702 QCURVE SMOOTH",
"444 702 OFFCURVE",
"398 648 QCURVE SMOOTH",
"386 634 OFFCURVE",
"322 566 QCURVE SMOOTH",
"284 524 LINE",
"77 293 LINE SMOOTH",
"66 280 OFFCURVE",
"66 269 QCURVE SMOOTH",
"66 254 OFFCURVE",
"78 247 QCURVE",
"86 240 OFFCURVE",
"118 217 OFFCURVE",
"152 200 OFFCURVE",
"173 201 QCURVE SMOOTH",
"211 203 OFFCURVE",
"284 188 OFFCURVE",
"341 174 QCURVE",
"428 149 OFFCURVE",
"515 149 QCURVE SMOOTH",
"548 149 OFFCURVE",
"580 153 QCURVE SMOOTH",
"599 155 OFFCURVE",
"621 167 OFFCURVE",
"624 186 QCURVE",
"620 189 OFFCURVE",
"604 201 OFFCURVE",
"597 202 QCURVE",
"535 216 OFFCURVE",
"502 217 QCURVE SMOOTH",
"440 217 OFFCURVE",
"322 248 OFFCURVE",
"231 279 QCURVE",
"247 298 LINE SMOOTH",
"293 355 OFFCURVE",
"317 381 QCURVE SMOOTH"
);
}
);
userData = {
assembly = "PUSHB[ ]\011/* 6 values pushed */
2 1 0 3 1 76 
MPPEM[ ]\011/* MeasurePixelPerEm */
PUSHB[ ]\011/* 1 value pushed */
21 
LT[ ]\011/* LessThan */
IF[ ]\011/* If */
NPUSHB[ ]\011/* 21 values pushed */
0 2 0 1 0 2 1 128 0 0 0 1 0 1 101 0 3 3 36 3 78 
ELSE[ ]\011/* Else */
NPUSHB[ ]\011/* 29 values pushed */
0 3 0 3 133 0 2 0 1 0 2 1 128 0 0 2 1 0 89 0 0 0 1 97 0 1 0 1 81 
EIF[ ]\011/* EndIf */
PUSHB[ ]\011/* 7 values pushed */
44 35 40 36 4 8 26 
CALL[ ]\011/* CallFunction */";
};
width = 674;
}
);
note = less;
unicode = 003C;
},
{
glyphname = equal;
lastChange = "2019-03-19 08:03:36 +0000";
layers = (
{
layerId = "D6A4831D-747C-4592-93C0-305F4CD57904";
paths = (
{
closed = 1;
nodes = (
"261 362 OFFCURVE",
"160 362 QCURVE SMOOTH",
"120 362 OFFCURVE",
"74 348 OFFCURVE",
"50 328 QCURVE",
"54 323 OFFCURVE",
"70 300 OFFCURVE",
"77 295 QCURVE SMOOTH",
"113 267 OFFCURVE",
"161 267 QCURVE SMOOTH",
"173 267 OFFCURVE",
"179 268 QCURVE",
"295 278 OFFCURVE",
"367 284 QCURVE SMOOTH",
"539 296 LINE",
"536 334 OFFCURVE",
"497 376 OFFCURVE",
"467 374 QCURVE SMOOTH"
);
},
{
closed = 1;
nodes = (
"176 122 OFFCURVE",
"257 101 OFFCURVE",
"307 100 QCURVE SMOOTH",
"377 102 OFFCURVE",
"487 110 QCURVE SMOOTH",
"510 112 LINE SMOOTH",
"531 114 OFFCURVE",
"558 125 QCURVE SMOOTH",
"584 135 OFFCURVE",
"584 154 QCURVE SMOOTH",
"584 169 OFFCURVE",
"566 182 QCURVE",
"525 213 OFFCURVE",
"481 213 QCURVE SMOOTH",
"458 213 OFFCURVE",
"426 205 QCURVE",
"419 204 OFFCURVE",
"391 198 OFFCURVE",
"380 197 QCURVE SMOOTH",
"359 196 LINE SMOOTH",
"287 189 OFFCURVE",
"239 187 QCURVE SMOOTH",
"186 186 OFFCURVE",
"143 197 QCURVE SMOOTH",
"139 198 OFFCURVE",
"128 196 OFFCURVE",
"126 196 QCURVE",
"119 186 OFFCURVE",
"119 177 QCURVE SMOOTH",
"119 162 OFFCURVE",
"141 146 QCURVE SMOOTH"
);
}
);
userData = {
assembly = "NPUSHB[ ]\011/* 58 values pushed */
12 2 2 0 1 1 76 6 1 1 0 0 3 1 0 105 0 2 4 5 2 89 0 3 0 4 5 3 4 105 0 2 2 5 97 0 5 2 5 81 0 0 46 44 42 41 35 33 27 25 0 17 0 14 53 7 8 23 
CALL[ ]\011/* CallFunction */";
};
width = 600;
}
);
note = equal;
unicode = 003D;
},
{
glyphname = greater;
layers = (
{
layerId = "D6A4831D-747C-4592-93C0-305F4CD57904";
paths = (
{
closed = 1;
nodes = (
"356 536 LINE",
"323 565 OFFCURVE",
"295 584 QCURVE",
"272 608 OFFCURVE",
"238 633 QCURVE SMOOTH",
"205 658 OFFCURVE",
"195 666 QCURVE",
"179 684 OFFCURVE",
"161 684 QCURVE SMOOTH",
"149 684 OFFCURVE",
"137 675 QCURVE SMOOTH",
"127 668 OFFCURVE",
"127 658 QCURVE SMOOTH",
"127 646 OFFCURVE",
"142 627 QCURVE SMOOTH",
"198 551 OFFCURVE",
"229 516 QCURVE SMOOTH",
"239 505 OFFCURVE",
"276 476 OFFCURVE",
"295 463 QCURVE",
"340 429 OFFCURVE",
"350 420 QCURVE",
"326 407 OFFCURVE",
"264 385 QCURVE SMOOTH",
"206 366 OFFCURVE",
"179 351 QCURVE SMOOTH",
"118 315 OFFCURVE",
"73 285 QCURVE SMOOTH",
"50 269 OFFCURVE",
"50 250 QCURVE SMOOTH",
"50 240 OFFCURVE",
"58 229 QCURVE SMOOTH",
"68 216 OFFCURVE",
"106 200 OFFCURVE",
"126 200 QCURVE SMOOTH",
"148 200 OFFCURVE",
"161 208 QCURVE",
"180 218 OFFCURVE",
"215 238 OFFCURVE",
"231 247 QCURVE SMOOTH",
"256 261 LINE SMOOTH",
"289 280 OFFCURVE",
"444 341 OFFCURVE",
"448 343 QCURVE",
"503 367 OFFCURVE",
"503 395 QCURVE SMOOTH",
"503 409 OFFCURVE",
"473 445 OFFCURVE",
"413 490 OFFCURVE",
"405 496 QCURVE"
);
}
);
userData = {
assembly = "PUSHB[ ]\011/* 6 values pushed */
27 1 0 1 1 76 
MPPEM[ ]\011/* MeasurePixelPerEm */
PUSHB[ ]\011/* 1 value pushed */
21 
LT[ ]\011/* LessThan */
IF[ ]\011/* If */
NPUSHB[ ]\011/* 11 values pushed */
0 0 1 0 134 0 1 1 30 1 78 
ELSE[ ]\011/* Else */
NPUSHB[ ]\011/* 9 values pushed */
0 1 0 1 133 0 0 0 118 
EIF[ ]\011/* EndIf */
PUSHB[ ]\011/* 6 values pushed */
41 39 45 2 8 23 
CALL[ ]\011/* CallFunction */";
};
width = 553;
}
);
note = greater;
unicode = 003E;
},
{
glyphname = question;
layers = (
{
layerId = "D6A4831D-747C-4592-93C0-305F4CD57904";
paths = (
{
closed = 1;
nodes = (
"99 754 OFFCURVE",
"99 738 QCURVE SMOOTH",
"99 729 OFFCURVE",
"105 718 QCURVE",
"115 702 OFFCURVE",
"148 685 OFFCURVE",
"167 685 QCURVE SMOOTH",
"199 685 OFFCURVE",
"220 705 QCURVE",
"255 736 OFFCURVE",
"280 745 QCURVE SMOOTH",
"293 750 OFFCURVE",
"308 750 QCURVE SMOOTH",
"325 750 OFFCURVE",
"335 744 QCURVE SMOOTH",
"353 733 OFFCURVE",
"353 708 QCURVE SMOOTH",
"353 695 OFFCURVE",
"348 680 QCURVE",
"331 636 OFFCURVE",
"308 606 QCURVE SMOOTH",
"223 502 LINE",
"178 449 LINE SMOOTH",
"144 407 OFFCURVE",
"74 323 QCURVE",
"64 310 OFFCURVE",
"64 300 QCURVE SMOOTH",
"64 290 OFFCURVE",
"72 283 QCURVE",
"79 276 OFFCURVE",
"98 268 OFFCURVE",
"105 270 QCURVE SMOOTH",
"145 280 OFFCURVE",
"172 298 QCURVE SMOOTH",
"211 323 OFFCURVE",
"277 388 OFFCURVE",
"323 440 QCURVE",
"324 441 OFFCURVE",
"357 477 QCURVE SMOOTH",
"433 559 OFFCURVE",
"464 642 QCURVE SMOOTH",
"471 660 OFFCURVE",
"471 680 QCURVE SMOOTH",
"471 704 OFFCURVE",
"460 723 QCURVE SMOOTH",
"403 827 OFFCURVE",
"280 841 QCURVE",
"180 837 OFFCURVE",
"113 768 QCURVE SMOOTH"
);
},
{
closed = 1;
nodes = (
"193 -3 OFFCURVE",
"246 -31 QCURVE",
"280 20 LINE",
"186 85 LINE",
"166 68 OFFCURVE",
"148 47 OFFCURVE",
"148 39 QCURVE SMOOTH",
"148 31 OFFCURVE",
"164 15 OFFCURVE",
"183 3 QCURVE SMOOTH"
);
}
);
userData = {
assembly = "NPUSHB[ ]\011/* 38 values pushed */
56 55 54 3 2 73 0 1 0 2 0 1 2 128 0 0 1 2 0 89 0 0 0 2 97 0 2 0 2 81 42 40 36 34 16 3 8 23 
CALL[ ]\011/* CallFunction */";
};
width = 522;
}
);
note = question;
unicode = 003F;
},
{
glyphname = at;
layers = (
{
layerId = "D6A4831D-747C-4592-93C0-305F4CD57904";
paths = (
{
closed = 1;
nodes = (
"604 481 OFFCURVE",
"587 499 QCURVE SMOOTH",
"498 595 OFFCURVE",
"386 591 QCURVE",
"363 589 LINE",
"343 588 OFFCURVE",
"318 584 OFFCURVE",
"307 579 QCURVE SMOOTH",
"231 544 OFFCURVE",
"176 503 QCURVE SMOOTH",
"105 450 OFFCURVE",
"66 364 QCURVE SMOOTH",
"50 329 OFFCURVE",
"50 294 QCURVE SMOOTH",
"50 250 OFFCURVE",
"75 195 QCURVE SMOOTH",
"153 25 OFFCURVE",
"335 1 QCURVE",
"348 0 LINE",
"357 0 OFFCURVE",
"363 3 QCURVE",
"371 8 OFFCURVE",
"386 26 OFFCURVE",
"389 29 QCURVE",
"383 31 OFFCURVE",
"366 38 OFFCURVE",
"360 39 QCURVE",
"277 42 OFFCURVE",
"223 93 QCURVE SMOOTH",
"208 108 OFFCURVE",
"181 147 OFFCURVE",
"154 197 OFFCURVE",
"149 205 QCURVE",
"128 243 OFFCURVE",
"128 282 QCURVE SMOOTH",
"128 309 OFFCURVE",
"148 363 OFFCURVE",
"167 394 QCURVE SMOOTH",
"213 468 OFFCURVE",
"303 527 QCURVE SMOOTH",
"347 556 OFFCURVE",
"391 556 QCURVE SMOOTH",
"425 556 OFFCURVE",
"459 538 QCURVE SMOOTH",
"517 508 OFFCURVE",
"577 410 OFFCURVE",
"586 343 QCURVE SMOOTH",
"588 327 OFFCURVE",
"588 320 QCURVE SMOOTH",
"588 254 OFFCURVE",
"529 214 QCURVE",
"517 207 OFFCURVE",
"511 207 QCURVE SMOOTH",
"499 207 OFFCURVE",
"491 222 QCURVE SMOOTH",
"487 229 OFFCURVE",
"481 242 OFFCURVE",
"478 248 QCURVE SMOOTH",
"469 266 OFFCURVE",
"439 286 OFFCURVE",
"423 286 QCURVE SMOOTH",
"392 286 OFFCURVE",
"371 258 QCURVE",
"356 240 OFFCURVE",
"323 223 QCURVE",
"316 220 OFFCURVE",
"311 220 QCURVE SMOOTH",
"294 220 OFFCURVE",
"294 247 QCURVE SMOOTH",
"294 268 OFFCURVE",
"333 344 OFFCURVE",
"349 351 QCURVE SMOOTH",
"358 355 OFFCURVE",
"370 349 QCURVE",
"375 346 OFFCURVE",
"386 333 OFFCURVE",
"388 330 QCURVE",
"398 318 OFFCURVE",
"423 318 QCURVE SMOOTH",
"443 318 OFFCURVE",
"450 327 QCURVE SMOOTH",
"459 338 OFFCURVE",
"459 347 QCURVE SMOOTH",
"459 360 OFFCURVE",
"442 377 QCURVE",
"406 410 OFFCURVE",
"364 410 QCURVE SMOOTH",
"347 410 OFFCURVE",
"328 404 QCURVE SMOOTH",
"295 394 OFFCURVE",
"250 351 OFFCURVE",
"231 319 QCURVE SMOOTH",
"215 291 OFFCURVE",
"215 264 QCURVE SMOOTH",
"215 236 OFFCURVE",
"249 188 OFFCURVE",
"279 175 QCURVE SMOOTH",
"308 162 OFFCURVE",
"334 162 QCURVE SMOOTH",
"364 162 OFFCURVE",
"395 179 QCURVE SMOOTH",
"411 188 OFFCURVE",
"423 188 QCURVE SMOOTH",
"428 188 OFFCURVE",
"430 186 QCURVE",
"465 154 OFFCURVE",
"515 154 QCURVE SMOOTH",
"529 154 OFFCURVE",
"557 158 QCURVE SMOOTH",
"580 161 OFFCURVE",
"631 194 OFFCURVE",
"667 239 OFFCURVE",
"668 259 QCURVE SMOOTH",
"669 280 LINE SMOOTH",
"671 308 OFFCURVE",
"671 322 QCURVE SMOOTH",
"671 388 OFFCURVE",
"641 429 QCURVE SMOOTH"
);
}
);
userData = {
assembly = "NPUSHB[ ]\011/* 10 values pushed */
68 1 4 3 3 1 5 6 2 76 
MPPEM[ ]\011/* MeasurePixelPerEm */
PUSHB[ ]\011/* 1 value pushed */
29 
LT[ ]\011/* LessThan */
IF[ ]\011/* If */
NPUSHB[ ]\011/* 53 values pushed */
12 1 11 0 8 3 11 8 105 0 5 7 0 5 89 0 6 0 1 0 6 1 105 0 7 2 1 0 9 7 0 105 0 4 4 3 97 0 3 3 33 77 0 9 9 10 97 0 10 10 40 10 78 
ELSE[ ]\011/* Else */
MPPEM[ ]\011/* MeasurePixelPerEm */
PUSHB[ ]\011/* 1 value pushed */
44 
LT[ ]\011/* LessThan */
IF[ ]\011/* If */
NPUSHB[ ]\011/* 54 values pushed */
12 1 11 0 8 3 11 8 105 0 6 0 1 2 6 1 105 0 5 0 2 0 5 2 105 0 7 0 0 9 7 0 105 0 4 4 3 97 0 3 3 33 77 0 9 9 10 97 0 10 10 40 10 78 
ELSE[ ]\011/* Else */
MPPEM[ ]\011/* MeasurePixelPerEm */
PUSHB[ ]\011/* 1 value pushed */
46 
LT[ ]\011/* LessThan */
IF[ ]\011/* If */
NPUSHB[ ]\011/* 51 values pushed */
12 1 11 0 8 3 11 8 105 0 6 0 1 2 6 1 105 0 5 0 2 0 5 2 105 0 7 0 0 9 7 0 105 0 9 0 10 9 10 101 0 4 4 3 97 0 3 3 33 4 78 
ELSE[ ]\011/* Else */
MPPEM[ ]\011/* MeasurePixelPerEm */
PUSHB[ ]\011/* 1 value pushed */
49 
LT[ ]\011/* LessThan */
IF[ ]\011/* If */
NPUSHB[ ]\011/* 57 values pushed */
0 11 12 8 12 11 114 0 12 0 8 3 12 8 105 0 6 0 1 2 6 1 105 0 5 0 2 0 5 2 105 0 7 0 0 9 7 0 105 0 9 0 10 9 10 101 0 4 4 3 97 0 3 3 33 4 78 
ELSE[ ]\011/* Else */
NPUSHB[ ]\011/* 63 values pushed */
0 11 12 8 12 11 114 0 12 0 8 3 12 8 105 0 3 0 4 6 3 4 105 0 6 0 1 2 6 1 105 0 5 0 2 0 5 2 105 0 7 0 0 9 7 0 105 0 9 10 10 9 89 0 9 9 10 97 0 10 9 10 81 
EIF[ ]\011/* EndIf */
EIF[ ]\011/* EndIf */
EIF[ ]\011/* EndIf */
EIF[ ]\011/* EndIf */
NPUSHB[ ]\011/* 20 values pushed */
114 113 112 111 98 97 90 89 42 22 37 26 38 42 34 19 41 13 8 31 
CALL[ ]\011/* CallFunction */";
};
width = 721;
}
);
note = at;
unicode = 0040;
},
{
glyphname = A;
lastChange = "2019-10-02 10:41:12 +0000";
layers = (
{
layerId = "D6A4831D-747C-4592-93C0-305F4CD57904";
paths = (
{
closed = 1;
nodes = (
"571 602 OFFCURVE",
"551 643 QCURVE SMOOTH",
"537 671 OFFCURVE",
"486 702 OFFCURVE",
"456 702 QCURVE SMOOTH",
"432 702 OFFCURVE",
"409 691 QCURVE SMOOTH",
"301 645 OFFCURVE",
"238 523 QCURVE SMOOTH",
"216 477 OFFCURVE",
"102 245 QCURVE SMOOTH",
"33 105 LINE SMOOTH",
"27 93 OFFCURVE",
"27 82 QCURVE SMOOTH",
"27 66 OFFCURVE",
"42 49 QCURVE SMOOTH",
"52 37 OFFCURVE",
"81 22 OFFCURVE",
"96 22 QCURVE SMOOTH",
"127 22 OFFCURVE",
"146 56 QCURVE SMOOTH",
"176 107 OFFCURVE",
"192 137 QCURVE SMOOTH",
"209 170 OFFCURVE",
"246 178 QCURVE SMOOTH",
"281 185 OFFCURVE",
"322 197 QCURVE SMOOTH",
"370 211 LINE SMOOTH",
"388 216 OFFCURVE",
"435 232 OFFCURVE",
"466 241 QCURVE SMOOTH",
"475 244 OFFCURVE",
"482 244 QCURVE SMOOTH",
"501 244 OFFCURVE",
"507 217 QCURVE SMOOTH",
"524 152 OFFCURVE",
"532 113 QCURVE SMOOTH",
"534 98 OFFCURVE",
"534 80 QCURVE SMOOTH",
"534 69 OFFCURVE",
"534 63 QCURVE",
"533 59 OFFCURVE",
"533 51 QCURVE SMOOTH",
"533 27 OFFCURVE",
"559 -6 OFFCURVE",
"584 -12 QCURVE",
"593 -14 OFFCURVE",
"595 -14 QCURVE SMOOTH",
"612 -14 OFFCURVE",
"634 5 OFFCURVE",
"635 21 QCURVE SMOOTH",
"637 45 OFFCURVE",
"637 59 QCURVE SMOOTH",
"637 84 OFFCURVE",
"632 100 QCURVE SMOOTH",
"594 214 OFFCURVE",
"594 359 QCURVE",
"592 411 LINE SMOOTH",
"586 493 OFFCURVE",
"580 536 QCURVE SMOOTH"
);
},
{
closed = 1;
nodes = (
"274 322 LINE SMOOTH",
"293 367 OFFCURVE",
"300 380 QCURVE SMOOTH",
"343 459 OFFCURVE",
"390 533 QCURVE SMOOTH",
"417 579 OFFCURVE",
"470 585 QCURVE",
"481 529 OFFCURVE",
"488 418 OFFCURVE",
"490 322 QCURVE",
"394 307 OFFCURVE",
"257 283 QCURVE"
);
}
);
userData = {
assembly = "NPUSHB[ ]\011/* 18 values pushed */
71 64 61 2 4 1 3 18 16 2 2 1 8 1 0 2 3 76 
MPPEM[ ]\011/* MeasurePixelPerEm */
PUSHB[ ]\011/* 1 value pushed */
21 
LT[ ]\011/* LessThan */
IF[ ]\011/* If */
NPUSHB[ ]\011/* 24 values pushed */
0 1 3 2 3 1 2 128 0 3 3 36 77 0 2 2 34 77 0 0 0 31 0 78 
ELSE[ ]\011/* Else */
NPUSHB[ ]\011/* 21 values pushed */
0 3 1 3 133 0 1 2 1 133 0 2 2 34 77 0 0 0 31 0 78 
EIF[ ]\011/* EndIf */
PUSHB[ ]\011/* 7 values pushed */
44 45 30 26 4 8 26 
CALL[ ]\011/* CallFunction */";
};
width = 720;
}
);
note = A;
rightKerningGroup = A;
unicode = 0041;
},
{
glyphname = B;
layers = (
{
layerId = "D6A4831D-747C-4592-93C0-305F4CD57904";
paths = (
{
closed = 1;
nodes = (
"481 484 OFFCURVE",
"488 500 QCURVE",
"498 520 LINE",
"509 545 OFFCURVE",
"509 570 QCURVE SMOOTH",
"509 600 OFFCURVE",
"480 652 OFFCURVE",
"454 668 QCURVE SMOOTH",
"404 700 OFFCURVE",
"330 700 QCURVE SMOOTH",
"314 700 OFFCURVE",
"284 698 QCURVE SMOOTH",
"219 692 OFFCURVE",
"124 626 OFFCURVE",
"100 568 QCURVE SMOOTH",
"69 491 OFFCURVE",
"58 403 QCURVE SMOOTH",
"50 343 OFFCURVE",
"50 267 QCURVE SMOOTH",
"50 227 OFFCURVE",
"52 167 OFFCURVE",
"53 147 QCURVE SMOOTH",
"54 131 OFFCURVE",
"56 83 OFFCURVE",
"56 51 QCURVE SMOOTH",
"56 9 OFFCURVE",
"92 -24 QCURVE",
"105 -37 OFFCURVE",
"121 -37 QCURVE SMOOTH",
"139 -37 OFFCURVE",
"151 -19 QCURVE",
"154 -15 OFFCURVE",
"159 2 OFFCURVE",
"161 8 QCURVE",
"183 -8 OFFCURVE",
"199 -21 QCURVE SMOOTH",
"240 -55 OFFCURVE",
"288 -55 QCURVE SMOOTH",
"321 -55 OFFCURVE",
"355 -38 QCURVE SMOOTH",
"493 31 OFFCURVE",
"555 146 QCURVE SMOOTH",
"580 193 OFFCURVE",
"580 241 QCURVE SMOOTH",
"580 290 OFFCURVE",
"527 371 OFFCURVE",
"474 391 QCURVE SMOOTH",
"464 395 OFFCURVE",
"439 410 QCURVE",
"466 455 OFFCURVE",
"471 465 QCURVE SMOOTH"
);
},
{
closed = 1;
nodes = (
"343 431 OFFCURVE",
"246 379 QCURVE SMOOTH",
"227 368 OFFCURVE",
"191 342 QCURVE SMOOTH",
"168 326 LINE",
"177 305 OFFCURVE",
"203 279 OFFCURVE",
"222 268 QCURVE SMOOTH",
"238 259 OFFCURVE",
"253 259 QCURVE SMOOTH",
"277 259 OFFCURVE",
"301 280 QCURVE SMOOTH",
"348 324 OFFCURVE",
"393 337 QCURVE SMOOTH",
"406 341 OFFCURVE",
"421 341 QCURVE SMOOTH",
"446 341 OFFCURVE",
"475 313 OFFCURVE",
"475 286 QCURVE SMOOTH",
"475 274 OFFCURVE",
"472 259 QCURVE SMOOTH",
"464 221 OFFCURVE",
"433 173 QCURVE SMOOTH",
"392 114 OFFCURVE",
"307 40 OFFCURVE",
"247 28 QCURVE",
"242 34 OFFCURVE",
"224 57 OFFCURVE",
"215 62 QCURVE SMOOTH",
"205 68 OFFCURVE",
"186 70 QCURVE",
"172 72 OFFCURVE",
"166 74 QCURVE",
"162 107 LINE SMOOTH",
"152 191 OFFCURVE",
"151 218 QCURVE SMOOTH",
"149 252 OFFCURVE",
"147 267 QCURVE",
"143 317 OFFCURVE",
"143 343 QCURVE SMOOTH",
"143 391 OFFCURVE",
"155 430 QCURVE SMOOTH",
"171 480 OFFCURVE",
"204 548 OFFCURVE",
"261 605 OFFCURVE",
"304 619 QCURVE SMOOTH",
"324 626 OFFCURVE",
"347 626 QCURVE SMOOTH",
"374 626 OFFCURVE",
"404 613 QCURVE",
"401 591 LINE SMOOTH",
"397 561 OFFCURVE",
"392 548 QCURVE SMOOTH"
);
}
);
userData = {
assembly = "NPUSHB[ ]\011/* 16 values pushed */
53 1 2 4 3 98 1 5 4 77 16 2 1 5 3 76 
MPPEM[ ]\011/* MeasurePixelPerEm */
PUSHB[ ]\011/* 1 value pushed */
21 
LT[ ]\011/* LessThan */
IF[ ]\011/* If */
NPUSHB[ ]\011/* 36 values pushed */
0 4 3 5 3 4 5 128 0 5 1 3 5 1 126 0 0 1 0 134 0 3 3 2 97 0 2 2 36 77 0 1 1 31 1 78 
ELSE[ ]\011/* Else */
MPPEM[ ]\011/* MeasurePixelPerEm */
PUSHB[ ]\011/* 1 value pushed */
26 
LT[ ]\011/* LessThan */
IF[ ]\011/* If */
NPUSHB[ ]\011/* 34 values pushed */
0 4 3 5 3 4 5 128 0 5 1 3 5 1 126 0 0 1 0 134 0 2 0 3 4 2 3 105 0 1 1 31 1 78 
ELSE[ ]\011/* Else */
NPUSHB[ ]\011/* 42 values pushed */
0 4 3 5 3 4 5 128 0 5 1 3 5 1 126 0 1 0 3 1 0 126 0 0 0 132 0 2 3 3 2 89 0 2 2 3 97 0 3 2 3 81 
EIF[ ]\011/* EndIf */
EIF[ ]\011/* EndIf */
NPUSHB[ ]\011/* 13 values pushed */
94 92 88 86 56 54 41 38 39 43 6 8 24 
CALL[ ]\011/* CallFunction */";
};
width = 630;
}
);
note = B;
unicode = 0042;
},
{
glyphname = C;
lastChange = "2019-04-02 09:00:40 +0000";
layers = (
{
layerId = "D6A4831D-747C-4592-93C0-305F4CD57904";
paths = (
{
closed = 1;
nodes = (
"80 287 LINE SMOOTH",
"81 215 OFFCURVE",
"151 82 OFFCURVE",
"276 0 OFFCURVE",
"357 0 QCURVE SMOOTH",
"401 0 OFFCURVE",
"445 12 QCURVE SMOOTH",
"545 40 OFFCURVE",
"637 121 QCURVE SMOOTH",
"654 135 OFFCURVE",
"688 175 OFFCURVE",
"724 226 OFFCURVE",
"728 233 QCURVE SMOOTH",
"739 247 OFFCURVE",
"739 263 QCURVE SMOOTH",
"739 286 OFFCURVE",
"718 301 QCURVE SMOOTH",
"699 314 OFFCURVE",
"686 314 QCURVE SMOOTH",
"678 314 OFFCURVE",
"659 303 OFFCURVE",
"646 290 QCURVE SMOOTH",
"626 269 LINE SMOOTH",
"588 231 OFFCURVE",
"573 219 QCURVE SMOOTH",
"509 168 OFFCURVE",
"403 107 OFFCURVE",
"340 99 QCURVE SMOOTH",
"322 96 OFFCURVE",
"307 96 QCURVE SMOOTH",
"264 96 OFFCURVE",
"213 139 OFFCURVE",
"203 185 QCURVE SMOOTH",
"194 226 OFFCURVE",
"194 270 QCURVE SMOOTH",
"194 393 OFFCURVE",
"279 482 QCURVE SMOOTH",
"329 535 OFFCURVE",
"380 535 QCURVE SMOOTH",
"407 535 OFFCURVE",
"436 519 QCURVE",
"442 515 OFFCURVE",
"445 515 QCURVE",
"451 514 OFFCURVE",
"462 514 QCURVE SMOOTH",
"476 514 OFFCURVE",
"493 529 OFFCURVE",
"493 544 QCURVE SMOOTH",
"493 548 OFFCURVE",
"491 560 QCURVE",
"480 600 OFFCURVE",
"398 663 OFFCURVE",
"355 663 QCURVE SMOOTH",
"313 663 OFFCURVE",
"209 610 OFFCURVE",
"125 528 OFFCURVE",
"110 487 QCURVE SMOOTH",
"95 443 OFFCURVE",
"79 369 OFFCURVE",
"79 330 QCURVE SMOOTH",
"79 314 OFFCURVE",
"80 307 QCURVE"
);
}
);
userData = {
assembly = "PUSHB[ ]\011/* 6 values pushed */
61 1 3 4 1 76 
MPPEM[ ]\011/* MeasurePixelPerEm */
PUSHB[ ]\011/* 1 value pushed */
21 
LT[ ]\011/* LessThan */
IF[ ]\011/* If */
NPUSHB[ ]\011/* 36 values pushed */
0 1 2 4 2 1 4 128 0 4 3 2 4 3 126 0 2 2 0 97 0 0 0 36 77 0 3 3 5 97 0 5 5 40 5 78 
ELSE[ ]\011/* Else */
MPPEM[ ]\011/* MeasurePixelPerEm */
PUSHB[ ]\011/* 1 value pushed */
44 
LT[ ]\011/* LessThan */
IF[ ]\011/* If */
NPUSHB[ ]\011/* 34 values pushed */
0 1 2 4 2 1 4 128 0 4 3 2 4 3 126 0 0 0 2 1 0 2 105 0 3 3 5 97 0 5 5 40 5 78 
ELSE[ ]\011/* Else */
NPUSHB[ ]\011/* 39 values pushed */
0 1 2 4 2 1 4 128 0 4 3 2 4 3 126 0 0 0 2 1 0 2 105 0 3 5 5 3 89 0 3 3 5 97 0 5 3 5 81 
EIF[ ]\011/* EndIf */
EIF[ ]\011/* EndIf */
NPUSHB[ ]\011/* 9 values pushed */
44 41 39 36 38 39 6 8 28 
CALL[ ]\011/* CallFunction */";
};
width = 759;
}
);
note = C;
unicode = 0043;
},
{
glyphname = D;
lastChange = "2019-11-20 01:38:06 +0000";
layers = (
{
layerId = "D6A4831D-747C-4592-93C0-305F4CD57904";
paths = (
{
closed = 1;
nodes = (
"152 615 LINE",
"145 531 OFFCURVE",
"115 372 OFFCURVE",
"85 242 QCURVE SMOOTH",
"80 220 LINE SMOOTH",
"70 175 OFFCURVE",
"58 83 QCURVE SMOOTH",
"51 31 LINE",
"50 22 LINE",
"50 8 OFFCURVE",
"66 -13 OFFCURVE",
"81 -23 QCURVE",
"122 -48 OFFCURVE",
"166 -48 QCURVE SMOOTH",
"203 -48 OFFCURVE",
"237 -31 QCURVE SMOOTH",
"329 12 OFFCURVE",
"405 79 QCURVE SMOOTH",
"530 187 OFFCURVE",
"648 374 QCURVE SMOOTH",
"679 424 OFFCURVE",
"679 471 QCURVE SMOOTH",
"679 526 OFFCURVE",
"638 579 QCURVE SMOOTH",
"610 613 OFFCURVE",
"569 638 QCURVE SMOOTH",
"510 676 OFFCURVE",
"374 718 OFFCURVE",
"285 734 QCURVE SMOOTH",
"254 740 OFFCURVE",
"224 740 QCURVE SMOOTH",
"193 740 OFFCURVE",
"166 733 QCURVE SMOOTH",
"140 727 OFFCURVE",
"108 705 OFFCURVE",
"104 678 QCURVE",
"113 671 OFFCURVE",
"131 655 QCURVE SMOOTH",
"157 632 OFFCURVE",
"156 633 QCURVE"
);
},
{
closed = 1;
nodes = (
"403 628 OFFCURVE",
"503 583 QCURVE SMOOTH",
"530 570 OFFCURVE",
"561 520 OFFCURVE",
"561 489 QCURVE SMOOTH",
"561 471 OFFCURVE",
"557 458 QCURVE SMOOTH",
"542 404 OFFCURVE",
"483 306 OFFCURVE",
"440 251 QCURVE SMOOTH",
"334 120 OFFCURVE",
"184 47 QCURVE",
"171 42 LINE",
"170 42 OFFCURVE",
"161 46 QCURVE",
"161 52 OFFCURVE",
"162 79 OFFCURVE",
"165 90 QCURVE",
"183 174 OFFCURVE",
"207 272 QCURVE SMOOTH",
"243 416 LINE SMOOTH",
"265 501 OFFCURVE",
"278 559 QCURVE SMOOTH",
"280 569 OFFCURVE",
"280 573 QCURVE SMOOTH",
"280 590 OFFCURVE",
"258 620 OFFCURVE",
"234 640 QCURVE",
"256 643 LINE SMOOTH",
"276 646 OFFCURVE",
"288 645 QCURVE"
);
}
);
userData = {
assembly = "NPUSHB[ ]\011/* 24 values pushed */
45 42 39 30 3 5 1 0 1 76 0 0 1 0 133 0 1 1 118 47 39 2 8 24 
CALL[ ]\011/* CallFunction */";
};
width = 719;
}
);
leftKerningGroup = D;
note = D;
rightKerningGroup = D;
unicode = 0044;
},
{
glyphname = E;
lastChange = "2019-10-02 10:39:33 +0000";
layers = (
{
layerId = "D6A4831D-747C-4592-93C0-305F4CD57904";
paths = (
{
closed = 1;
nodes = (
"264 376 LINE",
"289 455 OFFCURVE",
"315 535 QCURVE SMOOTH",
"325 566 OFFCURVE",
"362 566 QCURVE SMOOTH",
"367 566 OFFCURVE",
"387 561 OFFCURVE",
"391 561 QCURVE",
"446 565 OFFCURVE",
"471 566 QCURVE SMOOTH",
"579 570 OFFCURVE",
"633 579 QCURVE SMOOTH",
"668 585 OFFCURVE",
"736 600 QCURVE",
"742 602 OFFCURVE",
"756 613 OFFCURVE",
"756 617 QCURVE SMOOTH",
"756 625 OFFCURVE",
"749 642 OFFCURVE",
"743 645 QCURVE SMOOTH",
"709 662 OFFCURVE",
"687 664 QCURVE SMOOTH",
"645 666 OFFCURVE",
"560 666 QCURVE SMOOTH",
"476 666 LINE",
"433 666 LINE SMOOTH",
"395 666 OFFCURVE",
"340 682 OFFCURVE",
"316 706 QCURVE SMOOTH",
"312 710 OFFCURVE",
"299 715 OFFCURVE",
"293 715 QCURVE",
"273 717 OFFCURVE",
"263 717 QCURVE SMOOTH",
"248 717 OFFCURVE",
"227 705 OFFCURVE",
"220 688 QCURVE",
"218 681 OFFCURVE",
"192 670 OFFCURVE",
"188 668 QCURVE",
"181 665 OFFCURVE",
"165 661 QCURVE",
"143 654 LINE",
"147 646 OFFCURVE",
"156 619 OFFCURVE",
"163 614 QCURVE",
"182 599 OFFCURVE",
"182 579 QCURVE SMOOTH",
"182 566 OFFCURVE",
"173 546 QCURVE",
"170 540 OFFCURVE",
"165 519 OFFCURVE",
"163 512 QCURVE",
"112 365 LINE",
"-1 358 LINE",
"3 330 OFFCURVE",
"32 302 OFFCURVE",
"59 287 QCURVE",
"92 271 OFFCURVE",
"92 237 QCURVE SMOOTH",
"92 233 OFFCURVE",
"92 194 OFFCURVE",
"97 177 QCURVE SMOOTH",
"133 54 OFFCURVE",
"262 4 QCURVE SMOOTH",
"335 -25 OFFCURVE",
"426 -25 QCURVE SMOOTH",
"468 -25 OFFCURVE",
"501 -21 QCURVE SMOOTH",
"533 -17 OFFCURVE",
"573 0 OFFCURVE",
"584 24 QCURVE",
"569 53 OFFCURVE",
"536 76 OFFCURVE",
"511 76 QCURVE",
"496 75 LINE SMOOTH",
"404 69 OFFCURVE",
"345 67 QCURVE SMOOTH",
"287 65 OFFCURVE",
"220 132 OFFCURVE",
"220 180 QCURVE SMOOTH",
"220 213 OFFCURVE",
"236 248 QCURVE",
"306 258 LINE SMOOTH",
"386 269 OFFCURVE",
"426 275 QCURVE SMOOTH",
"471 282 OFFCURVE",
"511 317 QCURVE",
"524 330 OFFCURVE",
"524 342 QCURVE SMOOTH",
"524 352 OFFCURVE",
"515 366 QCURVE SMOOTH",
"498 392 OFFCURVE",
"469 392 QCURVE SMOOTH",
"455 392 OFFCURVE",
"434 384 QCURVE SMOOTH",
"359 354 OFFCURVE",
"290 354 QCURVE SMOOTH",
"274 354 OFFCURVE",
"266 355 QCURVE",
"265 359 OFFCURVE",
"263 368 OFFCURVE",
"263 372 QCURVE"
);
}
);
userData = {
assembly = "NPUSHB[ ]\011/* 14 values pushed */
59 1 8 7 94 1 1 8 30 1 4 2 3 76 
MPPEM[ ]\011/* MeasurePixelPerEm */
PUSHB[ ]\011/* 1 value pushed */
21 
LT[ ]\011/* LessThan */
IF[ ]\011/* If */
NPUSHB[ ]\011/* 42 values pushed */
5 1 0 1 2 1 0 2 128 0 6 6 36 77 9 1 8 8 7 95 0 7 7 30 77 0 1 1 33 77 3 1 2 2 4 98 0 4 4 31 4 78 
ELSE[ ]\011/* Else */
MPPEM[ ]\011/* MeasurePixelPerEm */
PUSHB[ ]\011/* 1 value pushed */
29 
LT[ ]\011/* LessThan */
IF[ ]\011/* If */
NPUSHB[ ]\011/* 40 values pushed */
0 6 7 6 133 5 1 0 1 2 1 0 2 128 0 7 9 1 8 1 7 8 105 0 1 1 33 77 3 1 2 2 4 98 0 4 4 31 4 78 
ELSE[ ]\011/* Else */
MPPEM[ ]\011/* MeasurePixelPerEm */
PUSHB[ ]\011/* 1 value pushed */
34 
LT[ ]\011/* LessThan */
IF[ ]\011/* If */
NPUSHB[ ]\011/* 46 values pushed */
0 6 7 6 133 5 1 0 1 3 1 0 3 128 0 3 2 1 3 2 126 0 7 9 1 8 1 7 8 105 0 1 1 33 77 0 2 2 4 98 0 4 4 31 4 78 
ELSE[ ]\011/* Else */
NPUSHB[ ]\011/* 52 values pushed */
0 6 7 6 133 0 5 1 0 1 5 0 128 0 0 3 1 0 3 126 0 3 2 1 3 2 126 0 7 9 1 8 1 7 8 105 0 1 1 33 77 0 2 2 4 98 0 4 4 31 4 78 
EIF[ ]\011/* EndIf */
EIF[ ]\011/* EndIf */
EIF[ ]\011/* EndIf */
NPUSHB[ ]\011/* 17 values pushed */
98 96 93 92 81 75 69 67 27 38 33 46 34 35 10 8 28 
CALL[ ]\011/* CallFunction */";
};
width = 782;
}
);
note = E;
unicode = 0045;
},
{
glyphname = F;
lastChange = "2019-03-19 07:52:09 +0000";
layers = (
{
layerId = "D6A4831D-747C-4592-93C0-305F4CD57904";
paths = (
{
closed = 1;
nodes = (
"280 490 LINE",
"305 522 OFFCURVE",
"339 547 QCURVE",
"403 597 OFFCURVE",
"477 637 OFFCURVE",
"507 628 QCURVE SMOOTH",
"529 628 OFFCURVE",
"546 616 QCURVE",
"550 614 OFFCURVE",
"565 610 OFFCURVE",
"570 608 QCURVE",
"579 605 OFFCURVE",
"587 605 QCURVE SMOOTH",
"610 605 OFFCURVE",
"623 626 QCURVE",
"628 636 OFFCURVE",
"628 642 QCURVE SMOOTH",
"628 656 OFFCURVE",
"609 675 QCURVE SMOOTH",
"562 725 OFFCURVE",
"496 725 QCURVE SMOOTH",
"474 725 OFFCURVE",
"457 721 QCURVE",
"372 705 OFFCURVE",
"287 646 QCURVE SMOOTH",
"201 587 OFFCURVE",
"96 445 OFFCURVE",
"83 352 QCURVE SMOOTH",
"75 293 OFFCURVE",
"65 204 OFFCURVE",
"62 175 QCURVE SMOOTH",
"59 141 OFFCURVE",
"51 71 QCURVE",
"50 66 OFFCURVE",
"50 57 QCURVE SMOOTH",
"50 32 OFFCURVE",
"75 -5 OFFCURVE",
"100 -20 QCURVE SMOOTH",
"122 -33 OFFCURVE",
"139 -33 QCURVE SMOOTH",
"170 -33 OFFCURVE",
"176 17 QCURVE SMOOTH",
"178 31 OFFCURVE",
"178 58 QCURVE SMOOTH",
"178 98 LINE SMOOTH",
"178 130 OFFCURVE",
"183 152 OFFCURVE",
"204 161 OFFCURVE",
"236 168 QCURVE SMOOTH",
"241 169 OFFCURVE",
"250 174 OFFCURVE",
"255 175 QCURVE",
"449 228 LINE",
"542 248 LINE",
"561 254 OFFCURVE",
"579 264 OFFCURVE",
"579 276 QCURVE SMOOTH",
"579 294 OFFCURVE",
"550 319 QCURVE SMOOTH",
"543 325 OFFCURVE",
"526 325 QCURVE",
"514 324 OFFCURVE",
"490 324 QCURVE SMOOTH",
"483 324 OFFCURVE",
"439 322 OFFCURVE",
"420 319 QCURVE SMOOTH",
"377 312 OFFCURVE",
"345 305 OFFCURVE",
"324 300 QCURVE SMOOTH",
"267 288 LINE",
"260 287 OFFCURVE",
"214 286 OFFCURVE",
"204 286 QCURVE",
"210 329 OFFCURVE",
"227 391 OFFCURVE",
"256 445 QCURVE SMOOTH"
);
}
);
userData = {
assembly = "PUSHB[ ]\011/* 6 values pushed */
58 1 6 4 1 76 
MPPEM[ ]\011/* MeasurePixelPerEm */
PUSHB[ ]\011/* 1 value pushed */
21 
LT[ ]\011/* LessThan */
IF[ ]\011/* If */
NPUSHB[ ]\011/* 39 values pushed */
0 5 6 1 6 5 1 128 2 1 1 0 6 1 0 126 0 0 3 6 0 3 126 0 6 6 4 97 0 4 4 36 77 0 3 3 31 3 78 
ELSE[ ]\011/* Else */
MPPEM[ ]\011/* MeasurePixelPerEm */
PUSHB[ ]\011/* 1 value pushed */
34 
LT[ ]\011/* LessThan */
IF[ ]\011/* If */
NPUSHB[ ]\011/* 37 values pushed */
0 5 6 1 6 5 1 128 2 1 1 0 6 1 0 126 0 0 3 6 0 3 126 0 4 0 6 5 4 6 105 0 3 3 31 3 78 
ELSE[ ]\011/* Else */
NPUSHB[ ]\011/* 43 values pushed */
0 5 6 1 6 5 1 128 2 1 1 0 6 1 0 126 0 0 3 6 0 3 126 0 3 3 132 0 4 6 6 4 89 0 4 4 6 97 0 6 4 6 81 
EIF[ ]\011/* EndIf */
EIF[ ]\011/* EndIf */
NPUSHB[ ]\011/* 14 values pushed */
70 68 62 61 55 53 36 34 17 54 34 7 8 25 
CALL[ ]\011/* CallFunction */";
};
width = 600;
}
);
note = F;
unicode = 0046;
},
{
glyphname = G;
layers = (
{
layerId = "D6A4831D-747C-4592-93C0-305F4CD57904";
paths = (
{
closed = 1;
nodes = (
"468 676 OFFCURVE",
"427 676 QCURVE SMOOTH",
"330 676 OFFCURVE",
"156 607 OFFCURVE",
"117 522 QCURVE",
"78 417 OFFCURVE",
"50 318 OFFCURVE",
"50 261 QCURVE SMOOTH",
"50 249 OFFCURVE",
"52 219 QCURVE SMOOTH",
"55 175 OFFCURVE",
"92 106 OFFCURVE",
"127 76 QCURVE SMOOTH",
"198 17 OFFCURVE",
"285 17 QCURVE SMOOTH",
"304 17 OFFCURVE",
"313 18 QCURVE SMOOTH",
"351 21 OFFCURVE",
"419 51 OFFCURVE",
"464 78 QCURVE SMOOTH",
"521 111 OFFCURVE",
"601 183 OFFCURVE",
"624 232 QCURVE",
"635 252 OFFCURVE",
"640 267 QCURVE SMOOTH",
"650 294 OFFCURVE",
"650 319 QCURVE SMOOTH",
"650 387 OFFCURVE",
"560 402 QCURVE SMOOTH",
"495 413 OFFCURVE",
"446 410 QCURVE SMOOTH",
"386 407 OFFCURVE",
"271 393 QCURVE SMOOTH",
"236 389 LINE",
"233 389 OFFCURVE",
"225 381 OFFCURVE",
"222 379 QCURVE",
"235 334 OFFCURVE",
"282 295 OFFCURVE",
"323 295 QCURVE",
"361 297 OFFCURVE",
"380 299 QCURVE",
"409 301 LINE SMOOTH",
"475 305 OFFCURVE",
"509 308 QCURVE",
"511 298 OFFCURVE",
"511 293 QCURVE SMOOTH",
"511 280 OFFCURVE",
"500 263 OFFCURVE",
"489 253 QCURVE",
"463 232 LINE",
"457 228 OFFCURVE",
"397 179 OFFCURVE",
"367 160 QCURVE",
"314 129 OFFCURVE",
"261 120 QCURVE",
"252 118 OFFCURVE",
"236 118 QCURVE SMOOTH",
"173 118 OFFCURVE",
"161 194 QCURVE SMOOTH",
"152 253 OFFCURVE",
"152 291 QCURVE SMOOTH",
"152 365 OFFCURVE",
"179 420 QCURVE",
"188 495 OFFCURVE",
"325 563 OFFCURVE",
"448 575 OFFCURVE",
"535 576 QCURVE",
"556 577 OFFCURVE",
"585 594 OFFCURVE",
"598 613 QCURVE",
"561 663 OFFCURVE",
"506 670 QCURVE SMOOTH"
);
}
);
userData = {
assembly = "MPPEM[ ]\011/* MeasurePixelPerEm */
PUSHB[ ]\011/* 1 value pushed */
39 
LT[ ]\011/* LessThan */
IF[ ]\011/* If */
NPUSHB[ ]\011/* 15 values pushed */
1 1 0 6 35 27 2 2 4 25 1 1 2 3 76 
ELSE[ ]\011/* Else */
NPUSHB[ ]\011/* 15 values pushed */
1 1 0 6 35 27 2 2 4 25 1 1 3 3 76 
EIF[ ]\011/* EndIf */
MPPEM[ ]\011/* MeasurePixelPerEm */
PUSHB[ ]\011/* 1 value pushed */
21 
LT[ ]\011/* LessThan */
IF[ ]\011/* If */
NPUSHB[ ]\011/* 32 values pushed */
0 0 0 6 97 0 6 6 30 77 3 1 2 2 4 97 0 4 4 33 77 0 1 1 5 97 0 5 5 34 5 78 
ELSE[ ]\011/* Else */
MPPEM[ ]\011/* MeasurePixelPerEm */
PUSHB[ ]\011/* 1 value pushed */
39 
LT[ ]\011/* LessThan */
IF[ ]\011/* If */
NPUSHB[ ]\011/* 30 values pushed */
0 6 0 0 4 6 0 105 3 1 2 2 4 97 0 4 4 33 77 0 1 1 5 97 0 5 5 34 5 78 
ELSE[ ]\011/* Else */
MPPEM[ ]\011/* MeasurePixelPerEm */
PUSHB[ ]\011/* 1 value pushed */
49 
LT[ ]\011/* LessThan */
IF[ ]\011/* If */
NPUSHB[ ]\011/* 37 values pushed */
0 3 2 1 2 3 1 128 0 6 0 0 4 6 0 105 0 2 2 4 97 0 4 4 33 77 0 1 1 5 97 0 5 5 34 5 78 
ELSE[ ]\011/* Else */
NPUSHB[ ]\011/* 35 values pushed */
0 3 2 1 2 3 1 128 0 6 0 0 4 6 0 105 0 4 0 2 3 4 2 105 0 1 1 5 97 0 5 5 34 5 78 
EIF[ ]\011/* EndIf */
EIF[ ]\011/* EndIf */
EIF[ ]\011/* EndIf */
NPUSHB[ ]\011/* 10 values pushed */
43 46 39 33 45 40 35 7 8 29 
CALL[ ]\011/* CallFunction */";
};
width = 700;
}
);
note = G;
unicode = 0047;
},
{
glyphname = H;
lastChange = "2019-06-23 23:20:31 +0000";
layers = (
{
layerId = "D6A4831D-747C-4592-93C0-305F4CD57904";
paths = (
{
closed = 1;
nodes = (
"445 323 LINE",
"427 224 OFFCURVE",
"416 160 QCURVE SMOOTH",
"414 149 OFFCURVE",
"414 128 QCURVE SMOOTH",
"414 79 OFFCURVE",
"438 26 QCURVE",
"445 -12 OFFCURVE",
"478 -9 QCURVE",
"491 -9 OFFCURVE",
"503 6 OFFCURVE",
"504 31 OFFCURVE",
"504 35 QCURVE",
"508 86 OFFCURVE",
"529 180 OFFCURVE",
"553 258 QCURVE SMOOTH",
"565 297 LINE SMOOTH",
"575 330 OFFCURVE",
"589 348 OFFCURVE",
"611 348 QCURVE SMOOTH",
"627 348 OFFCURVE",
"637 347 QCURVE SMOOTH",
"664 344 OFFCURVE",
"704 356 OFFCURVE",
"716 375 QCURVE",
"712 406 OFFCURVE",
"678 430 OFFCURVE",
"647 439 QCURVE",
"643 440 OFFCURVE",
"621 447 OFFCURVE",
"613 452 QCURVE",
"630 497 OFFCURVE",
"630 526 QCURVE SMOOTH",
"630 556 OFFCURVE",
"599 603 OFFCURVE",
"578 622 QCURVE SMOOTH",
"556 642 OFFCURVE",
"527 604 QCURVE",
"519 570 LINE",
"485 465 LINE",
"358 476 LINE",
"305 480 LINE",
"315 533 LINE",
"321 555 LINE",
"330 595 LINE",
"332 607 OFFCURVE",
"332 613 QCURVE SMOOTH",
"332 653 OFFCURVE",
"295 703 OFFCURVE",
"251 702 QCURVE",
"242 683 OFFCURVE",
"240 676 QCURVE SMOOTH",
"229 640 LINE SMOOTH",
"206 564 OFFCURVE",
"187 498 QCURVE SMOOTH",
"180 473 OFFCURVE",
"161 445 OFFCURVE",
"140 440 QCURVE",
"134 439 OFFCURVE",
"119 429 OFFCURVE",
"115 427 QCURVE",
"71 403 OFFCURVE",
"71 375 QCURVE SMOOTH",
"71 351 OFFCURVE",
"105 322 QCURVE SMOOTH",
"128 302 OFFCURVE",
"128 280 QCURVE SMOOTH",
"128 272 OFFCURVE",
"125 263 QCURVE",
"122 255 OFFCURVE",
"118 232 OFFCURVE",
"116 226 QCURVE",
"115 211 OFFCURVE",
"110 196 QCURVE",
"107 184 OFFCURVE",
"107 175 QCURVE SMOOTH",
"107 154 OFFCURVE",
"126 121 OFFCURVE",
"146 94 QCURVE",
"155 83 OFFCURVE",
"150 83 QCURVE SMOOTH",
"160 83 OFFCURVE",
"179 92 OFFCURVE",
"185 99 QCURVE",
"195 112 OFFCURVE",
"200 130 QCURVE SMOOTH",
"211 166 LINE SMOOTH",
"221 257 OFFCURVE",
"248 299 QCURVE SMOOTH",
"280 349 OFFCURVE",
"302 353 QCURVE",
"342 359 OFFCURVE",
"416 364 QCURVE",
"427 364 OFFCURVE",
"451 366 QCURVE"
);
}
);
userData = {
assembly = "NPUSHB[ ]\011/* 19 values pushed */
96 71 65 54 52 47 6 0 3 22 1 1 4 83 1 5 1 3 76 
MPPEM[ ]\011/* MeasurePixelPerEm */
PUSHB[ ]\011/* 1 value pushed */
21 
LT[ ]\011/* LessThan */
IF[ ]\011/* If */
NPUSHB[ ]\011/* 38 values pushed */
0 0 3 4 3 0 4 128 0 4 1 3 4 1 126 0 1 5 3 1 5 126 0 2 2 36 77 0 3 3 32 77 0 5 5 31 5 78 
ELSE[ ]\011/* Else */
NPUSHB[ ]\011/* 38 values pushed */
0 2 3 2 133 0 0 3 4 3 0 4 128 0 4 1 3 4 1 126 0 1 5 3 1 5 126 0 3 3 32 77 0 5 5 31 5 78 
EIF[ ]\011/* EndIf */
NPUSHB[ ]\011/* 13 values pushed */
87 86 77 75 59 57 45 44 42 32 6 8 24 
CALL[ ]\011/* CallFunction */";
};
width = 740;
}
);
note = H;
unicode = 0048;
},
{
glyphname = I;
lastChange = "2019-10-02 10:49:46 +0000";
layers = (
{
layerId = "D6A4831D-747C-4592-93C0-305F4CD57904";
paths = (
{
closed = 1;
nodes = (
"195 36 OFFCURVE",
"238 52 QCURVE SMOOTH",
"303 76 OFFCURVE",
"393 101 OFFCURVE",
"440 107 QCURVE SMOOTH",
"462 109 OFFCURVE",
"522 128 QCURVE SMOOTH",
"541 134 LINE SMOOTH",
"544 135 OFFCURVE",
"569 141 OFFCURVE",
"594 153 OFFCURVE",
"604 166 QCURVE",
"595 194 OFFCURVE",
"551 212 OFFCURVE",
"518 212 QCURVE SMOOTH",
"491 213 OFFCURVE",
"437 206 QCURVE SMOOTH",
"413 203 OFFCURVE",
"345 194 QCURVE",
"357 253 LINE SMOOTH",
"374 334 OFFCURVE",
"383 382 QCURVE SMOOTH",
"393 437 OFFCURVE",
"406 531 QCURVE SMOOTH",
"411 567 LINE",
"482 559 LINE",
"504 558 LINE SMOOTH",
"530 557 OFFCURVE",
"543 556 QCURVE SMOOTH",
"560 555 OFFCURVE",
"568 557 QCURVE",
"575 557 OFFCURVE",
"592 573 OFFCURVE",
"597 577 QCURVE",
"593 582 OFFCURVE",
"580 599 OFFCURVE",
"574 604 QCURVE",
"571 607 OFFCURVE",
"558 609 OFFCURVE",
"556 609 QCURVE",
"493 627 LINE SMOOTH",
"472 633 OFFCURVE",
"409 650 OFFCURVE",
"367 663 QCURVE SMOOTH",
"322 677 OFFCURVE",
"276 676 QCURVE SMOOTH",
"175 675 OFFCURVE",
"86 609 QCURVE SMOOTH",
"63 592 OFFCURVE",
"52 576 QCURVE SMOOTH",
"44 565 OFFCURVE",
"44 553 QCURVE SMOOTH",
"44 544 OFFCURVE",
"55 528 OFFCURVE",
"64 524 QCURVE",
"67 523 OFFCURVE",
"100 508 OFFCURVE",
"115 508 QCURVE SMOOTH",
"129 508 OFFCURVE",
"142 515 QCURVE SMOOTH",
"179 535 OFFCURVE",
"208 547 QCURVE",
"232 559 LINE",
"237 555 OFFCURVE",
"255 540 OFFCURVE",
"262 537 QCURVE",
"283 529 OFFCURVE",
"283 508 QCURVE SMOOTH",
"283 502 OFFCURVE",
"282 499 QCURVE",
"278 468 LINE SMOOTH",
"265 367 OFFCURVE",
"244 248 OFFCURVE",
"226 187 QCURVE",
"220 163 OFFCURVE",
"195 155 QCURVE SMOOTH",
"137 137 OFFCURVE",
"82 115 QCURVE SMOOTH",
"77 113 OFFCURVE",
"49 101 OFFCURVE",
"21 80 OFFCURVE",
"15 58 QCURVE",
"59 16 OFFCURVE",
"107 16 QCURVE SMOOTH",
"125 16 OFFCURVE",
"146 22 QCURVE SMOOTH"
);
}
);
userData = {
assembly = "NPUSHB[ ]\011/* 18 values pushed */
51 22 2 3 2 73 66 3 3 0 5 2 76 17 1 1 1 75 
MPPEM[ ]\011/* MeasurePixelPerEm */
PUSHB[ ]\011/* 1 value pushed */
21 
LT[ ]\011/* LessThan */
IF[ ]\011/* If */
NPUSHB[ ]\011/* 34 values pushed */
4 1 3 2 1 2 3 1 128 0 1 5 2 1 5 126 0 5 0 2 5 0 126 0 2 2 30 77 0 0 0 34 0 78 
ELSE[ ]\011/* Else */
NPUSHB[ ]\011/* 27 values pushed */
0 2 3 2 133 4 1 3 1 3 133 0 1 5 1 133 0 5 0 5 133 0 0 0 34 0 78 
EIF[ ]\011/* EndIf */
NPUSHB[ ]\011/* 14 values pushed */
71 69 59 58 57 53 40 38 28 26 32 6 8 23 
CALL[ ]\011/* CallFunction */";
};
width = 630;
}
);
leftKerningGroup = I;
note = I;
rightKerningGroup = I;
unicode = 0049;
},
{
glyphname = J;
layers = (
{
layerId = "D6A4831D-747C-4592-93C0-305F4CD57904";
paths = (
{
closed = 1;
nodes = (
"151 9 OFFCURVE",
"215 9 QCURVE SMOOTH",
"261 9 OFFCURVE",
"313 20 QCURVE SMOOTH",
"380 33 OFFCURVE",
"467 113 OFFCURVE",
"493 178 QCURVE SMOOTH",
"516 237 OFFCURVE",
"530 360 OFFCURVE",
"532 449 QCURVE SMOOTH",
"533 477 LINE",
"533 512 LINE SMOOTH",
"533 569 OFFCURVE",
"532 597 QCURVE",
"532 654 LINE",
"499 683 OFFCURVE",
"458 683 QCURVE SMOOTH",
"438 683 OFFCURVE",
"408 676 QCURVE",
"398 673 OFFCURVE",
"377 671 QCURVE SMOOTH",
"354 669 OFFCURVE",
"338 664 QCURVE",
"271 639 OFFCURVE",
"196 603 QCURVE SMOOTH",
"186 598 OFFCURVE",
"172 580 OFFCURVE",
"172 570 QCURVE SMOOTH",
"172 563 OFFCURVE",
"175 557 QCURVE",
"179 548 OFFCURVE",
"202 533 OFFCURVE",
"213 530 QCURVE SMOOTH",
"226 526 OFFCURVE",
"242 526 QCURVE SMOOTH",
"268 526 OFFCURVE",
"291 539 QCURVE SMOOTH",
"325 559 OFFCURVE",
"368 577 OFFCURVE",
"396 578 QCURVE",
"408 491 OFFCURVE",
"408 426 QCURVE SMOOTH",
"408 284 OFFCURVE",
"351 178 QCURVE SMOOTH",
"329 137 OFFCURVE",
"240 89 OFFCURVE",
"189 89 QCURVE SMOOTH",
"157 89 OFFCURVE",
"128 99 QCURVE",
"123 101 OFFCURVE",
"92 111 OFFCURVE",
"79 111 QCURVE SMOOTH",
"52 111 OFFCURVE",
"33 87 QCURVE",
"56 52 OFFCURVE",
"95 34 QCURVE SMOOTH"
);
}
);
userData = {
assembly = "NPUSHB[ ]\011/* 10 values pushed */
40 1 2 4 1 1 5 1 2 76 
MPPEM[ ]\011/* MeasurePixelPerEm */
PUSHB[ ]\011/* 1 value pushed */
21 
LT[ ]\011/* LessThan */
IF[ ]\011/* If */
NPUSHB[ ]\011/* 38 values pushed */
0 2 4 3 4 2 3 128 0 3 0 4 3 0 126 0 0 1 4 0 1 126 0 4 4 30 77 0 1 1 5 97 0 5 5 40 5 78 
ELSE[ ]\011/* Else */
NPUSHB[ ]\011/* 31 values pushed */
0 4 2 4 133 0 2 3 2 133 0 3 0 3 133 0 0 1 0 133 0 1 1 5 97 0 5 5 40 5 78 
EIF[ ]\011/* EndIf */
NPUSHB[ ]\011/* 11 values pushed */
54 52 39 37 35 22 35 34 6 8 26 
CALL[ ]\011/* CallFunction */";
};
width = 584;
}
);
note = J;
unicode = 004A;
},
{
glyphname = K;
layers = (
{
layerId = "D6A4831D-747C-4592-93C0-305F4CD57904";
paths = (
{
closed = 1;
nodes = (
"221 487 OFFCURVE",
"225 499 QCURVE SMOOTH",
"241 543 OFFCURVE",
"248 565 QCURVE SMOOTH",
"282 662 LINE SMOOTH",
"288 679 OFFCURVE",
"288 688 QCURVE SMOOTH",
"288 697 OFFCURVE",
"277 709 OFFCURVE",
"262 716 QCURVE SMOOTH",
"231 731 OFFCURVE",
"216 731 QCURVE SMOOTH",
"206 731 OFFCURVE",
"191 719 OFFCURVE",
"184 706 QCURVE SMOOTH",
"180 698 OFFCURVE",
"138 617 OFFCURVE",
"126 580 QCURVE SMOOTH",
"100 495 OFFCURVE",
"80 394 QCURVE SMOOTH",
"65 323 OFFCURVE",
"50 228 OFFCURVE",
"50 181 QCURVE SMOOTH",
"50 150 OFFCURVE",
"55 108 QCURVE",
"59 57 LINE",
"60 22 OFFCURVE",
"69 -8 OFFCURVE",
"96 -26 OFFCURVE",
"132 -39 QCURVE",
"148 -29 OFFCURVE",
"157 2 OFFCURVE",
"157 25 QCURVE",
"156 124 LINE",
"156 157 OFFCURVE",
"157 173 QCURVE SMOOTH",
"158 187 OFFCURVE",
"168 216 OFFCURVE",
"177 224 QCURVE",
"205 251 OFFCURVE",
"260 295 QCURVE SMOOTH",
"289 319 LINE",
"313 285 OFFCURVE",
"315 281 QCURVE",
"345 241 OFFCURVE",
"365 209 QCURVE SMOOTH",
"404 145 OFFCURVE",
"512 38 OFFCURVE",
"581 -13 QCURVE",
"592 -22 OFFCURVE",
"604 -22 QCURVE SMOOTH",
"617 -22 OFFCURVE",
"634 -8 QCURVE",
"617 11 LINE SMOOTH",
"559 72 OFFCURVE",
"464 208 OFFCURVE",
"398 314 QCURVE SMOOTH",
"380 342 LINE SMOOTH",
"363 370 OFFCURVE",
"363 382 QCURVE SMOOTH",
"363 391 OFFCURVE",
"376 408 OFFCURVE",
"390 420 QCURVE SMOOTH",
"413 441 OFFCURVE",
"461 479 QCURVE SMOOTH",
"489 502 LINE",
"599 595 LINE",
"615 611 OFFCURVE",
"615 624 QCURVE SMOOTH",
"615 633 OFFCURVE",
"609 642 QCURVE SMOOTH",
"602 653 OFFCURVE",
"569 666 OFFCURVE",
"551 666 QCURVE SMOOTH",
"529 666 OFFCURVE",
"518 658 QCURVE SMOOTH",
"299 503 LINE SMOOTH",
"257 473 OFFCURVE",
"220 445 QCURVE",
"218 446 OFFCURVE",
"214 448 OFFCURVE",
"212 450 QCURVE"
);
}
);
userData = {
assembly = "NPUSHB[ ]\011/* 12 values pushed */
55 45 39 3 1 0 1 76 51 1 1 73 
MPPEM[ ]\011/* MeasurePixelPerEm */
PUSHB[ ]\011/* 1 value pushed */
21 
LT[ ]\011/* LessThan */
IF[ ]\011/* If */
NPUSHB[ ]\011/* 16 values pushed */
0 2 0 2 133 0 0 0 30 77 0 1 1 31 1 78 
ELSE[ ]\011/* Else */
NPUSHB[ ]\011/* 16 values pushed */
0 2 0 2 133 0 0 1 0 133 0 1 1 31 1 78 
EIF[ ]\011/* EndIf */
PUSHB[ ]\011/* 8 values pushed */
70 68 31 29 38 3 8 23 
CALL[ ]\011/* CallFunction */";
};
width = 684;
}
);
note = K;
unicode = 004B;
},
{
glyphname = L;
lastChange = "2019-06-23 23:31:00 +0000";
layers = (
{
layerId = "D6A4831D-747C-4592-93C0-305F4CD57904";
paths = (
{
closed = 1;
nodes = (
"225 51 OFFCURVE",
"216 51 QCURVE SMOOTH",
"173 51 OFFCURVE",
"173 100 QCURVE SMOOTH",
"173 126 OFFCURVE",
"179 150 QCURVE SMOOTH",
"223 341 OFFCURVE",
"304 547 QCURVE SMOOTH",
"326 601 OFFCURVE",
"334 633 QCURVE SMOOTH",
"338 648 OFFCURVE",
"338 662 QCURVE SMOOTH",
"338 717 OFFCURVE",
"276 722 QCURVE",
"271 722 OFFCURVE",
"262 724 OFFCURVE",
"257 724 QCURVE",
"233 726 OFFCURVE",
"208 708 OFFCURVE",
"201 685 QCURVE SMOOTH",
"175 599 OFFCURVE",
"163 556 QCURVE SMOOTH",
"108 374 OFFCURVE",
"87 298 QCURVE SMOOTH",
"67 229 OFFCURVE",
"51 130 QCURVE",
"50 125 OFFCURVE",
"50 114 QCURVE SMOOTH",
"50 89 OFFCURVE",
"75 46 OFFCURVE",
"98 25 QCURVE SMOOTH",
"159 -32 OFFCURVE",
"255 -32 QCURVE SMOOTH",
"282 -32 OFFCURVE",
"335 -21 OFFCURVE",
"369 -11 QCURVE SMOOTH",
"396 -4 LINE SMOOTH",
"400 -3 OFFCURVE",
"407 7 OFFCURVE",
"410 9 QCURVE",
"434 27 OFFCURVE",
"450 43 OFFCURVE",
"450 51 QCURVE SMOOTH",
"450 58 OFFCURVE",
"432 78 OFFCURVE",
"419 91 QCURVE",
"342 75 LINE SMOOTH",
"257 57 OFFCURVE",
"230 52 QCURVE SMOOTH"
);
}
);
userData = {
assembly = "PUSHB[ ]\011/* 4 values pushed */
2 1 1 74 
MPPEM[ ]\011/* MeasurePixelPerEm */
PUSHB[ ]\011/* 1 value pushed */
36 
LT[ ]\011/* LessThan */
IF[ ]\011/* If */
NPUSHB[ ]\011/* 11 values pushed */
0 1 1 0 97 0 0 0 31 0 78 
ELSE[ ]\011/* Else */
NPUSHB[ ]\011/* 16 values pushed */
0 1 0 0 1 89 0 1 1 0 97 0 0 1 0 81 
EIF[ ]\011/* EndIf */
PUSHB[ ]\011/* 6 values pushed */
47 45 46 2 8 23 
CALL[ ]\011/* CallFunction */";
};
width = 490;
}
);
note = L;
unicode = 004C;
},
{
glyphname = M;
layers = (
{
layerId = "D6A4831D-747C-4592-93C0-305F4CD57904";
paths = (
{
closed = 1;
nodes = (
"335 627 OFFCURVE",
"328 627 QCURVE SMOOTH",
"288 627 OFFCURVE",
"264 592 QCURVE SMOOTH",
"232 545 OFFCURVE",
"169 462 QCURVE SMOOTH",
"138 421 LINE SMOOTH",
"55 310 OFFCURVE",
"13 186 QCURVE SMOOTH",
"7 170 OFFCURVE",
"7 154 QCURVE SMOOTH",
"7 124 OFFCURVE",
"34 100 QCURVE",
"69 66 OFFCURVE",
"88 66 QCURVE SMOOTH",
"100 66 OFFCURVE",
"118 95 OFFCURVE",
"128 129 QCURVE SMOOTH",
"180 291 OFFCURVE",
"326 485 QCURVE",
"339 459 LINE SMOOTH",
"343 451 OFFCURVE",
"372 389 OFFCURVE",
"377 371 QCURVE SMOOTH",
"405 275 OFFCURVE",
"424 186 QCURVE SMOOTH",
"436 128 OFFCURVE",
"490 95 QCURVE SMOOTH",
"509 84 OFFCURVE",
"521 84 QCURVE SMOOTH",
"534 84 OFFCURVE",
"553 108 OFFCURVE",
"563 133 QCURVE",
"574 165 OFFCURVE",
"644 283 OFFCURVE",
"717 392 OFFCURVE",
"726 400 QCURVE",
"724 321 LINE",
"723 266 LINE SMOOTH",
"721 190 OFFCURVE",
"721 153 QCURVE SMOOTH",
"721 117 OFFCURVE",
"722 100 QCURVE SMOOTH",
"724 67 OFFCURVE",
"758 30 OFFCURVE",
"790 23 QCURVE SMOOTH",
"802 20 OFFCURVE",
"808 20 QCURVE SMOOTH",
"816 20 OFFCURVE",
"822 30 OFFCURVE",
"822 56 OFFCURVE",
"823 66 QCURVE",
"825 98 LINE",
"825 133 OFFCURVE",
"829 161 QCURVE SMOOTH",
"843 283 OFFCURVE",
"875 527 QCURVE SMOOTH",
"877 545 OFFCURVE",
"882 572 OFFCURVE",
"884 581 QCURVE SMOOTH",
"885 586 OFFCURVE",
"885 596 QCURVE SMOOTH",
"885 607 OFFCURVE",
"883 611 QCURVE",
"874 632 OFFCURVE",
"815 672 OFFCURVE",
"791 672 QCURVE SMOOTH",
"784 672 OFFCURVE",
"781 671 QCURVE",
"763 667 OFFCURVE",
"756 656 QCURVE SMOOTH",
"700 574 OFFCURVE",
"652 501 QCURVE SMOOTH",
"640 484 OFFCURVE",
"609 425 QCURVE SMOOTH",
"582 373 OFFCURVE",
"546 312 OFFCURVE",
"525 289 QCURVE",
"493 356 LINE SMOOTH",
"438 474 OFFCURVE",
"362 623 OFFCURVE",
"351 625 QCURVE"
);
}
);
userData = {
assembly = "NPUSHB[ ]\011/* 14 values pushed */
61 44 19 3 4 2 4 1 76 29 1 3 1 75 
MPPEM[ ]\011/* MeasurePixelPerEm */
PUSHB[ ]\011/* 1 value pushed */
21 
LT[ ]\011/* LessThan */
IF[ ]\011/* If */
NPUSHB[ ]\011/* 31 values pushed */
0 2 4 3 4 2 3 128 0 3 1 4 3 1 126 0 0 0 30 77 0 4 4 32 77 0 1 1 34 1 78 
ELSE[ ]\011/* Else */
NPUSHB[ ]\011/* 31 values pushed */
0 0 4 0 133 0 2 4 3 4 2 3 128 0 3 1 4 3 1 126 0 4 4 32 77 0 1 1 34 1 78 
EIF[ ]\011/* EndIf */
NPUSHB[ ]\011/* 12 values pushed */
79 78 67 65 52 50 34 32 30 5 8 23 
CALL[ ]\011/* CallFunction */";
};
width = 935;
}
);
note = M;
unicode = 004D;
},
{
glyphname = N;
lastChange = "2019-06-23 23:30:34 +0000";
layers = (
{
layerId = "D6A4831D-747C-4592-93C0-305F4CD57904";
paths = (
{
closed = 1;
nodes = (
"151 483 OFFCURVE",
"144 456 OFFCURVE",
"143 448 QCURVE",
"116 286 OFFCURVE",
"103 194 QCURVE",
"100 178 OFFCURVE",
"98 146 QCURVE SMOOTH",
"95 94 OFFCURVE",
"86 70 QCURVE SMOOTH",
"81 56 OFFCURVE",
"81 38 QCURVE SMOOTH",
"81 18 OFFCURVE",
"88 -8 QCURVE SMOOTH",
"92 -23 OFFCURVE",
"135 -46 OFFCURVE",
"150 -42 QCURVE SMOOTH",
"179 -34 OFFCURVE",
"218 10 OFFCURVE",
"219 40 QCURVE",
"222 81 OFFCURVE",
"224 142 OFFCURVE",
"225 162 QCURVE SMOOTH",
"231 283 LINE SMOOTH",
"234 324 OFFCURVE",
"249 396 QCURVE SMOOTH",
"258 439 LINE",
"313 369 OFFCURVE",
"340 333 QCURVE SMOOTH",
"360 306 LINE SMOOTH",
"405 245 OFFCURVE",
"435 209 QCURVE SMOOTH",
"464 174 OFFCURVE",
"504 176 QCURVE SMOOTH",
"544 178 OFFCURVE",
"590 217 OFFCURVE",
"598 257 QCURVE SMOOTH",
"603 283 OFFCURVE",
"606 296 QCURVE",
"626 391 OFFCURVE",
"658 516 OFFCURVE",
"682 577 QCURVE",
"692 595 OFFCURVE",
"701 631 QCURVE SMOOTH",
"707 656 OFFCURVE",
"688 671 QCURVE",
"640 678 LINE",
"597 619 OFFCURVE",
"544 488 OFFCURVE",
"512 383 QCURVE SMOOTH",
"495 328 LINE",
"470 364 OFFCURVE",
"444 397 QCURVE",
"328 558 LINE",
"324 563 OFFCURVE",
"320 580 OFFCURVE",
"318 586 QCURVE SMOOTH",
"295 623 OFFCURVE",
"280 623 QCURVE SMOOTH",
"277 623 OFFCURVE",
"263 621 QCURVE",
"202 616 LINE",
"175 588 OFFCURVE",
"146 529 OFFCURVE",
"150 493 QCURVE SMOOTH"
);
}
);
userData = {
assembly = "NPUSHB[ ]\011/* 11 values pushed */
19 1 0 74 57 45 38 14 4 0 73 
MPPEM[ ]\011/* MeasurePixelPerEm */
PUSHB[ ]\011/* 1 value pushed */
39 
LT[ ]\011/* LessThan */
IF[ ]\011/* If */
PUSHB[ ]\011/* 6 values pushed */
0 0 0 32 0 78 
ELSE[ ]\011/* Else */
PUSHB[ ]\011/* 4 values pushed */
0 0 0 118 
EIF[ ]\011/* EndIf */
PUSHB[ ]\011/* 4 values pushed */
36 1 8 23 
CALL[ ]\011/* CallFunction */";
};
width = 715;
}
);
note = N;
rightKerningGroup = N;
unicode = 004E;
},
{
glyphname = O;
lastChange = "2019-06-19 01:03:32 +0000";
layers = (
{
layerId = "D6A4831D-747C-4592-93C0-305F4CD57904";
paths = (
{
closed = 1;
nodes = (
"120 494 LINE",
"166 506 OFFCURVE",
"188 513 QCURVE SMOOTH",
"302 546 LINE SMOOTH",
"309 548 OFFCURVE",
"322 552 OFFCURVE",
"328 554 QCURVE SMOOTH",
"385 573 OFFCURVE",
"392 575 QCURVE SMOOTH",
"413 581 OFFCURVE",
"433 581 QCURVE SMOOTH",
"489 581 OFFCURVE",
"524 533 QCURVE SMOOTH",
"545 503 OFFCURVE",
"567 455 OFFCURVE",
"567 430 QCURVE SMOOTH",
"567 400 OFFCURVE",
"548 368 QCURVE SMOOTH",
"520 322 OFFCURVE",
"446 242 OFFCURVE",
"396 199 QCURVE SMOOTH",
"369 175 OFFCURVE",
"302 151 OFFCURVE",
"255 142 QCURVE SMOOTH",
"250 141 OFFCURVE",
"242 141 QCURVE SMOOTH",
"226 141 OFFCURVE",
"205 157 OFFCURVE",
"203 172 QCURVE",
"194 224 OFFCURVE",
"194 261 QCURVE SMOOTH",
"194 278 OFFCURVE",
"195 287 QCURVE SMOOTH",
"198 311 OFFCURVE",
"198 325 QCURVE SMOOTH",
"198 345 OFFCURVE",
"179 367 OFFCURVE",
"148 384 QCURVE",
"126 395 LINE",
"103 406 LINE",
"99 403 OFFCURVE",
"86 393 OFFCURVE",
"84 388 QCURVE",
"50 327 OFFCURVE",
"50 266 QCURVE SMOOTH",
"50 186 OFFCURVE",
"158 61 OFFCURVE",
"245 42 QCURVE SMOOTH",
"271 36 OFFCURVE",
"297 36 QCURVE SMOOTH",
"384 36 OFFCURVE",
"479 99 QCURVE SMOOTH",
"535 136 OFFCURVE",
"625 240 OFFCURVE",
"667 309 QCURVE SMOOTH",
"699 361 OFFCURVE",
"699 411 QCURVE SMOOTH",
"699 475 OFFCURVE",
"649 528 QCURVE",
"645 533 OFFCURVE",
"622 553 QCURVE",
"607 565 OFFCURVE",
"594 578 QCURVE SMOOTH",
"557 615 OFFCURVE",
"443 656 OFFCURVE",
"382 656 QCURVE SMOOTH",
"296 656 OFFCURVE",
"231 617 QCURVE SMOOTH",
"149 568 OFFCURVE",
"110 503 QCURVE"
);
}
);
userData = {
assembly = "PUSHB[ ]\011/* 6 values pushed */
69 1 2 3 1 76 
MPPEM[ ]\011/* MeasurePixelPerEm */
PUSHB[ ]\011/* 1 value pushed */
21 
LT[ ]\011/* LessThan */
IF[ ]\011/* If */
NPUSHB[ ]\011/* 24 values pushed */
0 2 3 1 3 2 1 128 0 3 3 0 97 0 0 0 30 77 0 1 1 34 1 78 
ELSE[ ]\011/* Else */
MPPEM[ ]\011/* MeasurePixelPerEm */
PUSHB[ ]\011/* 1 value pushed */
24 
LT[ ]\011/* LessThan */
IF[ ]\011/* If */
NPUSHB[ ]\011/* 24 values pushed */
0 2 3 1 3 2 1 128 0 3 3 0 97 0 0 0 32 77 0 1 1 34 1 78 
ELSE[ ]\011/* Else */
MPPEM[ ]\011/* MeasurePixelPerEm */
PUSHB[ ]\011/* 1 value pushed */
26 
LT[ ]\011/* LessThan */
IF[ ]\011/* If */
NPUSHB[ ]\011/* 22 values pushed */
0 2 3 1 3 2 1 128 0 0 0 3 2 0 3 105 0 1 1 34 1 78 
ELSE[ ]\011/* Else */
NPUSHB[ ]\011/* 28 values pushed */
0 2 3 1 3 2 1 128 0 1 1 132 0 0 3 3 0 89 0 0 0 3 97 0 3 0 3 81 
EIF[ ]\011/* EndIf */
EIF[ ]\011/* EndIf */
EIF[ ]\011/* EndIf */
NPUSHB[ ]\011/* 9 values pushed */
59 57 43 42 46 34 4 8 24 
CALL[ ]\011/* CallFunction */";
};
width = 729;
}
);
leftKerningGroup = O;
note = O;
rightKerningGroup = O;
unicode = 004F;
},
{
glyphname = P;
lastChange = "2019-10-02 11:16:57 +0000";
layers = (
{
layerId = "D6A4831D-747C-4592-93C0-305F4CD57904";
paths = (
{
closed = 1;
nodes = (
"498 328 OFFCURVE",
"589 433 QCURVE SMOOTH",
"608 455 OFFCURVE",
"616 472 QCURVE",
"631 501 OFFCURVE",
"631 525 QCURVE SMOOTH",
"631 562 OFFCURVE",
"592 594 QCURVE SMOOTH",
"587 598 OFFCURVE",
"553 627 OFFCURVE",
"536 634 QCURVE SMOOTH",
"395 692 OFFCURVE",
"258 692 QCURVE SMOOTH",
"223 692 OFFCURVE",
"178 687 QCURVE",
"147 682 OFFCURVE",
"89 652 OFFCURVE",
"68 628 QCURVE SMOOTH",
"40 595 OFFCURVE",
"38 563 QCURVE SMOOTH",
"37 544 OFFCURVE",
"50 518 QCURVE",
"102 509 LINE",
"96 479 OFFCURVE",
"82 421 QCURVE SMOOTH",
"78 405 OFFCURVE",
"55 301 OFFCURVE",
"49 258 QCURVE SMOOTH",
"40 199 OFFCURVE",
"34 81 QCURVE SMOOTH",
"32 41 LINE SMOOTH",
"31 18 OFFCURVE",
"46 0 OFFCURVE",
"65 0 QCURVE",
"78 1 LINE SMOOTH",
"95 2 OFFCURVE",
"113 21 OFFCURVE",
"117 37 QCURVE",
"126 82 LINE SMOOTH",
"129 97 OFFCURVE",
"137 142 OFFCURVE",
"144 172 QCURVE SMOOTH",
"228 561 LINE SMOOTH",
"237 601 OFFCURVE",
"272 598 QCURVE SMOOTH",
"380 589 OFFCURVE",
"467 582 QCURVE",
"474 581 OFFCURVE",
"495 572 OFFCURVE",
"498 571 QCURVE",
"516 562 LINE",
"502 538 LINE",
"487 510 OFFCURVE",
"476 501 QCURVE",
"419 449 OFFCURVE",
"342 389 QCURVE SMOOTH",
"319 371 OFFCURVE",
"271 340 QCURVE SMOOTH",
"243 322 LINE",
"256 296 OFFCURVE",
"295 266 OFFCURVE",
"317 266 QCURVE SMOOTH",
"329 266 OFFCURVE",
"348 273 QCURVE SMOOTH"
);
}
);
userData = {
assembly = "PUSHB[ ]\011/* 8 values pushed */
40 12 4 3 0 1 1 76 
MPPEM[ ]\011/* MeasurePixelPerEm */
PUSHB[ ]\011/* 1 value pushed */
21 
LT[ ]\011/* LessThan */
IF[ ]\011/* If */
NPUSHB[ ]\011/* 25 values pushed */
0 0 1 2 1 0 2 128 0 1 1 4 97 0 4 4 36 77 3 1 2 2 40 2 78 
ELSE[ ]\011/* Else */
MPPEM[ ]\011/* MeasurePixelPerEm */
PUSHB[ ]\011/* 1 value pushed */
49 
LT[ ]\011/* LessThan */
IF[ ]\011/* If */
NPUSHB[ ]\011/* 23 values pushed */
0 0 1 2 1 0 2 128 0 4 0 1 0 4 1 105 3 1 2 2 40 2 78 
ELSE[ ]\011/* Else */
NPUSHB[ ]\011/* 29 values pushed */
0 0 1 2 1 0 2 128 3 1 2 2 132 0 4 1 1 4 89 0 4 4 1 97 0 1 4 1 81 
EIF[ ]\011/* EndIf */
EIF[ ]\011/* EndIf */
NPUSHB[ ]\011/* 9 values pushed */
51 49 17 25 31 32 5 8 26 
CALL[ ]\011/* CallFunction */";
};
width = 610;
}
);
leftKerningGroup = P;
note = P;
rightKerningGroup = P;
unicode = 0050;
},
{
glyphname = Q;
lastChange = "2019-10-02 11:15:58 +0000";
layers = (
{
layerId = "D6A4831D-747C-4592-93C0-305F4CD57904";
paths = (
{
closed = 1;
nodes = (
"419 164 OFFCURVE",
"465 243 QCURVE SMOOTH",
"506 313 OFFCURVE",
"507 379 QCURVE",
"507 431 OFFCURVE",
"468 522 OFFCURVE",
"432 569 QCURVE SMOOTH",
"406 603 OFFCURVE",
"334 648 OFFCURVE",
"286 665 QCURVE",
"279 668 OFFCURVE",
"270 668 QCURVE SMOOTH",
"256 668 OFFCURVE",
"239 663 QCURVE",
"195 654 OFFCURVE",
"128 599 OFFCURVE",
"97 556 QCURVE SMOOTH",
"77 528 OFFCURVE",
"53 480 OFFCURVE",
"53 455 QCURVE SMOOTH",
"53 439 OFFCURVE",
"57 427 QCURVE",
"62 410 OFFCURVE",
"62 386 QCURVE SMOOTH",
"62 367 OFFCURVE",
"61 358 QCURVE",
"60 329 LINE SMOOTH",
"55 178 OFFCURVE",
"181 110 QCURVE SMOOTH",
"194 103 OFFCURVE",
"231 81 QCURVE",
"194 74 OFFCURVE",
"190 73 QCURVE",
"148 66 OFFCURVE",
"123 58 QCURVE SMOOTH",
"95 49 OFFCURVE",
"54 25 OFFCURVE",
"41 5 QCURVE",
"60 -29 OFFCURVE",
"104 -59 OFFCURVE",
"135 -59 QCURVE SMOOTH",
"151 -59 OFFCURVE",
"167 -56 QCURVE SMOOTH",
"188 -52 OFFCURVE",
"228 -42 QCURVE SMOOTH",
"282 -29 OFFCURVE",
"313 -23 QCURVE",
"377 -13 OFFCURVE",
"444 -4 OFFCURVE",
"481 -4 QCURVE SMOOTH",
"525 -4 OFFCURVE",
"568 -13 QCURVE",
"582 -15 OFFCURVE",
"591 -15 QCURVE SMOOTH",
"612 -15 OFFCURVE",
"637 -10 QCURVE",
"644 -9 OFFCURVE",
"659 8 OFFCURVE",
"660 16 QCURVE",
"660 22 OFFCURVE",
"645 39 OFFCURVE",
"638 41 QCURVE SMOOTH",
"563 62 OFFCURVE",
"450 88 OFFCURVE",
"392 88 QCURVE SMOOTH",
"380 87 OFFCURVE",
"344 90 QCURVE SMOOTH",
"302 93 LINE",
"302 93 OFFCURVE",
"320 108 QCURVE SMOOTH",
"339 123 OFFCURVE",
"347 128 QCURVE"
);
},
{
closed = 1;
nodes = (
"154 342 LINE",
"154 374 LINE",
"151 431 OFFCURVE",
"205 518 OFFCURVE",
"256 559 QCURVE SMOOTH",
"277 576 OFFCURVE",
"299 576 QCURVE SMOOTH",
"331 576 OFFCURVE",
"354 536 QCURVE SMOOTH",
"383 486 OFFCURVE",
"382 437 QCURVE SMOOTH",
"381 395 OFFCURVE",
"361 351 QCURVE SMOOTH",
"325 272 OFFCURVE",
"254 218 QCURVE SMOOTH",
"229 199 OFFCURVE",
"208 199 QCURVE SMOOTH",
"189 199 OFFCURVE",
"162 229 OFFCURVE",
"158 256 QCURVE SMOOTH",
"154 281 OFFCURVE",
"154 313 QCURVE",
"152 342 LINE"
);
}
);
userData = {
assembly = "NPUSHB[ ]\011/* 11 values pushed */
45 1 5 6 40 33 2 2 0 2 76 
MPPEM[ ]\011/* MeasurePixelPerEm */
PUSHB[ ]\011/* 1 value pushed */
21 
LT[ ]\011/* LessThan */
IF[ ]\011/* If */
NPUSHB[ ]\011/* 41 values pushed */
0 6 4 5 4 6 5 128 0 5 0 4 5 0 126 0 3 1 3 134 0 4 4 30 77 0 0 0 2 97 0 2 2 31 77 0 1 1 31 1 78 
ELSE[ ]\011/* Else */
MPPEM[ ]\011/* MeasurePixelPerEm */
PUSHB[ ]\011/* 1 value pushed */
36 
LT[ ]\011/* LessThan */
IF[ ]\011/* If */
NPUSHB[ ]\011/* 36 values pushed */
0 4 6 4 133 0 6 5 6 133 0 5 0 5 133 0 3 1 3 134 0 0 0 2 97 0 2 2 31 77 0 1 1 31 1 78 
ELSE[ ]\011/* Else */
NPUSHB[ ]\011/* 34 values pushed */
0 4 6 4 133 0 6 5 6 133 0 5 0 5 133 0 3 1 3 134 0 0 0 2 1 0 2 105 0 1 1 31 1 78 
EIF[ ]\011/* EndIf */
EIF[ ]\011/* EndIf */
NPUSHB[ ]\011/* 13 values pushed */
89 87 79 77 60 58 39 34 41 52 7 8 26 
CALL[ ]\011/* CallFunction */";
};
width = 677;
}
);
leftKerningGroup = O;
note = Q;
rightKerningGroup = O;
unicode = 0051;
},
{
glyphname = R;
lastChange = "2019-06-23 23:20:57 +0000";
layers = (
{
layerId = "D6A4831D-747C-4592-93C0-305F4CD57904";
paths = (
{
closed = 1;
nodes = (
"627 104 OFFCURVE",
"617 124 OFFCURVE",
"614 129 QCURVE",
"607 128 OFFCURVE",
"594 128 QCURVE SMOOTH",
"551 128 OFFCURVE",
"513 151 QCURVE SMOOTH",
"474 177 OFFCURVE",
"391 222 QCURVE SMOOTH",
"369 234 LINE",
"367 236 OFFCURVE",
"364 241 OFFCURVE",
"363 241 QCURVE",
"428 325 LINE SMOOTH",
"507 428 OFFCURVE",
"550 484 QCURVE SMOOTH",
"586 531 OFFCURVE",
"586 577 QCURVE SMOOTH",
"586 610 OFFCURVE",
"565 645 QCURVE SMOOTH",
"542 684 OFFCURVE",
"473 725 OFFCURVE",
"433 725 QCURVE SMOOTH",
"394 725 OFFCURVE",
"356 706 QCURVE SMOOTH",
"238 647 OFFCURVE",
"181 538 QCURVE SMOOTH",
"80 343 OFFCURVE",
"52 162 QCURVE SMOOTH",
"44 103 OFFCURVE",
"44 27 QCURVE SMOOTH",
"44 2 OFFCURVE",
"84 -32 OFFCURVE",
"111 -32 QCURVE SMOOTH",
"137 -32 OFFCURVE",
"154 -8 OFFCURVE",
"154 28 QCURVE",
"153 44 LINE",
"171 192 LINE",
"185 190 OFFCURVE",
"215 188 QCURVE",
"282 181 OFFCURVE",
"300 178 QCURVE SMOOTH",
"340 171 OFFCURVE",
"375 152 QCURVE SMOOTH",
"402 137 OFFCURVE",
"443 110 QCURVE SMOOTH",
"497 74 OFFCURVE",
"517 65 QCURVE SMOOTH",
"543 53 OFFCURVE",
"588 43 QCURVE",
"592 42 OFFCURVE",
"598 42 QCURVE SMOOTH",
"614 42 OFFCURVE",
"633 61 OFFCURVE",
"633 77 QCURVE SMOOTH",
"633 86 OFFCURVE",
"630 96 QCURVE"
);
},
{
closed = 1;
nodes = (
"241 273 OFFCURVE",
"218 255 OFFCURVE",
"198 257 QCURVE",
"199 317 OFFCURVE",
"268 483 OFFCURVE",
"388 619 OFFCURVE",
"461 641 QCURVE",
"462 636 OFFCURVE",
"466 612 OFFCURVE",
"466 604 QCURVE SMOOTH",
"466 597 OFFCURVE",
"465 594 QCURVE SMOOTH",
"462 585 OFFCURVE",
"447 543 OFFCURVE",
"429 502 OFFCURVE",
"416 484 QCURVE SMOOTH",
"384 440 OFFCURVE",
"301 340 OFFCURVE",
"260 294 QCURVE SMOOTH"
);
}
);
userData = {
assembly = "NPUSHB[ ]\011/* 11 values pushed */
73 44 2 1 3 19 1 0 4 2 76 
MPPEM[ ]\011/* MeasurePixelPerEm */
PUSHB[ ]\011/* 1 value pushed */
21 
LT[ ]\011/* LessThan */
IF[ ]\011/* If */
NPUSHB[ ]\011/* 29 values pushed */
0 1 3 4 3 1 4 128 0 3 3 36 77 0 4 4 0 97 0 0 0 34 77 0 2 2 31 2 78 
ELSE[ ]\011/* Else */
MPPEM[ ]\011/* MeasurePixelPerEm */
PUSHB[ ]\011/* 1 value pushed */
36 
LT[ ]\011/* LessThan */
IF[ ]\011/* If */
NPUSHB[ ]\011/* 24 values pushed */
0 3 1 3 133 0 1 4 1 133 0 4 0 0 2 4 0 105 0 2 2 31 2 78 
ELSE[ ]\011/* Else */
NPUSHB[ ]\011/* 31 values pushed */
0 3 1 3 133 0 1 4 1 133 0 2 0 2 134 0 4 0 0 4 89 0 4 4 0 97 0 0 4 0 81 
EIF[ ]\011/* EndIf */
EIF[ ]\011/* EndIf */
NPUSHB[ ]\011/* 9 values pushed */
53 51 41 37 28 19 5 8 26 
CALL[ ]\011/* CallFunction */";
};
width = 689;
}
);
note = R;
unicode = 0052;
},
{
glyphname = S;
layers = (
{
layerId = "D6A4831D-747C-4592-93C0-305F4CD57904";
paths = (
{
closed = 1;
nodes = (
"445 717 OFFCURVE",
"423 719 QCURVE SMOOTH",
"399 721 OFFCURVE",
"386 721 QCURVE SMOOTH",
"292 721 OFFCURVE",
"202 670 QCURVE SMOOTH",
"155 644 OFFCURVE",
"108 562 OFFCURVE",
"108 516 QCURVE SMOOTH",
"108 482 OFFCURVE",
"133 419 OFFCURVE",
"155 395 QCURVE SMOOTH",
"194 353 OFFCURVE",
"242 310 QCURVE SMOOTH",
"293 262 OFFCURVE",
"375 161 OFFCURVE",
"368 141 QCURVE",
"356 111 OFFCURVE",
"249 70 OFFCURVE",
"189 70 QCURVE SMOOTH",
"135 70 OFFCURVE",
"96 88 QCURVE",
"94 94 OFFCURVE",
"94 97 QCURVE SMOOTH",
"94 102 OFFCURVE",
"97 118 OFFCURVE",
"92 131 OFFCURVE",
"78 133 QCURVE",
"50 99 OFFCURVE",
"50 66 QCURVE SMOOTH",
"50 27 OFFCURVE",
"88 -5 QCURVE SMOOTH",
"108 -21 OFFCURVE",
"156 -38 OFFCURVE",
"178 -37 QCURVE",
"196 -39 OFFCURVE",
"205 -39 QCURVE SMOOTH",
"219 -39 OFFCURVE",
"241 -37 OFFCURVE",
"249 -36 QCURVE",
"312 -31 OFFCURVE",
"412 8 OFFCURVE",
"450 50 QCURVE SMOOTH",
"483 86 OFFCURVE",
"483 129 QCURVE SMOOTH",
"483 146 OFFCURVE",
"475 167 QCURVE SMOOTH",
"455 215 OFFCURVE",
"398 289 OFFCURVE",
"349 342 QCURVE SMOOTH",
"326 366 LINE",
"260 445 OFFCURVE",
"231 475 QCURVE",
"201 500 OFFCURVE",
"201 527 QCURVE SMOOTH",
"201 543 OFFCURVE",
"212 555 QCURVE",
"227 575 OFFCURVE",
"248 588 QCURVE SMOOTH",
"293 614 OFFCURVE",
"377 639 OFFCURVE",
"423 639 QCURVE SMOOTH",
"444 639 OFFCURVE",
"455 638 QCURVE",
"480 666 OFFCURVE",
"480 684 QCURVE SMOOTH",
"480 702 OFFCURVE",
"455 712 QCURVE"
);
}
);
userData = {
assembly = "PUSHB[ ]\011/* 6 values pushed */
39 1 3 0 1 76 
MPPEM[ ]\011/* MeasurePixelPerEm */
PUSHB[ ]\011/* 1 value pushed */
21 
LT[ ]\011/* LessThan */
IF[ ]\011/* If */
NPUSHB[ ]\011/* 22 values pushed */
0 0 0 4 97 0 4 4 36 77 0 3 3 1 97 2 1 1 1 31 1 78 
ELSE[ ]\011/* Else */
MPPEM[ ]\011/* MeasurePixelPerEm */
PUSHB[ ]\011/* 1 value pushed */
24 
LT[ ]\011/* LessThan */
IF[ ]\011/* If */
NPUSHB[ ]\011/* 20 values pushed */
0 4 0 0 3 4 0 105 0 3 3 1 97 2 1 1 1 31 1 78 
ELSE[ ]\011/* Else */
NPUSHB[ ]\011/* 25 values pushed */
0 4 0 0 3 4 0 105 0 3 1 1 3 89 0 3 3 1 97 2 1 1 3 1 81 
EIF[ ]\011/* EndIf */
EIF[ ]\011/* EndIf */
NPUSHB[ ]\011/* 12 values pushed */
64 62 48 46 33 32 31 29 36 5 8 23 
CALL[ ]\011/* CallFunction */";
};
width = 533;
}
);
note = S;
unicode = 0053;
},
{
glyphname = T;
lastChange = "2019-06-23 23:19:35 +0000";
layers = (
{
layerId = "D6A4831D-747C-4592-93C0-305F4CD57904";
paths = (
{
closed = 1;
nodes = (
"290 133 OFFCURVE",
"268 46 QCURVE",
"266 36 OFFCURVE",
"266 33 QCURVE SMOOTH",
"266 18 OFFCURVE",
"287 1 OFFCURVE",
"306 1 QCURVE",
"332 0 OFFCURVE",
"351 4 OFFCURVE",
"361 21 OFFCURVE",
"369 47 QCURVE SMOOTH",
"381 88 OFFCURVE",
"382 117 QCURVE",
"386 170 OFFCURVE",
"402 309 QCURVE SMOOTH",
"418 463 OFFCURVE",
"423 526 QCURVE SMOOTH",
"425 553 OFFCURVE",
"430 570 OFFCURVE",
"448 577 OFFCURVE",
"472 579 QCURVE SMOOTH",
"511 582 OFFCURVE",
"589 587 QCURVE",
"609 589 OFFCURVE",
"648 591 QCURVE",
"686 595 OFFCURVE",
"776 605 QCURVE SMOOTH",
"812 609 OFFCURVE",
"812 634 QCURVE SMOOTH",
"812 644 OFFCURVE",
"800 653 OFFCURVE",
"781 653 OFFCURVE",
"777 653 QCURVE",
"707 658 LINE SMOOTH",
"691 659 OFFCURVE",
"506 673 OFFCURVE",
"421 673 QCURVE SMOOTH",
"242 674 OFFCURVE",
"103 623 QCURVE SMOOTH",
"74 612 OFFCURVE",
"41 590 OFFCURVE",
"35 568 QCURVE",
"48 539 OFFCURVE",
"93 509 OFFCURVE",
"120 509 QCURVE SMOOTH",
"138 509 OFFCURVE",
"159 517 QCURVE SMOOTH",
"247 551 OFFCURVE",
"325 563 QCURVE",
"317 483 LINE SMOOTH",
"314 455 OFFCURVE",
"308 386 OFFCURVE",
"305 345 QCURVE SMOOTH"
);
}
);
userData = {
assembly = "MPPEM[ ]\011/* MeasurePixelPerEm */
PUSHB[ ]\011/* 1 value pushed */
46 
LT[ ]\011/* LessThan */
IF[ ]\011/* If */
NPUSHB[ ]\011/* 14 values pushed */
35 10 3 3 0 4 52 48 39 3 6 0 2 76 
ELSE[ ]\011/* Else */
NPUSHB[ ]\011/* 14 values pushed */
35 10 3 3 0 5 52 48 39 3 6 0 2 76 
EIF[ ]\011/* EndIf */
MPPEM[ ]\011/* MeasurePixelPerEm */
PUSHB[ ]\011/* 1 value pushed */
21 
LT[ ]\011/* LessThan */
IF[ ]\011/* If */
NPUSHB[ ]\011/* 33 values pushed */
5 1 4 2 0 2 4 0 128 0 0 6 2 0 6 126 0 1 1 30 77 3 1 2 2 32 77 0 6 6 31 6 78 
ELSE[ ]\011/* Else */
MPPEM[ ]\011/* MeasurePixelPerEm */
PUSHB[ ]\011/* 1 value pushed */
39 
LT[ ]\011/* LessThan */
IF[ ]\011/* If */
NPUSHB[ ]\011/* 33 values pushed */
0 1 2 1 133 5 1 4 2 0 2 4 0 128 0 0 6 2 0 6 126 3 1 2 2 32 77 0 6 6 31 6 78 
ELSE[ ]\011/* Else */
MPPEM[ ]\011/* MeasurePixelPerEm */
PUSHB[ ]\011/* 1 value pushed */
44 
LT[ ]\011/* LessThan */
IF[ ]\011/* If */
NPUSHB[ ]\011/* 37 values pushed */
0 1 2 1 133 5 1 4 3 0 3 4 0 128 0 0 6 3 0 6 126 0 2 2 32 77 0 3 3 32 77 0 6 6 31 6 78 
ELSE[ ]\011/* Else */
MPPEM[ ]\011/* MeasurePixelPerEm */
PUSHB[ ]\011/* 1 value pushed */
46 
LT[ ]\011/* LessThan */
IF[ ]\011/* If */
NPUSHB[ ]\011/* 37 values pushed */
0 1 2 1 133 0 2 3 2 133 5 1 4 3 0 3 4 0 128 0 0 6 3 0 6 126 0 3 3 32 77 0 6 6 31 6 78 
ELSE[ ]\011/* Else */
NPUSHB[ ]\011/* 43 values pushed */
0 1 2 1 133 0 2 3 2 133 0 4 3 5 3 4 5 128 0 5 0 3 5 0 126 0 0 6 3 0 6 126 0 3 3 32 77 0 6 6 31 6 78 
EIF[ ]\011/* EndIf */
EIF[ ]\011/* EndIf */
EIF[ ]\011/* EndIf */
EIF[ ]\011/* EndIf */
NPUSHB[ ]\011/* 10 values pushed */
46 17 22 33 17 38 38 7 8 29 
CALL[ ]\011/* CallFunction */";
};
width = 761;
}
);
leftKerningGroup = T;
note = T;
rightKerningGroup = T;
unicode = 0054;
},
{
glyphname = U;
lastChange = "2019-10-02 10:55:38 +0000";
layers = (
{
layerId = "D6A4831D-747C-4592-93C0-305F4CD57904";
paths = (
{
closed = 1;
nodes = (
"666 351 OFFCURVE",
"693 511 QCURVE",
"697 569 OFFCURVE",
"629 648 OFFCURVE",
"570 654 QCURVE",
"570 654 LINE",
"568 652 LINE",
"563 638 OFFCURVE",
"559 623 QCURVE SMOOTH",
"521 495 OFFCURVE",
"387 281 OFFCURVE",
"283 177 QCURVE SMOOTH",
"263 157 OFFCURVE",
"236 157 QCURVE SMOOTH",
"211 157 OFFCURVE",
"169 193 OFFCURVE",
"167 216 QCURVE",
"165 230 OFFCURVE",
"165 259 QCURVE SMOOTH",
"165 370 OFFCURVE",
"227 502 QCURVE SMOOTH",
"248 546 OFFCURVE",
"248 573 QCURVE SMOOTH",
"248 596 OFFCURVE",
"219 632 OFFCURVE",
"186 651 QCURVE SMOOTH",
"171 660 OFFCURVE",
"160 660 QCURVE SMOOTH",
"157 660 OFFCURVE",
"153 658 QCURVE",
"143 655 OFFCURVE",
"138 635 QCURVE SMOOTH",
"126 593 OFFCURVE",
"119 572 QCURVE",
"98 498 OFFCURVE",
"74 405 OFFCURVE",
"66 357 QCURVE SMOOTH",
"60 320 OFFCURVE",
"60 285 QCURVE SMOOTH",
"60 163 OFFCURVE",
"139 77 QCURVE SMOOTH",
"155 59 OFFCURVE",
"201 41 OFFCURVE",
"226 41 QCURVE SMOOTH",
"255 41 OFFCURVE",
"275 51 QCURVE SMOOTH",
"325 76 OFFCURVE",
"398 137 OFFCURVE",
"442 183 QCURVE SMOOTH",
"460 202 OFFCURVE",
"499 256 QCURVE",
"511 269 OFFCURVE",
"542 302 OFFCURVE",
"551 310 QCURVE",
"562 318 LINE",
"544 102 LINE",
"632 88 LINE",
"633 90 OFFCURVE",
"640 150 QCURVE SMOOTH",
"652 255 OFFCURVE",
"656 280 QCURVE SMOOTH"
);
}
);
userData = {
assembly = "NPUSHB[ ]\011/* 11 values pushed */
58 5 2 2 3 4 1 0 2 2 76 
MPPEM[ ]\011/* MeasurePixelPerEm */
PUSHB[ ]\011/* 1 value pushed */
21 
LT[ ]\011/* LessThan */
IF[ ]\011/* If */
NPUSHB[ ]\011/* 21 values pushed */
0 1 1 30 77 0 3 3 32 77 0 2 2 0 97 0 0 0 34 0 78 
ELSE[ ]\011/* Else */
MPPEM[ ]\011/* MeasurePixelPerEm */
PUSHB[ ]\011/* 1 value pushed */
34 
LT[ ]\011/* LessThan */
IF[ ]\011/* If */
NPUSHB[ ]\011/* 18 values pushed */
0 1 3 1 133 0 2 0 0 2 0 101 0 3 3 32 3 78 
ELSE[ ]\011/* Else */
NPUSHB[ ]\011/* 26 values pushed */
0 1 3 1 133 0 3 2 3 133 0 2 0 0 2 89 0 2 2 0 97 0 0 2 0 81 
EIF[ ]\011/* EndIf */
EIF[ ]\011/* EndIf */
PUSHB[ ]\011/* 7 values pushed */
54 44 31 47 4 8 26 
CALL[ ]\011/* CallFunction */";
};
width = 753;
}
);
leftKerningGroup = U;
note = U;
rightKerningGroup = U;
unicode = 0055;
},
{
glyphname = V;
lastChange = "2019-10-02 09:51:12 +0000";
layers = (
{
layerId = "D6A4831D-747C-4592-93C0-305F4CD57904";
paths = (
{
closed = 1;
nodes = (
"62 390 OFFCURVE",
"64 375 OFFCURVE",
"65 371 QCURVE",
"69 358 OFFCURVE",
"81 316 QCURVE",
"84 307 OFFCURVE",
"110 214 OFFCURVE",
"127 175 QCURVE SMOOTH",
"177 60 OFFCURVE",
"308 8 QCURVE SMOOTH",
"323 2 OFFCURVE",
"334 3 QCURVE SMOOTH",
"359 5 OFFCURVE",
"379 29 QCURVE",
"401 60 OFFCURVE",
"435 128 OFFCURVE",
"453 174 QCURVE SMOOTH",
"471 220 LINE SMOOTH",
"507 312 OFFCURVE",
"560 431 OFFCURVE",
"599 486 QCURVE SMOOTH",
"604 493 OFFCURVE",
"632 535 OFFCURVE",
"669 576 OFFCURVE",
"696 589 QCURVE SMOOTH",
"706 594 OFFCURVE",
"722 610 QCURVE SMOOTH",
"736 624 OFFCURVE",
"736 641 QCURVE SMOOTH",
"736 654 OFFCURVE",
"721 675 OFFCURVE",
"708 681 QCURVE SMOOTH",
"687 691 OFFCURVE",
"665 690 QCURVE SMOOTH",
"645 689 OFFCURVE",
"624 681 QCURVE SMOOTH",
"559 656 OFFCURVE",
"517 581 QCURVE SMOOTH",
"462 496 OFFCURVE",
"403 370 QCURVE SMOOTH",
"345 245 LINE SMOOTH",
"320 185 OFFCURVE",
"305 156 QCURVE SMOOTH",
"302 150 OFFCURVE",
"288 131 QCURVE SMOOTH",
"275 114 LINE",
"250 131 OFFCURVE",
"222 178 OFFCURVE",
"213 209 QCURVE SMOOTH",
"177 338 OFFCURVE",
"151 460 QCURVE SMOOTH",
"140 512 OFFCURVE",
"87 554 OFFCURVE",
"30 552 QCURVE",
"31 539 OFFCURVE",
"30 518 OFFCURVE",
"30 511 QCURVE SMOOTH",
"30 491 LINE SMOOTH",
"30 461 OFFCURVE",
"42 414 OFFCURVE",
"59 393 QCURVE"
);
}
);
userData = {
assembly = "PUSHB[ ]\011/* 6 values pushed */
14 1 2 0 1 76 
MPPEM[ ]\011/* MeasurePixelPerEm */
PUSHB[ ]\011/* 1 value pushed */
21 
LT[ ]\011/* LessThan */
IF[ ]\011/* If */
NPUSHB[ ]\011/* 19 values pushed */
0 0 1 2 1 0 2 128 0 1 1 36 77 0 2 2 40 2 78 
ELSE[ ]\011/* Else */
NPUSHB[ ]\011/* 16 values pushed */
0 1 0 1 133 0 0 2 0 133 0 2 2 40 2 78 
EIF[ ]\011/* EndIf */
PUSHB[ ]\011/* 8 values pushed */
49 47 27 25 22 3 8 23 
CALL[ ]\011/* CallFunction */";
};
width = 640;
}
);
leftKerningGroup = V;
note = V;
unicode = 0056;
},
{
glyphname = W;
layers = (
{
layerId = "D6A4831D-747C-4592-93C0-305F4CD57904";
paths = (
{
closed = 1;
nodes = (
"192 459 LINE SMOOTH",
"178 523 OFFCURVE",
"170 555 QCURVE SMOOTH",
"153 629 OFFCURVE",
"83 649 QCURVE",
"65 636 OFFCURVE",
"50 618 OFFCURVE",
"50 607 QCURVE SMOOTH",
"50 595 OFFCURVE",
"59 569 QCURVE SMOOTH",
"69 540 LINE SMOOTH",
"71 534 OFFCURVE",
"87 488 OFFCURVE",
"90 468 QCURVE SMOOTH",
"101 399 OFFCURVE",
"146 223 OFFCURVE",
"169 148 QCURVE SMOOTH",
"181 108 OFFCURVE",
"217 72 OFFCURVE",
"247 72 QCURVE SMOOTH",
"261 72 OFFCURVE",
"277 75 QCURVE",
"287 93 OFFCURVE",
"314 163 QCURVE SMOOTH",
"342 238 OFFCURVE",
"359 267 QCURVE SMOOTH",
"364 276 OFFCURVE",
"382 314 QCURVE SMOOTH",
"404 358 OFFCURVE",
"437 418 OFFCURVE",
"458 442 QCURVE",
"462 402 OFFCURVE",
"466 348 QCURVE SMOOTH",
"467 326 LINE",
"473 258 OFFCURVE",
"533 133 OFFCURVE",
"584 105 QCURVE SMOOTH",
"615 88 OFFCURVE",
"628 88 QCURVE SMOOTH",
"640 88 OFFCURVE",
"657 109 OFFCURVE",
"668 136 QCURVE SMOOTH",
"686 180 OFFCURVE",
"713 278 QCURVE SMOOTH",
"733 346 OFFCURVE",
"742 373 QCURVE SMOOTH",
"764 437 OFFCURVE",
"799 513 OFFCURVE",
"832 545 QCURVE SMOOTH",
"854 567 OFFCURVE",
"854 588 QCURVE SMOOTH",
"854 603 OFFCURVE",
"843 622 QCURVE SMOOTH",
"838 631 OFFCURVE",
"832 646 OFFCURVE",
"826 652 OFFCURVE",
"818 652 QCURVE SMOOTH",
"808 652 OFFCURVE",
"800 650 QCURVE",
"758 642 OFFCURVE",
"709 586 OFFCURVE",
"693 540 QCURVE SMOOTH",
"663 450 LINE SMOOTH",
"646 396 OFFCURVE",
"632 359 QCURVE",
"625 337 OFFCURVE",
"601 300 OFFCURVE",
"580 282 QCURVE",
"575 340 LINE SMOOTH",
"568 403 OFFCURVE",
"567 443 QCURVE SMOOTH",
"566 470 OFFCURVE",
"556 505 OFFCURVE",
"544 532 QCURVE",
"537 546 OFFCURVE",
"534 554 QCURVE",
"524 578 OFFCURVE",
"485 604 OFFCURVE",
"463 604 QCURVE SMOOTH",
"447 604 OFFCURVE",
"416 589 OFFCURVE",
"404 575 QCURVE SMOOTH",
"364 528 OFFCURVE",
"316 454 OFFCURVE",
"292 402 QCURVE SMOOTH",
"237 292 LINE",
"224 330 LINE SMOOTH",
"213 363 OFFCURVE",
"213 363 QCURVE"
);
}
);
userData = {
assembly = "NPUSHB[ ]\011/* 14 values pushed */
83 1 0 1 57 55 54 20 2 5 2 0 2 76 
MPPEM[ ]\011/* MeasurePixelPerEm */
PUSHB[ ]\011/* 1 value pushed */
21 
LT[ ]\011/* LessThan */
IF[ ]\011/* If */
NPUSHB[ ]\011/* 25 values pushed */
0 0 1 2 1 0 2 128 0 2 3 1 2 3 126 0 3 3 132 0 1 1 30 1 78 
ELSE[ ]\011/* Else */
MPPEM[ ]\011/* MeasurePixelPerEm */
PUSHB[ ]\011/* 1 value pushed */
31 
LT[ ]\011/* LessThan */
IF[ ]\011/* If */
NPUSHB[ ]\011/* 25 values pushed */
0 0 1 2 1 0 2 128 0 2 3 1 2 3 126 0 3 3 132 0 1 1 32 1 78 
ELSE[ ]\011/* Else */
NPUSHB[ ]\011/* 19 values pushed */
0 1 0 1 133 0 0 2 0 133 0 2 3 2 133 0 3 3 118 
EIF[ ]\011/* EndIf */
EIF[ ]\011/* EndIf */
NPUSHB[ ]\011/* 10 values pushed */
69 67 50 48 31 30 40 4 8 23 
CALL[ ]\011/* CallFunction */";
};
width = 868;
}
);
note = W;
unicode = 0057;
},
{
glyphname = X;
layers = (
{
layerId = "D6A4831D-747C-4592-93C0-305F4CD57904";
paths = (
{
closed = 1;
nodes = (
"165 70 OFFCURVE",
"259 138 QCURVE SMOOTH",
"272 147 OFFCURVE",
"292 159 OFFCURVE",
"298 159 QCURVE SMOOTH",
"306 159 OFFCURVE",
"326 147 OFFCURVE",
"340 138 QCURVE",
"396 99 OFFCURVE",
"506 49 OFFCURVE",
"565 41 QCURVE SMOOTH",
"582 39 OFFCURVE",
"604 50 OFFCURVE",
"604 61 QCURVE SMOOTH",
"604 66 OFFCURVE",
"601 72 QCURVE",
"596 84 OFFCURVE",
"580 94 QCURVE",
"457 165 LINE SMOOTH",
"445 172 OFFCURVE",
"399 201 QCURVE SMOOTH",
"370 219 LINE",
"374 226 OFFCURVE",
"378 236 OFFCURVE",
"380 239 QCURVE",
"613 495 LINE SMOOTH",
"624 507 OFFCURVE",
"636 538 OFFCURVE",
"636 553 QCURVE SMOOTH",
"636 582 OFFCURVE",
"617 600 QCURVE SMOOTH",
"593 622 OFFCURVE",
"554 644 OFFCURVE",
"529 641 QCURVE",
"489 573 OFFCURVE",
"390 454 OFFCURVE",
"307 364 QCURVE SMOOTH",
"276 331 LINE",
"263 355 LINE SMOOTH",
"252 374 OFFCURVE",
"248 383 QCURVE",
"243 399 OFFCURVE",
"235 433 QCURVE SMOOTH",
"227 463 LINE SMOOTH",
"215 506 OFFCURVE",
"153 563 OFFCURVE",
"115 566 QCURVE",
"104 522 OFFCURVE",
"104 496 QCURVE SMOOTH",
"104 459 OFFCURVE",
"120 424 QCURVE SMOOTH",
"172 314 OFFCURVE",
"202 253 QCURVE",
"11 88 LINE",
"29 35 LINE",
"33 35 OFFCURVE",
"49 35 OFFCURVE",
"55 37 QCURVE SMOOTH"
);
}
);
userData = {
assembly = "NPUSHB[ ]\011/* 20 values pushed */
35 19 10 4 4 0 74 3 1 0 73 0 0 0 118 53 51 1 8 22 
CALL[ ]\011/* CallFunction */";
};
width = 662;
}
);
note = X;
unicode = 0058;
},
{
glyphname = Y;
layers = (
{
layerId = "D6A4831D-747C-4592-93C0-305F4CD57904";
paths = (
{
closed = 1;
nodes = (
"139 304 OFFCURVE",
"320 228 QCURVE",
"306 185 OFFCURVE",
"301 172 QCURVE SMOOTH",
"235 10 OFFCURVE",
"203 -71 QCURVE",
"202 -75 OFFCURVE",
"211 -94 OFFCURVE",
"213 -101 QCURVE",
"265 -54 OFFCURVE",
"340 51 OFFCURVE",
"390 133 QCURVE SMOOTH",
"404 155 LINE SMOOTH",
"430 198 OFFCURVE",
"461 272 QCURVE SMOOTH",
"488 332 LINE",
"492 340 OFFCURVE",
"514 382 QCURVE SMOOTH",
"519 392 OFFCURVE",
"532 416 OFFCURVE",
"539 431 QCURVE SMOOTH",
"578 512 OFFCURVE",
"595 561 QCURVE SMOOTH",
"602 581 OFFCURVE",
"602 603 QCURVE SMOOTH",
"602 636 OFFCURVE",
"567 687 OFFCURVE",
"534 700 QCURVE",
"526 688 OFFCURVE",
"521 682 QCURVE",
"500 653 OFFCURVE",
"492 634 QCURVE SMOOTH",
"473 591 OFFCURVE",
"399 411 QCURVE SMOOTH",
"372 345 LINE SMOOTH",
"365 329 OFFCURVE",
"350 299 QCURVE",
"319 298 OFFCURVE",
"282 325 OFFCURVE",
"258 353 QCURVE SMOOTH",
"225 391 OFFCURVE",
"190 485 OFFCURVE",
"177 546 QCURVE SMOOTH",
"171 576 OFFCURVE",
"141 610 OFFCURVE",
"111 635 QCURVE",
"94 648 LINE",
"89 651 OFFCURVE",
"82 651 QCURVE",
"63 650 LINE",
"57 624 OFFCURVE",
"50 582 OFFCURVE",
"50 569 QCURVE SMOOTH",
"50 551 OFFCURVE",
"61 515 OFFCURVE",
"77 473 QCURVE SMOOTH"
);
}
);
userData = {
assembly = "PUSHB[ ]\011/* 8 values pushed */
27 1 0 74 53 1 1 73 
MPPEM[ ]\011/* MeasurePixelPerEm */
PUSHB[ ]\011/* 1 value pushed */
36 
LT[ ]\011/* LessThan */
IF[ ]\011/* If */
NPUSHB[ ]\011/* 11 values pushed */
0 1 0 1 134 0 0 0 32 0 78 
ELSE[ ]\011/* Else */
NPUSHB[ ]\011/* 9 values pushed */
0 0 1 0 133 0 1 1 118 
EIF[ ]\011/* EndIf */
PUSHB[ ]\011/* 5 values pushed */
27 21 2 8 24 
CALL[ ]\011/* CallFunction */";
};
width = 610;
}
);
note = Y;
unicode = 0059;
},
{
glyphname = Z;
layers = (
{
layerId = "D6A4831D-747C-4592-93C0-305F4CD57904";
paths = (
{
closed = 1;
nodes = (
"272 300 OFFCURVE",
"114 78 QCURVE SMOOTH",
"97 53 OFFCURVE",
"97 33 QCURVE SMOOTH",
"97 0 OFFCURVE",
"140 -19 QCURVE SMOOTH",
"161 -29 OFFCURVE",
"187 -29 QCURVE SMOOTH",
"202 -29 OFFCURVE",
"234 -23 QCURVE SMOOTH",
"267 -16 LINE SMOOTH",
"369 6 OFFCURVE",
"417 13 QCURVE SMOOTH",
"452 18 OFFCURVE",
"515 24 QCURVE SMOOTH",
"581 30 OFFCURVE",
"613 34 QCURVE SMOOTH",
"663 41 OFFCURVE",
"761 63 QCURVE",
"795 72 OFFCURVE",
"795 104 QCURVE SMOOTH",
"795 112 OFFCURVE",
"794 116 QCURVE",
"250 83 LINE",
"260 103 LINE SMOOTH",
"273 130 OFFCURVE",
"278 138 QCURVE",
"312 187 LINE SMOOTH",
"335 222 OFFCURVE",
"386 295 OFFCURVE",
"409 323 QCURVE SMOOTH",
"532 478 OFFCURVE",
"641 587 QCURVE SMOOTH",
"664 610 OFFCURVE",
"664 626 QCURVE SMOOTH",
"664 636 OFFCURVE",
"649 655 OFFCURVE",
"633 667 QCURVE SMOOTH",
"603 691 OFFCURVE",
"532 714 OFFCURVE",
"488 718 QCURVE SMOOTH",
"448 721 OFFCURVE",
"408 721 QCURVE SMOOTH",
"343 721 OFFCURVE",
"220 708 OFFCURVE",
"113 694 QCURVE SMOOTH",
"50 685 LINE",
"50 681 OFFCURVE",
"51 664 OFFCURVE",
"54 662 QCURVE",
"82 637 OFFCURVE",
"134 610 OFFCURVE",
"164 610 QCURVE",
"176 611 LINE SMOOTH",
"236 617 OFFCURVE",
"297 626 QCURVE SMOOTH",
"304 627 OFFCURVE",
"382 639 OFFCURVE",
"418 639 QCURVE SMOOTH",
"460 639 OFFCURVE",
"492 630 QCURVE",
"458 577 LINE SMOOTH",
"396 481 OFFCURVE",
"349 412 QCURVE SMOOTH"
);
}
);
userData = {
assembly = "MPPEM[ ]\011/* MeasurePixelPerEm */
PUSHB[ ]\011/* 1 value pushed */
31 
LT[ ]\011/* LessThan */
IF[ ]\011/* If */
NPUSHB[ ]\011/* 10 values pushed */
2 1 1 0 42 1 3 1 2 76 
ELSE[ ]\011/* Else */
NPUSHB[ ]\011/* 12 values pushed */
2 1 1 0 42 40 39 3 4 1 2 76 
EIF[ ]\011/* EndIf */
MPPEM[ ]\011/* MeasurePixelPerEm */
PUSHB[ ]\011/* 1 value pushed */
21 
LT[ ]\011/* LessThan */
IF[ ]\011/* If */
NPUSHB[ ]\011/* 31 values pushed */
0 1 0 3 0 1 3 128 0 3 4 0 3 4 126 0 0 0 2 97 0 2 2 36 77 0 4 4 31 4 78 
ELSE[ ]\011/* Else */
MPPEM[ ]\011/* MeasurePixelPerEm */
PUSHB[ ]\011/* 1 value pushed */
31 
LT[ ]\011/* LessThan */
IF[ ]\011/* If */
NPUSHB[ ]\011/* 29 values pushed */
0 1 0 3 0 1 3 128 0 3 4 0 3 4 126 0 2 0 0 1 2 0 105 0 4 4 31 4 78 
ELSE[ ]\011/* Else */
MPPEM[ ]\011/* MeasurePixelPerEm */
PUSHB[ ]\011/* 1 value pushed */
44 
LT[ ]\011/* LessThan */
IF[ ]\011/* If */
NPUSHB[ ]\011/* 22 values pushed */
0 1 0 4 0 1 4 128 0 2 0 0 1 2 0 105 0 4 4 31 4 78 
ELSE[ ]\011/* Else */
NPUSHB[ ]\011/* 28 values pushed */
0 1 0 4 0 1 4 128 0 4 4 132 0 2 0 0 2 89 0 2 2 0 97 0 0 2 0 81 
EIF[ ]\011/* EndIf */
EIF[ ]\011/* EndIf */
EIF[ ]\011/* EndIf */
NPUSHB[ ]\011/* 10 values pushed */
56 54 40 39 40 21 35 5 8 25 
CALL[ ]\011/* CallFunction */";
};
width = 806;
}
);
note = Z;
unicode = 005A;
},
{
glyphname = bracketleft;
lastChange = "2019-07-27 08:28:11 +0000";
layers = (
{
layerId = "D6A4831D-747C-4592-93C0-305F4CD57904";
paths = (
{
closed = 1;
nodes = (
"241 -71 OFFCURVE",
"348 -55 QCURVE SMOOTH",
"368 -52 OFFCURVE",
"380 -44 QCURVE SMOOTH",
"386 -40 OFFCURVE",
"397 -26 OFFCURVE",
"396 -21 QCURVE",
"395 -14 OFFCURVE",
"382 0 OFFCURVE",
"375 3 QCURVE SMOOTH",
"358 9 LINE",
"324 22 OFFCURVE",
"305 22 QCURVE SMOOTH",
"285 21 OFFCURVE",
"265 9 QCURVE SMOOTH",
"260 6 OFFCURVE",
"242 3 OFFCURVE",
"238 2 QCURVE",
"233 1 OFFCURVE",
"225 1 QCURVE SMOOTH",
"195 1 OFFCURVE",
"195 32 QCURVE SMOOTH",
"195 38 OFFCURVE",
"195 41 QCURVE",
"203 123 OFFCURVE",
"205 166 QCURVE SMOOTH",
"215 377 OFFCURVE",
"219 482 QCURVE SMOOTH",
"220 511 OFFCURVE",
"220 526 QCURVE SMOOTH",
"220 544 OFFCURVE",
"217 559 QCURVE SMOOTH",
"215 571 OFFCURVE",
"215 579 QCURVE SMOOTH",
"215 619 OFFCURVE",
"260 634 QCURVE",
"281 639 OFFCURVE",
"323 649 QCURVE",
"332 651 OFFCURVE",
"372 660 OFFCURVE",
"387 665 QCURVE",
"397 667 OFFCURVE",
"416 691 OFFCURVE",
"422 696 QCURVE",
"408 704 LINE",
"388 720 OFFCURVE",
"377 719 QCURVE SMOOTH",
"311 713 OFFCURVE",
"229 688 OFFCURVE",
"189 675 QCURVE SMOOTH",
"119 652 OFFCURVE",
"119 577 QCURVE SMOOTH",
"119 563 OFFCURVE",
"122 546 QCURVE",
"122 542 OFFCURVE",
"122 534 QCURVE SMOOTH",
"122 522 LINE",
"111 333 OFFCURVE",
"95 86 QCURVE SMOOTH",
"93 56 OFFCURVE",
"89 1 QCURVE",
"89 -44 OFFCURVE",
"116 -80 OFFCURVE",
"154 -80 QCURVE SMOOTH",
"170 -79 OFFCURVE",
"190 -77 QCURVE SMOOTH"
);
}
);
userData = {
assembly = "NPUSHB[ ]\011/* 34 values pushed */
58 1 0 1 1 76 43 21 6 3 2 74 0 2 1 2 133 0 1 0 1 133 0 0 0 118 53 51 46 44 32 3 8 23 
CALL[ ]\011/* CallFunction */";
};
width = 460;
}
);
note = bracketleft;
unicode = 005B;
},
{
glyphname = backslash;
layers = (
{
layerId = "D6A4831D-747C-4592-93C0-305F4CD57904";
paths = (
{
closed = 1;
nodes = (
"326 -34 OFFCURVE",
"330 -34 QCURVE SMOOTH",
"345 -34 OFFCURVE",
"359 17 OFFCURVE",
"359 51 QCURVE SMOOTH",
"359 87 OFFCURVE",
"354 102 QCURVE",
"340 138 OFFCURVE",
"263 344 OFFCURVE",
"243 403 QCURVE SMOOTH",
"230 439 OFFCURVE",
"215 493 QCURVE SMOOTH",
"201 538 LINE SMOOTH",
"174 623 OFFCURVE",
"152 690 QCURVE SMOOTH",
"139 726 OFFCURVE",
"108 722 QCURVE SMOOTH",
"87 720 OFFCURVE",
"50 672 OFFCURVE",
"50 650 QCURVE SMOOTH",
"50 644 OFFCURVE",
"51 641 QCURVE",
"115 353 LINE SMOOTH",
"120 331 OFFCURVE",
"199 148 OFFCURVE",
"289 -15 OFFCURVE",
"318 -30 QCURVE SMOOTH"
);
}
);
userData = {
assembly = "PUSHB[ ]\011/* 4 values pushed */
6 1 0 74 
MPPEM[ ]\011/* MeasurePixelPerEm */
PUSHB[ ]\011/* 1 value pushed */
31 
LT[ ]\011/* LessThan */
IF[ ]\011/* If */
PUSHB[ ]\011/* 6 values pushed */
0 0 0 31 0 78 
ELSE[ ]\011/* Else */
PUSHB[ ]\011/* 4 values pushed */
0 0 0 118 
EIF[ ]\011/* EndIf */
PUSHB[ ]\011/* 5 values pushed */
24 23 1 8 22 
CALL[ ]\011/* CallFunction */";
};
width = 409;
}
);
note = backslash;
unicode = 005C;
},
{
glyphname = bracketright;
lastChange = "2019-07-27 08:28:30 +0000";
layers = (
{
layerId = "D6A4831D-747C-4592-93C0-305F4CD57904";
paths = (
{
closed = 1;
nodes = (
"308 703 OFFCURVE",
"261 703 QCURVE SMOOTH",
"227 703 OFFCURVE",
"169 683 OFFCURVE",
"149 664 QCURVE",
"143 658 OFFCURVE",
"134 640 OFFCURVE",
"136 632 QCURVE",
"138 626 OFFCURVE",
"156 614 OFFCURVE",
"164 613 QCURVE",
"181 610 OFFCURVE",
"195 610 QCURVE SMOOTH",
"213 610 OFFCURVE",
"226 613 QCURVE",
"235 616 OFFCURVE",
"247 616 QCURVE SMOOTH",
"266 616 OFFCURVE",
"285 595 OFFCURVE",
"283 576 QCURVE SMOOTH",
"276 510 LINE SMOOTH",
"265 405 OFFCURVE",
"262 355 QCURVE SMOOTH",
"254 233 OFFCURVE",
"254 50 QCURVE SMOOTH",
"254 31 OFFCURVE",
"223 3 OFFCURVE",
"202 -2 QCURVE",
"197 -4 OFFCURVE",
"154 -12 QCURVE",
"135 -15 OFFCURVE",
"114 -19 QCURVE SMOOTH",
"108 -20 OFFCURVE",
"91 -33 OFFCURVE",
"86 -35 QCURVE",
"89 -40 OFFCURVE",
"98 -57 OFFCURVE",
"104 -61 QCURVE",
"109 -63 OFFCURVE",
"130 -72 OFFCURVE",
"151 -80 OFFCURVE",
"162 -79 QCURVE SMOOTH",
"220 -74 OFFCURVE",
"290 -52 QCURVE SMOOTH",
"322 -42 OFFCURVE",
"347 -26 OFFCURVE",
"354 4 OFFCURVE",
"355 40 QCURVE SMOOTH",
"361 274 OFFCURVE",
"370 485 QCURVE SMOOTH",
"375 532 OFFCURVE",
"386 611 QCURVE SMOOTH",
"393 661 LINE",
"373 671 LINE SMOOTH",
"352 681 OFFCURVE",
"348 683 QCURVE"
);
}
);
userData = {
assembly = "PUSHB[ ]\011/* 6 values pushed */
2 1 0 2 1 76 
MPPEM[ ]\011/* MeasurePixelPerEm */
PUSHB[ ]\011/* 1 value pushed */
29 
LT[ ]\011/* LessThan */
IF[ ]\011/* If */
NPUSHB[ ]\011/* 17 values pushed */
0 2 0 0 2 89 0 2 2 0 97 1 1 0 2 0 81 
ELSE[ ]\011/* Else */
NPUSHB[ ]\011/* 21 values pushed */
0 1 0 1 134 0 2 0 0 2 89 0 2 2 0 97 0 0 2 0 81 
EIF[ ]\011/* EndIf */
NPUSHB[ ]\011/* 9 values pushed */
54 52 43 41 39 37 3 8 22 
CALL[ ]\011/* CallFunction */";
};
width = 460;
}
);
note = bracketright;
unicode = 005D;
},
{
glyphname = underscore;
layers = (
{
layerId = "D6A4831D-747C-4592-93C0-305F4CD57904";
paths = (
{
closed = 1;
nodes = (
"590 -89 OFFCURVE",
"598 -73 QCURVE",
"600 -70 OFFCURVE",
"600 -64 QCURVE SMOOTH",
"600 -53 OFFCURVE",
"584 -29 OFFCURVE",
"574 -25 QCURVE SMOOTH",
"546 -13 OFFCURVE",
"519 -12 QCURVE",
"480 -12 LINE",
"401 -12 LINE SMOOTH",
"369 -12 OFFCURVE",
"352 -11 QCURVE SMOOTH",
"312 -9 OFFCURVE",
"253 -3 OFFCURVE",
"234 -2 QCURVE",
"172 4 OFFCURVE",
"145 6 QCURVE",
"138 7 OFFCURVE",
"117 9 OFFCURVE",
"104 9 QCURVE",
"84 8 OFFCURVE",
"56 -11 OFFCURVE",
"52 -25 QCURVE SMOOTH",
"50 -33 OFFCURVE",
"50 -38 QCURVE SMOOTH",
"50 -52 OFFCURVE",
"68 -78 OFFCURVE",
"84 -86 QCURVE",
"112 -103 OFFCURVE",
"149 -103 QCURVE SMOOTH",
"212 -102 LINE SMOOTH",
"263 -102 OFFCURVE",
"289 -103 QCURVE SMOOTH",
"530 -109 LINE",
"536 -108 OFFCURVE",
"557 -107 OFFCURVE",
"563 -103 QCURVE"
);
}
);
userData = {
assembly = "PUSHB[ ]\011/* 2 values pushed */
6 100 
WCVTP[ ]\011/* WriteCVTInPixels */
MPPEM[ ]\011/* MeasurePixelPerEm */
PUSHB[ ]\011/* 1 value pushed */
29 
LT[ ]\011/* LessThan */
IF[ ]\011/* If */
PUSHB[ ]\011/* 7 values pushed */
33 11 2 0 2 1 76 
ELSE[ ]\011/* Else */
PUSHB[ ]\011/* 7 values pushed */
33 11 2 0 3 1 76 
EIF[ ]\011/* EndIf */
MPPEM[ ]\011/* MeasurePixelPerEm */
PUSHB[ ]\011/* 1 value pushed */
29 
LT[ ]\011/* LessThan */
IF[ ]\011/* If */
NPUSHB[ ]\011/* 24 values pushed */
0 1 2 2 1 112 3 1 2 0 0 2 89 3 1 2 2 0 96 0 0 2 0 80 
ELSE[ ]\011/* Else */
NPUSHB[ ]\011/* 28 values pushed */
0 1 2 3 1 112 0 2 3 3 2 112 0 3 0 0 3 87 0 3 3 0 96 0 0 3 0 80 
EIF[ ]\011/* EndIf */
PUSHB[ ]\011/* 7 values pushed */
97 20 40 112 4 8 26 
CALL[ ]\011/* CallFunction */
PUSHB[ ]\011/* 2 values pushed */
6 0 
WCVTP[ ]\011/* WriteCVTInPixels */";
};
width = 651;
}
);
note = underscore;
unicode = 005F;
},
{
glyphname = grave;
layers = (
{
layerId = "D6A4831D-747C-4592-93C0-305F4CD57904";
paths = (
{
closed = 1;
nodes = (
"235 671 OFFCURVE",
"115 776 QCURVE",
"105 786 OFFCURVE",
"69 799 OFFCURVE",
"63 795 QCURVE",
"47 783 OFFCURVE",
"52 791 OFFCURVE",
"50 775 QCURVE",
"49 758 OFFCURVE",
"64 717 OFFCURVE",
"77 701 QCURVE SMOOTH",
"109 662 OFFCURVE",
"202 560 QCURVE SMOOTH",
"235 524 LINE SMOOTH",
"257 501 OFFCURVE",
"285 501 QCURVE",
"306 502 OFFCURVE",
"324 513 QCURVE SMOOTH",
"332 518 OFFCURVE",
"317 499 OFFCURVE",
"324 510 QCURVE",
"336 531 LINE",
"325 559 LINE",
"319 577 OFFCURVE",
"310 596 OFFCURVE",
"303 603 QCURVE SMOOTH"
);
}
);
userData = {
assembly = "PUSHB[ ]\011/* 2 values pushed */
6 100 
WCVTP[ ]\011/* WriteCVTInPixels */
NPUSHB[ ]\011/* 13 values pushed */
17 3 2 0 74 0 0 0 118 40 1 8 23 
CALL[ ]\011/* CallFunction */
PUSHB[ ]\011/* 2 values pushed */
6 0 
WCVTP[ ]\011/* WriteCVTInPixels */";
};
width = 416;
}
);
note = grave;
unicode = 0060;
},
{
glyphname = a;
lastChange = "2019-06-19 01:46:10 +0000";
layers = (
{
layerId = "D6A4831D-747C-4592-93C0-305F4CD57904";
paths = (
{
closed = 1;
nodes = (
"362 48 OFFCURVE",
"371 37 QCURVE",
"380 27 OFFCURVE",
"395 16 OFFCURVE",
"404 16 QCURVE SMOOTH",
"411 16 OFFCURVE",
"419 21 QCURVE",
"428 26 OFFCURVE",
"428 58 QCURVE SMOOTH",
"428 174 OFFCURVE",
"420 249 QCURVE SMOOTH",
"413 316 OFFCURVE",
"390 354 QCURVE SMOOTH",
"367 392 OFFCURVE",
"268 443 OFFCURVE",
"210 443 QCURVE SMOOTH",
"164 442 OFFCURVE",
"121 426 QCURVE SMOOTH",
"100 418 OFFCURVE",
"100 388 QCURVE SMOOTH",
"100 371 OFFCURVE",
"104 369 QCURVE",
"119 358 OFFCURVE",
"153 358 QCURVE SMOOTH",
"164 358 OFFCURVE",
"192 360 QCURVE SMOOTH",
"220 362 OFFCURVE",
"234 362 QCURVE SMOOTH",
"272 362 OFFCURVE",
"297 339 OFFCURVE",
"297 325 QCURVE SMOOTH",
"297 318 OFFCURVE",
"252 310 OFFCURVE",
"240 310 QCURVE",
"185 305 OFFCURVE",
"122 267 OFFCURVE",
"84 221 QCURVE SMOOTH",
"45 173 OFFCURVE",
"44 125 QCURVE SMOOTH",
"43 93 OFFCURVE",
"63 65 QCURVE SMOOTH",
"82 39 OFFCURVE",
"173 2 OFFCURVE",
"215 2 QCURVE SMOOTH",
"224 2 OFFCURVE",
"238 4 QCURVE",
"270 10 OFFCURVE",
"282 17 QCURVE SMOOTH",
"295 25 OFFCURVE",
"307 37 QCURVE",
"315 46 OFFCURVE",
"328 55 OFFCURVE",
"337 55 QCURVE SMOOTH",
"346 55 OFFCURVE",
"355 51 QCURVE SMOOTH"
);
},
{
closed = 1;
nodes = (
"192 61 OFFCURVE",
"184 61 QCURVE SMOOTH",
"174 61 OFFCURVE",
"167 66 QCURVE SMOOTH",
"154 75 OFFCURVE",
"152 102 QCURVE",
"152 122 OFFCURVE",
"173 169 OFFCURVE",
"192 192 QCURVE SMOOTH",
"211 214 OFFCURVE",
"255 240 OFFCURVE",
"274 241 QCURVE",
"283 242 OFFCURVE",
"305 228 OFFCURVE",
"310 220 QCURVE",
"315 210 OFFCURVE",
"320 184 OFFCURVE",
"321 181 QCURVE",
"322 172 OFFCURVE",
"319 143 OFFCURVE",
"317 140 QCURVE SMOOTH",
"315 137 OFFCURVE",
"299 115 OFFCURVE",
"289 108 QCURVE SMOOTH",
"244 77 OFFCURVE",
"197 63 QCURVE"
);
}
);
userData = {
assembly = "NPUSHB[ ]\011/* 10 values pushed */
34 1 3 5 74 1 8 7 2 76 
MPPEM[ ]\011/* MeasurePixelPerEm */
PUSHB[ ]\011/* 1 value pushed */
11 
LT[ ]\011/* LessThan */
IF[ ]\011/* If */
NPUSHB[ ]\011/* 47 values pushed */
0 2 3 7 3 2 7 128 0 7 8 3 7 112 0 0 8 6 8 0 6 128 0 5 4 1 3 2 5 3 105 0 6 6 34 77 0 8 8 1 97 0 1 1 40 1 78 
ELSE[ ]\011/* Else */
NPUSHB[ ]\011/* 48 values pushed */
0 2 3 7 3 2 7 128 0 7 8 3 7 8 126 0 0 8 6 8 0 6 128 0 5 4 1 3 2 5 3 105 0 6 6 34 77 0 8 8 1 97 0 1 1 40 1 78 
EIF[ ]\011/* EndIf */
NPUSHB[ ]\011/* 14 values pushed */
78 77 69 68 41 38 34 36 25 39 32 9 8 29 
CALL[ ]\011/* CallFunction */";
};
width = 484;
}
);
leftKerningGroup = a;
note = a;
rightKerningGroup = a;
unicode = 0061;
},
{
glyphname = b;
lastChange = "2019-06-19 01:35:21 +0000";
layers = (
{
layerId = "D6A4831D-747C-4592-93C0-305F4CD57904";
paths = (
{
closed = 1;
nodes = (
"162 462 LINE SMOOTH",
"171 550 OFFCURVE",
"171 609 QCURVE SMOOTH",
"171 622 OFFCURVE",
"149 648 OFFCURVE",
"119 664 OFFCURVE",
"107 661 QCURVE SMOOTH",
"79 655 OFFCURVE",
"50 636 OFFCURVE",
"50 611 QCURVE SMOOTH",
"50 310 OFFCURVE",
"51 159 QCURVE SMOOTH",
"51 129 OFFCURVE",
"101 80 OFFCURVE",
"131 80 QCURVE SMOOTH",
"168 79 OFFCURVE",
"172 115 QCURVE SMOOTH",
"184 208 OFFCURVE",
"250 280 QCURVE",
"259 291 OFFCURVE",
"289 310 OFFCURVE",
"295 307 QCURVE",
"316 295 OFFCURVE",
"332 258 QCURVE SMOOTH",
"335 251 OFFCURVE",
"335 241 QCURVE SMOOTH",
"335 231 OFFCURVE",
"333 217 OFFCURVE",
"332 213 QCURVE",
"328 184 OFFCURVE",
"270 106 OFFCURVE",
"193 47 OFFCURVE",
"162 44 QCURVE SMOOTH",
"153 43 OFFCURVE",
"130 32 OFFCURVE",
"123 29 QCURVE",
"126 17 OFFCURVE",
"126 7 QCURVE",
"170 -1 OFFCURVE",
"189 -1 QCURVE SMOOTH",
"201 -1 OFFCURVE",
"207 0 QCURVE SMOOTH",
"327 18 OFFCURVE",
"393 107 QCURVE SMOOTH",
"439 168 OFFCURVE",
"439 223 QCURVE SMOOTH",
"439 293 OFFCURVE",
"368 345 QCURVE SMOOTH",
"321 380 OFFCURVE",
"279 380 QCURVE SMOOTH",
"239 380 OFFCURVE",
"195 349 QCURVE",
"186 342 OFFCURVE",
"177 332 QCURVE SMOOTH",
"161 314 OFFCURVE",
"149 309 QCURVE",
"150 332 OFFCURVE",
"154 370 QCURVE",
"159 403 OFFCURVE",
"159 422 QCURVE"
);
}
);
userData = {
assembly = "NPUSHB[ ]\011/* 14 values pushed */
3 1 2 0 21 1 1 2 2 76 59 1 0 74 
MPPEM[ ]\011/* MeasurePixelPerEm */
PUSHB[ ]\011/* 1 value pushed */
24 
LT[ ]\011/* LessThan */
IF[ ]\011/* If */
NPUSHB[ ]\011/* 19 values pushed */
0 2 0 1 0 2 1 128 0 0 0 33 77 0 1 1 40 1 78 
ELSE[ ]\011/* Else */
MPPEM[ ]\011/* MeasurePixelPerEm */
PUSHB[ ]\011/* 1 value pushed */
41 
LT[ ]\011/* LessThan */
IF[ ]\011/* If */
NPUSHB[ ]\011/* 16 values pushed */
0 0 2 0 133 0 2 1 2 133 0 1 1 40 1 78 
ELSE[ ]\011/* Else */
NPUSHB[ ]\011/* 14 values pushed */
0 0 2 0 133 0 2 1 2 133 0 1 1 118 
EIF[ ]\011/* EndIf */
EIF[ ]\011/* EndIf */
PUSHB[ ]\011/* 7 values pushed */
45 43 55 40 3 8 24 
CALL[ ]\011/* CallFunction */";
};
width = 489;
}
);
leftKerningGroup = b;
note = b;
rightKerningGroup = b;
unicode = 0062;
},
{
glyphname = c;
lastChange = "2019-06-19 01:35:45 +0000";
layers = (
{
layerId = "D6A4831D-747C-4592-93C0-305F4CD57904";
paths = (
{
closed = 1;
nodes = (
"400 109 OFFCURVE",
"400 131 QCURVE SMOOTH",
"400 136 OFFCURVE",
"399 153 OFFCURVE",
"400 162 QCURVE",
"391 161 OFFCURVE",
"358 158 OFFCURVE",
"348 153 QCURVE",
"329 141 LINE SMOOTH",
"296 120 OFFCURVE",
"246 97 OFFCURVE",
"218 97 QCURVE SMOOTH",
"173 97 OFFCURVE",
"134 135 OFFCURVE",
"134 181 QCURVE SMOOTH",
"134 251 OFFCURVE",
"216 332 OFFCURVE",
"284 324 QCURVE SMOOTH",
"294 323 OFFCURVE",
"318 342 OFFCURVE",
"318 350 QCURVE SMOOTH",
"318 356 OFFCURVE",
"310 375 OFFCURVE",
"306 378 QCURVE SMOOTH",
"284 395 OFFCURVE",
"226 415 OFFCURVE",
"196 415 QCURVE SMOOTH",
"138 415 OFFCURVE",
"103 381 QCURVE SMOOTH",
"95 374 OFFCURVE",
"81 356 QCURVE SMOOTH",
"62 333 LINE",
"44 313 OFFCURVE",
"24 251 OFFCURVE",
"24 217 QCURVE SMOOTH",
"24 178 OFFCURVE",
"37 150 QCURVE SMOOTH",
"95 29 OFFCURVE",
"221 30 QCURVE",
"241 31 LINE",
"255 29 OFFCURVE",
"263 29 QCURVE SMOOTH",
"301 29 OFFCURVE",
"363 68 OFFCURVE",
"393 102 QCURVE"
);
}
);
userData = {
assembly = "PUSHB[ ]\011/* 6 values pushed */
39 1 3 2 1 76 
MPPEM[ ]\011/* MeasurePixelPerEm */
PUSHB[ ]\011/* 1 value pushed */
26 
LT[ ]\011/* LessThan */
IF[ ]\011/* If */
NPUSHB[ ]\011/* 17 values pushed */
0 2 2 33 77 0 3 3 0 98 1 1 0 0 34 0 78 
ELSE[ ]\011/* Else */
MPPEM[ ]\011/* MeasurePixelPerEm */
PUSHB[ ]\011/* 1 value pushed */
44 
LT[ ]\011/* LessThan */
IF[ ]\011/* If */
NPUSHB[ ]\011/* 17 values pushed */
0 2 3 2 133 0 3 3 0 98 1 1 0 0 34 0 78 
ELSE[ ]\011/* Else */
NPUSHB[ ]\011/* 22 values pushed */
0 2 3 2 133 0 3 0 0 3 89 0 3 3 0 98 1 1 0 3 0 82 
EIF[ ]\011/* EndIf */
EIF[ ]\011/* EndIf */
PUSHB[ ]\011/* 7 values pushed */
45 42 34 17 4 8 26 
CALL[ ]\011/* CallFunction */";
};
width = 440;
}
);
leftKerningGroup = o;
note = c;
rightKerningGroup = o;
unicode = 0063;
},
{
glyphname = d;
lastChange = "2019-11-20 00:24:48 +0000";
layers = (
{
layerId = "D6A4831D-747C-4592-93C0-305F4CD57904";
paths = (
{
closed = 1;
nodes = (
"427 185 OFFCURVE",
"411 321 QCURVE SMOOTH",
"393 473 LINE SMOOTH",
"380 572 OFFCURVE",
"365 634 QCURVE SMOOTH",
"361 651 OFFCURVE",
"315 678 OFFCURVE",
"294 678 QCURVE SMOOTH",
"286 678 OFFCURVE",
"280 675 QCURVE SMOOTH",
"265 668 OFFCURVE",
"253 647 OFFCURVE",
"253 633 QCURVE SMOOTH",
"253 626 OFFCURVE",
"257 604 OFFCURVE",
"258 599 QCURVE SMOOTH",
"269 545 OFFCURVE",
"283 430 QCURVE SMOOTH",
"284 422 LINE",
"284 400 OFFCURVE",
"261 400 QCURVE SMOOTH",
"255 400 OFFCURVE",
"252 401 QCURVE",
"245 402 OFFCURVE",
"232 402 QCURVE SMOOTH",
"192 402 OFFCURVE",
"126 363 OFFCURVE",
"102 330 QCURVE SMOOTH",
"81 301 OFFCURVE",
"56 211 OFFCURVE",
"56 167 QCURVE SMOOTH",
"56 106 OFFCURVE",
"76 75 QCURVE SMOOTH",
"95 45 OFFCURVE",
"164 10 OFFCURVE",
"201 10 QCURVE SMOOTH",
"234 10 OFFCURVE",
"292 40 OFFCURVE",
"313 70 QCURVE SMOOTH",
"322 83 OFFCURVE",
"330 83 QCURVE SMOOTH",
"338 83 OFFCURVE",
"350 69 QCURVE",
"366 48 OFFCURVE",
"392 29 OFFCURVE",
"407 29 QCURVE SMOOTH",
"427 29 OFFCURVE",
"461 48 QCURVE",
"458 56 OFFCURVE",
"453 68 OFFCURVE",
"451 73 QCURVE",
"438 100 OFFCURVE",
"436 117 QCURVE SMOOTH"
);
},
{
closed = 1;
nodes = (
"178 267 OFFCURVE",
"204 307 OFFCURVE",
"227 334 QCURVE",
"232 341 OFFCURVE",
"270 354 OFFCURVE",
"278 352 QCURVE",
"283 351 OFFCURVE",
"292 328 OFFCURVE",
"291 319 QCURVE",
"289 256 OFFCURVE",
"274 174 OFFCURVE",
"251 141 QCURVE",
"240 122 LINE SMOOTH",
"227 100 OFFCURVE",
"208 77 OFFCURVE",
"192 68 QCURVE",
"152 95 OFFCURVE",
"152 152 QCURVE SMOOTH",
"151 193 OFFCURVE",
"169 242 QCURVE SMOOTH"
);
}
);
userData = {
assembly = "NPUSHB[ ]\011/* 15 values pushed */
33 1 3 5 63 1 1 3 56 4 2 0 1 3 76 
MPPEM[ ]\011/* MeasurePixelPerEm */
PUSHB[ ]\011/* 1 value pushed */
21 
LT[ ]\011/* LessThan */
IF[ ]\011/* If */
NPUSHB[ ]\011/* 30 values pushed */
0 1 3 0 3 1 0 128 0 5 5 30 77 4 1 3 3 33 77 0 0 0 34 77 0 2 2 40 2 78 
ELSE[ ]\011/* Else */
MPPEM[ ]\011/* MeasurePixelPerEm */
PUSHB[ ]\011/* 1 value pushed */
44 
LT[ ]\011/* LessThan */
IF[ ]\011/* If */
NPUSHB[ ]\011/* 30 values pushed */
0 5 3 5 133 0 1 3 0 3 1 0 128 4 1 3 3 33 77 0 0 0 34 77 0 2 2 40 2 78 
ELSE[ ]\011/* Else */
NPUSHB[ ]\011/* 32 values pushed */
0 5 3 5 133 0 1 3 0 3 1 0 128 0 0 2 3 0 2 126 4 1 3 3 33 77 0 2 2 40 2 78 
EIF[ ]\011/* EndIf */
EIF[ ]\011/* EndIf */
NPUSHB[ ]\011/* 9 values pushed */
43 34 41 35 35 37 6 8 28 
CALL[ ]\011/* CallFunction */";
};
width = 505;
}
);
leftKerningGroup = d;
note = d;
unicode = 0064;
},
{
glyphname = e;
lastChange = "2019-11-20 00:09:25 +0000";
layers = (
{
layerId = "D6A4831D-747C-4592-93C0-305F4CD57904";
paths = (
{
closed = 1;
nodes = (
"241 161 OFFCURVE",
"290 188 OFFCURVE",
"342 222 OFFCURVE",
"361 244 QCURVE SMOOTH",
"400 291 OFFCURVE",
"400 324 QCURVE SMOOTH",
"400 376 OFFCURVE",
"304 406 QCURVE SMOOTH",
"273 416 OFFCURVE",
"240 416 QCURVE SMOOTH",
"194 416 OFFCURVE",
"140 393 QCURVE SMOOTH",
"81 367 OFFCURVE",
"28 309 OFFCURVE",
"28 262 QCURVE SMOOTH",
"28 232 OFFCURVE",
"36 201 QCURVE SMOOTH",
"48 148 OFFCURVE",
"123 61 OFFCURVE",
"229 11 OFFCURVE",
"286 11 QCURVE SMOOTH",
"341 11 OFFCURVE",
"424 41 OFFCURVE",
"450 81 QCURVE",
"458 92 OFFCURVE",
"458 112 QCURVE SMOOTH",
"458 131 OFFCURVE",
"450 144 QCURVE",
"442 155 OFFCURVE",
"431 155 QCURVE SMOOTH",
"414 155 OFFCURVE",
"395 136 QCURVE SMOOTH",
"368 110 OFFCURVE",
"331 91 QCURVE",
"306 77 OFFCURVE",
"274 77 QCURVE SMOOTH",
"237 77 OFFCURVE",
"177 118 OFFCURVE",
"169 151 QCURVE",
"176 152 OFFCURVE",
"196 150 OFFCURVE",
"203 150 QCURVE SMOOTH",
"222 150 OFFCURVE",
"232 156 QCURVE SMOOTH"
);
},
{
closed = 1;
nodes = (
"275 337 OFFCURVE",
"275 327 QCURVE SMOOTH",
"275 311 OFFCURVE",
"269 305 QCURVE",
"233 273 OFFCURVE",
"162 220 QCURVE",
"160 218 OFFCURVE",
"141 230 OFFCURVE",
"140 234 QCURVE",
"139 242 LINE",
"139 267 OFFCURVE",
"176 321 OFFCURVE",
"232 356 OFFCURVE",
"259 354 QCURVE",
"260 353 OFFCURVE",
"273 346 OFFCURVE",
"274 341 QCURVE"
);
}
);
userData = {
assembly = "PUSHB[ ]\011/* 6 values pushed */
50 1 2 4 1 76 
MPPEM[ ]\011/* MeasurePixelPerEm */
PUSHB[ ]\011/* 1 value pushed */
31 
LT[ ]\011/* LessThan */
IF[ ]\011/* If */
NPUSHB[ ]\011/* 29 values pushed */
0 2 4 0 4 2 0 128 0 0 0 4 97 0 4 4 33 77 0 1 1 3 97 0 3 3 40 3 78 
ELSE[ ]\011/* Else */
NPUSHB[ ]\011/* 27 values pushed */
0 2 4 0 4 2 0 128 0 4 0 0 1 4 0 105 0 1 1 3 97 0 3 3 40 3 78 
EIF[ ]\011/* EndIf */
PUSHB[ ]\011/* 8 values pushed */
41 39 36 37 16 5 8 27 
CALL[ ]\011/* CallFunction */";
};
width = 468;
}
);
leftKerningGroup = e;
note = e;
unicode = 0065;
},
{
glyphname = f;
lastChange = "2019-08-24 05:38:41 +0000";
layers = (
{
layerId = "D6A4831D-747C-4592-93C0-305F4CD57904";
paths = (
{
closed = 1;
nodes = (
"201 339 OFFCURVE",
"204 363 QCURVE",
"206 387 OFFCURVE",
"206 400 QCURVE",
"208 422 OFFCURVE",
"220 452 OFFCURVE",
"254 445 QCURVE SMOOTH",
"306 450 OFFCURVE",
"296 507 QCURVE SMOOTH",
"294 527 OFFCURVE",
"240 562 OFFCURVE",
"219 564 QCURVE SMOOTH",
"210 565 OFFCURVE",
"194 565 QCURVE SMOOTH",
"157 565 OFFCURVE",
"115 538 OFFCURVE",
"111 509 QCURVE SMOOTH",
"106 475 OFFCURVE",
"102 387 OFFCURVE",
"101 345 QCURVE SMOOTH",
"99 281 LINE SMOOTH",
"98 249 OFFCURVE",
"73 219 OFFCURVE",
"37 214 QCURVE SMOOTH",
"31 213 OFFCURVE",
"18 200 OFFCURVE",
"18 195 QCURVE SMOOTH",
"18 189 OFFCURVE",
"28 176 OFFCURVE",
"34 171 QCURVE",
"41 165 OFFCURVE",
"59 165 QCURVE SMOOTH",
"114 165 OFFCURVE",
"116 107 QCURVE",
"148 -59 LINE",
"170 -151 OFFCURVE",
"179 -197 QCURVE SMOOTH",
"184 -221 OFFCURVE",
"206 -243 OFFCURVE",
"228 -243 QCURVE SMOOTH",
"254 -243 OFFCURVE",
"272 -224 OFFCURVE",
"272 -205 QCURVE SMOOTH",
"272 -179 OFFCURVE",
"262 -131 QCURVE SMOOTH",
"244 -43 LINE SMOOTH",
"239 -16 OFFCURVE",
"223 65 OFFCURVE",
"211 119 QCURVE",
"209 133 OFFCURVE",
"209 138 QCURVE SMOOTH",
"209 173 OFFCURVE",
"245 180 QCURVE SMOOTH",
"268 184 OFFCURVE",
"277 185 QCURVE",
"323 193 OFFCURVE",
"346 198 QCURVE",
"353 199 OFFCURVE",
"369 212 OFFCURVE",
"373 215 QCURVE",
"371 218 OFFCURVE",
"361 235 OFFCURVE",
"356 237 QCURVE",
"343 262 OFFCURVE",
"286 262 QCURVE SMOOTH",
"263 262 LINE",
"235 256 OFFCURVE",
"222 256 QCURVE SMOOTH",
"208 256 OFFCURVE",
"201 278 OFFCURVE",
"201 314 QCURVE SMOOTH"
);
}
);
userData = {
assembly = "NPUSHB[ ]\011/* 41 values pushed */
68 4 2 0 3 38 19 2 1 0 2 76 0 2 3 2 133 0 3 0 3 133 0 0 1 0 133 0 1 1 118 66 64 59 57 31 29 33 4 8 23 
CALL[ ]\011/* CallFunction */";
};
width = 370;
}
);
note = f;
rightKerningGroup = f;
unicode = 0066;
},
{
glyphname = g;
lastChange = "2019-06-23 23:26:56 +0000";
layers = (
{
layerId = "D6A4831D-747C-4592-93C0-305F4CD57904";
paths = (
{
closed = 1;
nodes = (
"376 258 OFFCURVE",
"387 262 OFFCURVE",
"407 267 OFFCURVE",
"416 272 QCURVE",
"429 283 OFFCURVE",
"441 301 OFFCURVE",
"448 314 QCURVE",
"462 336 OFFCURVE",
"465 340 QCURVE",
"468 345 OFFCURVE",
"468 354 QCURVE SMOOTH",
"468 359 OFFCURVE",
"466 367 QCURVE",
"459 387 OFFCURVE",
"429 408 OFFCURVE",
"410 408 QCURVE SMOOTH",
"384 408 OFFCURVE",
"361 389 QCURVE",
"345 374 OFFCURVE",
"314 360 OFFCURVE",
"295 360 QCURVE SMOOTH",
"281 360 OFFCURVE",
"266 364 QCURVE SMOOTH",
"245 370 LINE",
"242 371 OFFCURVE",
"206 381 OFFCURVE",
"189 381 QCURVE SMOOTH",
"166 381 OFFCURVE",
"145 370 QCURVE SMOOTH",
"56 324 OFFCURVE",
"38 214 QCURVE SMOOTH",
"35 196 OFFCURVE",
"35 176 QCURVE SMOOTH",
"35 104 OFFCURVE",
"89 72 QCURVE SMOOTH",
"104 63 OFFCURVE",
"145 35 OFFCURVE",
"143 29 QCURVE",
"131 -12 OFFCURVE",
"131 -22 QCURVE SMOOTH",
"131 -32 OFFCURVE",
"145 -46 OFFCURVE",
"163 -55 QCURVE SMOOTH",
"199 -73 OFFCURVE",
"250 -91 OFFCURVE",
"278 -96 QCURVE SMOOTH",
"304 -101 OFFCURVE",
"329 -125 OFFCURVE",
"329 -151 QCURVE SMOOTH",
"329 -169 OFFCURVE",
"312 -210 OFFCURVE",
"299 -226 QCURVE",
"261 -276 OFFCURVE",
"158 -283 QCURVE SMOOTH",
"130 -285 OFFCURVE",
"96 -249 OFFCURVE",
"82 -218 QCURVE",
"80 -211 OFFCURVE",
"75 -209 QCURVE",
"73 -208 OFFCURVE",
"62 -203 OFFCURVE",
"59 -203 QCURVE SMOOTH",
"56 -203 OFFCURVE",
"55 -204 QCURVE",
"51 -205 OFFCURVE",
"45 -216 OFFCURVE",
"44 -221 QCURVE",
"43 -243 OFFCURVE",
"68 -301 OFFCURVE",
"110 -348 OFFCURVE",
"131 -355 QCURVE SMOOTH",
"176 -370 OFFCURVE",
"219 -369 QCURVE SMOOTH",
"277 -368 OFFCURVE",
"379 -319 OFFCURVE",
"413 -269 QCURVE SMOOTH",
"445 -222 OFFCURVE",
"445 -174 QCURVE SMOOTH",
"445 -135 OFFCURVE",
"399 -70 OFFCURVE",
"354 -49 QCURVE SMOOTH",
"339 -42 OFFCURVE",
"307 -24 QCURVE SMOOTH",
"272 -5 LINE",
"318 39 OFFCURVE",
"359 106 OFFCURVE",
"373 180 OFFCURVE",
"376 252 QCURVE"
);
},
{
closed = 1;
nodes = (
"196 302 OFFCURVE",
"242 320 QCURVE",
"266 308 OFFCURVE",
"282 264 OFFCURVE",
"282 237 QCURVE SMOOTH",
"282 193 OFFCURVE",
"240 119 OFFCURVE",
"202 104 QCURVE",
"168 121 OFFCURVE",
"135 168 OFFCURVE",
"135 194 QCURVE SMOOTH",
"135 231 OFFCURVE",
"166 267 QCURVE SMOOTH"
);
}
);
userData = {
assembly = "NPUSHB[ ]\011/* 11 values pushed */
98 92 49 25 20 3 6 1 3 1 76 
MPPEM[ ]\011/* MeasurePixelPerEm */
PUSHB[ ]\011/* 1 value pushed */
26 
LT[ ]\011/* LessThan */
IF[ ]\011/* If */
NPUSHB[ ]\011/* 26 values pushed */
0 3 2 1 2 3 1 128 0 1 0 0 1 0 101 0 4 4 33 77 0 2 2 33 2 78 
ELSE[ ]\011/* Else */
NPUSHB[ ]\011/* 28 values pushed */
0 2 4 3 4 2 3 128 0 3 1 4 3 1 126 0 1 0 0 1 0 101 0 4 4 33 4 78 
EIF[ ]\011/* EndIf */
NPUSHB[ ]\011/* 12 values pushed */
72 70 67 65 61 59 34 32 45 5 8 23 
CALL[ ]\011/* CallFunction */";
};
width = 480;
}
);
note = g;
unicode = 0067;
},
{
glyphname = h;
lastChange = "2019-11-20 00:24:14 +0000";
layers = (
{
layerId = "D6A4831D-747C-4592-93C0-305F4CD57904";
paths = (
{
closed = 1;
nodes = (
"158 554 LINE SMOOTH",
"158 581 OFFCURVE",
"141 616 OFFCURVE",
"121 629 QCURVE SMOOTH",
"110 636 OFFCURVE",
"94 636 QCURVE SMOOTH",
"75 636 OFFCURVE",
"45 616 OFFCURVE",
"45 602 QCURVE SMOOTH",
"45 567 LINE",
"45 500 LINE SMOOTH",
"45 419 OFFCURVE",
"56 357 QCURVE SMOOTH",
"79 233 OFFCURVE",
"79 44 QCURVE SMOOTH",
"79 25 OFFCURVE",
"98 5 OFFCURVE",
"132 -4 OFFCURVE",
"138 -6 QCURVE",
"148 -8 OFFCURVE",
"151 -8 QCURVE SMOOTH",
"179 -8 OFFCURVE",
"190 27 QCURVE SMOOTH",
"221 125 OFFCURVE",
"245 157 QCURVE",
"252 169 OFFCURVE",
"271 183 OFFCURVE",
"279 183 QCURVE SMOOTH",
"290 183 OFFCURVE",
"308 165 OFFCURVE",
"314 148 QCURVE",
"320 133 OFFCURVE",
"322 98 QCURVE SMOOTH",
"324 64 OFFCURVE",
"324 46 QCURVE",
"326 -6 LINE SMOOTH",
"327 -28 OFFCURVE",
"377 -73 OFFCURVE",
"400 -73 QCURVE SMOOTH",
"406 -73 OFFCURVE",
"409 -72 QCURVE",
"417 -70 OFFCURVE",
"433 -52 OFFCURVE",
"433 -45 QCURVE SMOOTH",
"434 33 LINE SMOOTH",
"435 97 OFFCURVE",
"422 135 QCURVE SMOOTH",
"404 186 OFFCURVE",
"321 257 OFFCURVE",
"262 257 QCURVE SMOOTH",
"227 257 OFFCURVE",
"185 242 QCURVE",
"168 312 OFFCURVE",
"159 437 OFFCURVE",
"158 534 QCURVE"
);
}
);
userData = {
assembly = "NPUSHB[ ]\011/* 10 values pushed */
2 1 2 0 10 1 1 3 2 76 
MPPEM[ ]\011/* MeasurePixelPerEm */
PUSHB[ ]\011/* 1 value pushed */
49 
LT[ ]\011/* LessThan */
IF[ ]\011/* If */
NPUSHB[ ]\011/* 24 values pushed */
0 1 3 1 134 0 0 0 2 3 0 2 105 0 4 4 32 77 0 3 3 31 3 78 
ELSE[ ]\011/* Else */
NPUSHB[ ]\011/* 26 values pushed */
0 3 2 1 2 3 1 128 0 1 1 132 0 0 0 2 3 0 2 105 0 4 4 32 4 78 
EIF[ ]\011/* EndIf */
PUSHB[ ]\011/* 8 values pushed */
46 22 25 26 35 5 8 27 
CALL[ ]\011/* CallFunction */";
};
width = 479;
}
);
leftKerningGroup = b;
note = h;
rightKerningGroup = b;
unicode = 0068;
},
{
glyphname = i;
lastChange = "2019-12-27 09:54:01 +0000";
layers = (
{
layerId = "D6A4831D-747C-4592-93C0-305F4CD57904";
paths = (
{
closed = 1;
nodes = (
"154 474 OFFCURVE",
"144 499 OFFCURVE",
"138 500 QCURVE",
"97 519 OFFCURVE",
"55 519 QCURVE SMOOTH",
"46 519 OFFCURVE",
"37 510 OFFCURVE",
"37 504 QCURVE SMOOTH",
"37 488 OFFCURVE",
"45 482 QCURVE",
"61 468 OFFCURVE",
"86 455 QCURVE SMOOTH",
"114 440 LINE",
"125 446 OFFCURVE",
"150 460 OFFCURVE",
"152 466 QCURVE"
);
},
{
closed = 1;
nodes = (
"58 261 LINE",
"84 49 LINE",
"88 27 OFFCURVE",
"123 -1 OFFCURVE",
"148 -1 QCURVE SMOOTH",
"177 -1 OFFCURVE",
"198 28 OFFCURVE",
"195 55 QCURVE SMOOTH",
"181 226 LINE",
"181 231 OFFCURVE",
"179 265 OFFCURVE",
"176 279 QCURVE SMOOTH",
"171 307 OFFCURVE",
"128 342 OFFCURVE",
"100 342 QCURVE SMOOTH",
"76 342 OFFCURVE",
"59 326 OFFCURVE",
"59 312 QCURVE SMOOTH",
"59 305 OFFCURVE",
"57 293 OFFCURVE",
"54 280 QCURVE"
);
}
);
userData = {
assembly = "NPUSHB[ ]\011/* 11 values pushed */
7 2 2 1 0 16 1 2 1 2 76 
MPPEM[ ]\011/* MeasurePixelPerEm */
PUSHB[ ]\011/* 1 value pushed */
41 
LT[ ]\011/* LessThan */
IF[ ]\011/* If */
NPUSHB[ ]\011/* 16 values pushed */
0 0 1 0 133 0 1 1 2 97 0 2 2 40 2 78 
ELSE[ ]\011/* Else */
NPUSHB[ ]\011/* 21 values pushed */
0 0 1 0 133 0 1 2 2 1 89 0 1 1 2 97 0 2 1 2 81 
EIF[ ]\011/* EndIf */
PUSHB[ ]\011/* 6 values pushed */
40 42 41 3 8 25 
CALL[ ]\011/* CallFunction */";
};
width = 230;
}
);
leftKerningGroup = i;
note = i;
rightKerningGroup = i;
unicode = 0069;
},
{
glyphname = j;
lastChange = "2019-06-19 01:37:54 +0000";
layers = (
{
layerId = "D6A4831D-747C-4592-93C0-305F4CD57904";
paths = (
{
closed = 1;
nodes = (
"239 500 OFFCURVE",
"231 521 OFFCURVE",
"225 526 QCURVE",
"195 548 OFFCURVE",
"175 548 QCURVE SMOOTH",
"169 548 OFFCURVE",
"155 540 OFFCURVE",
"139 526 OFFCURVE",
"133 522 QCURVE",
"138 517 OFFCURVE",
"153 496 OFFCURVE",
"160 491 QCURVE SMOOTH",
"168 485 OFFCURVE",
"198 475 OFFCURVE",
"206 472 QCURVE",
"211 475 OFFCURVE",
"233 487 OFFCURVE",
"236 494 QCURVE"
);
},
{
closed = 1;
nodes = (
"191 -348 OFFCURVE",
"171 -365 OFFCURVE",
"160 -365 QCURVE SMOOTH",
"141 -365 OFFCURVE",
"123 -340 QCURVE SMOOTH",
"106 -319 OFFCURVE",
"78 -263 QCURVE SMOOTH",
"69 -245 LINE",
"65 -238 OFFCURVE",
"56 -215 OFFCURVE",
"43 -199 OFFCURVE",
"31 -199 QCURVE SMOOTH",
"0 -199 OFFCURVE",
"0 -233 QCURVE SMOOTH",
"0 -240 OFFCURVE",
"2 -255 OFFCURVE",
"2 -262 QCURVE",
"8 -360 OFFCURVE",
"105 -410 QCURVE SMOOTH",
"153 -435 OFFCURVE",
"194 -435 QCURVE SMOOTH",
"232 -435 OFFCURVE",
"261 -414 QCURVE SMOOTH",
"314 -376 OFFCURVE",
"314 -308 QCURVE SMOOTH",
"314 -287 OFFCURVE",
"310 -270 QCURVE SMOOTH",
"305 -240 OFFCURVE",
"293 -180 QCURVE SMOOTH",
"291 -170 OFFCURVE",
"274 -77 OFFCURVE",
"262 -37 QCURVE SMOOTH",
"241 33 OFFCURVE",
"228 176 OFFCURVE",
"224 278 QCURVE SMOOTH",
"222 329 LINE SMOOTH",
"221 351 OFFCURVE",
"193 379 OFFCURVE",
"168 380 QCURVE",
"142 382 OFFCURVE",
"113 368 OFFCURVE",
"113 343 QCURVE SMOOTH",
"113 320 OFFCURVE",
"112 309 QCURVE",
"111 274 LINE SMOOTH",
"110 254 OFFCURVE",
"114 234 QCURVE SMOOTH",
"137 129 OFFCURVE",
"177 -79 QCURVE SMOOTH",
"183 -110 LINE SMOOTH",
"204 -219 OFFCURVE",
"215 -260 QCURVE",
"211 -280 LINE SMOOTH",
"205 -312 OFFCURVE",
"197 -332 QCURVE SMOOTH"
);
}
);
userData = {
assembly = "NPUSHB[ ]\011/* 63 values pushed */
8 1 0 1 28 1 4 2 55 1 5 4 3 76 0 1 0 1 133 0 0 2 0 133 0 2 4 2 133 0 4 5 4 133 0 5 3 3 5 89 0 5 5 3 97 0 3 5 3 81 70 68 61 59 52 50 34 33 40 33 6 8 24 
CALL[ ]\011/* CallFunction */";
};
width = 370;
}
);
note = j;
rightKerningGroup = j;
unicode = 006A;
},
{
glyphname = k;
lastChange = "2019-03-18 09:30:12 +0000";
layers = (
{
layerId = "D6A4831D-747C-4592-93C0-305F4CD57904";
paths = (
{
closed = 1;
nodes = (
"167 509 OFFCURVE",
"171 544 QCURVE SMOOTH",
"181 646 LINE SMOOTH",
"183 676 OFFCURVE",
"149 704 OFFCURVE",
"112 704 QCURVE SMOOTH",
"58 704 OFFCURVE",
"57 651 QCURVE SMOOTH",
"47 325 LINE SMOOTH",
"44 205 OFFCURVE",
"44 84 QCURVE SMOOTH",
"44 42 OFFCURVE",
"55 -2 QCURVE SMOOTH",
"57 -9 OFFCURVE",
"76 -23 OFFCURVE",
"84 -24 QCURVE",
"108 -28 OFFCURVE",
"135 6 OFFCURVE",
"137 39 QCURVE SMOOTH",
"139 91 OFFCURVE",
"145 203 QCURVE",
"146 207 OFFCURVE",
"143 228 OFFCURVE",
"143 237 QCURVE SMOOTH",
"143 247 OFFCURVE",
"145 252 QCURVE",
"145 252 OFFCURVE",
"166 231 QCURVE SMOOTH",
"184 214 LINE SMOOTH",
"185 213 OFFCURVE",
"225 176 QCURVE SMOOTH",
"291 114 OFFCURVE",
"327 89 QCURVE SMOOTH",
"349 74 OFFCURVE",
"401 64 QCURVE",
"411 63 OFFCURVE",
"426 59 QCURVE",
"431 58 OFFCURVE",
"445 68 OFFCURVE",
"446 73 QCURVE",
"447 77 OFFCURVE",
"441 92 OFFCURVE",
"436 94 QCURVE",
"392 116 OFFCURVE",
"325 183 OFFCURVE",
"282 238 QCURVE SMOOTH",
"260 266 OFFCURVE",
"248 280 QCURVE SMOOTH",
"234 297 OFFCURVE",
"234 311 QCURVE SMOOTH",
"234 326 OFFCURVE",
"249 342 QCURVE",
"288 388 OFFCURVE",
"303 411 QCURVE",
"307 416 OFFCURVE",
"307 426 QCURVE SMOOTH",
"307 439 OFFCURVE",
"301 449 QCURVE SMOOTH",
"290 466 OFFCURVE",
"268 466 QCURVE SMOOTH",
"241 466 OFFCURVE",
"215 442 QCURVE",
"203 432 OFFCURVE",
"187 414 QCURVE",
"158 386 LINE",
"156 388 OFFCURVE",
"156 396 QCURVE SMOOTH",
"156 407 OFFCURVE",
"161 444 OFFCURVE",
"161 449 QCURVE"
);
}
);
userData = {
assembly = "NPUSHB[ ]\011/* 12 values pushed */
66 1 0 1 1 76 45 4 2 3 0 73 
MPPEM[ ]\011/* MeasurePixelPerEm */
PUSHB[ ]\011/* 1 value pushed */
21 
LT[ ]\011/* LessThan */
IF[ ]\011/* If */
NPUSHB[ ]\011/* 11 values pushed */
0 0 1 0 134 0 1 1 36 1 78 
ELSE[ ]\011/* Else */
NPUSHB[ ]\011/* 9 values pushed */
0 1 0 1 133 0 0 0 118 
EIF[ ]\011/* EndIf */
PUSHB[ ]\011/* 6 values pushed */
64 62 40 2 8 23 
CALL[ ]\011/* CallFunction */";
};
width = 475;
}
);
note = k;
unicode = 006B;
},
{
glyphname = l;
lastChange = "2019-03-18 09:24:11 +0000";
layers = (
{
layerId = "D6A4831D-747C-4592-93C0-305F4CD57904";
paths = (
{
closed = 1;
nodes = (
"155 50 LINE",
"154 53 OFFCURVE",
"150 77 OFFCURVE",
"151 87 QCURVE",
"154 172 OFFCURVE",
"162 342 QCURVE SMOOTH",
"168 462 LINE SMOOTH",
"173 568 OFFCURVE",
"176 621 QCURVE SMOOTH",
"178 656 OFFCURVE",
"133 699 OFFCURVE",
"100 699 QCURVE SMOOTH",
"50 699 OFFCURVE",
"50 662 QCURVE SMOOTH",
"50 655 OFFCURVE",
"51 650 QCURVE",
"58 621 OFFCURVE",
"58 586 QCURVE SMOOTH",
"59 410 LINE SMOOTH",
"61 292 OFFCURVE",
"61 58 QCURVE SMOOTH",
"61 29 OFFCURVE",
"87 -2 QCURVE SMOOTH",
"99 -16 OFFCURVE",
"130 -28 OFFCURVE",
"173 -28 OFFCURVE",
"182 -28 QCURVE",
"207 -30 OFFCURVE",
"244 -14 OFFCURVE",
"248 6 QCURVE SMOOTH",
"249 11 OFFCURVE",
"249 21 QCURVE SMOOTH",
"249 44 OFFCURVE",
"235 84 QCURVE",
"229 99 OFFCURVE",
"217 99 QCURVE SMOOTH",
"205 99 OFFCURVE",
"194 84 QCURVE",
"185 70 OFFCURVE",
"165 46 QCURVE"
);
}
);
userData = {
assembly = "NPUSHB[ ]\011/* 11 values pushed */
25 1 0 2 39 35 2 1 0 2 76 
MPPEM[ ]\011/* MeasurePixelPerEm */
PUSHB[ ]\011/* 1 value pushed */
21 
LT[ ]\011/* LessThan */
IF[ ]\011/* If */
NPUSHB[ ]\011/* 19 values pushed */
0 0 2 1 2 0 1 128 0 2 2 36 77 0 1 1 31 1 78 
ELSE[ ]\011/* Else */
MPPEM[ ]\011/* MeasurePixelPerEm */
PUSHB[ ]\011/* 1 value pushed */
49 
LT[ ]\011/* LessThan */
IF[ ]\011/* If */
NPUSHB[ ]\011/* 16 values pushed */
0 2 0 2 133 0 0 1 0 133 0 1 1 31 1 78 
ELSE[ ]\011/* Else */
NPUSHB[ ]\011/* 14 values pushed */
0 2 0 2 133 0 0 1 0 133 0 1 1 118 
EIF[ ]\011/* EndIf */
EIF[ ]\011/* EndIf */
PUSHB[ ]\011/* 6 values pushed */
44 40 34 3 8 25 
CALL[ ]\011/* CallFunction */";
};
width = 270;
}
);
note = l;
unicode = 006C;
},
{
glyphname = m;
lastChange = "2019-06-23 23:14:52 +0000";
layers = (
{
layerId = "D6A4831D-747C-4592-93C0-305F4CD57904";
paths = (
{
closed = 1;
nodes = (
"554 226 OFFCURVE",
"556 173 OFFCURVE",
"557 156 QCURVE SMOOTH",
"563 50 LINE",
"563 44 OFFCURVE",
"575 28 OFFCURVE",
"582 25 QCURVE",
"599 16 OFFCURVE",
"614 16 QCURVE SMOOTH",
"633 16 OFFCURVE",
"657 43 OFFCURVE",
"658 67 QCURVE SMOOTH",
"659 119 OFFCURVE",
"653 223 QCURVE SMOOTH",
"648 292 OFFCURVE",
"636 343 QCURVE SMOOTH",
"629 373 OFFCURVE",
"574 416 OFFCURVE",
"547 415 QCURVE SMOOTH",
"461 410 OFFCURVE",
"405 358 QCURVE",
"390 342 OFFCURVE",
"383 342 QCURVE SMOOTH",
"378 342 OFFCURVE",
"364 353 OFFCURVE",
"360 356 QCURVE SMOOTH",
"305 395 OFFCURVE",
"266 395 QCURVE SMOOTH",
"230 395 OFFCURVE",
"197 359 QCURVE SMOOTH",
"183 344 OFFCURVE",
"167 331 OFFCURVE",
"161 331 QCURVE SMOOTH",
"154 331 OFFCURVE",
"142 346 OFFCURVE",
"133 363 QCURVE",
"116 379 OFFCURVE",
"94 379 QCURVE SMOOTH",
"77 379 OFFCURVE",
"53 357 OFFCURVE",
"52 338 QCURVE SMOOTH",
"50 301 OFFCURVE",
"50 226 QCURVE SMOOTH",
"50 143 OFFCURVE",
"53 59 QCURVE",
"53 49 OFFCURVE",
"74 24 OFFCURVE",
"84 23 QCURVE",
"95 21 OFFCURVE",
"126 34 OFFCURVE",
"131 43 QCURVE",
"148 71 OFFCURVE",
"148 104 QCURVE",
"147 138 LINE",
"147 190 OFFCURVE",
"189 256 OFFCURVE",
"235 282 QCURVE",
"246 293 OFFCURVE",
"267 293 QCURVE SMOOTH",
"280 293 OFFCURVE",
"298 281 OFFCURVE",
"299 270 QCURVE SMOOTH",
"301 244 OFFCURVE",
"303 233 QCURVE",
"313 129 OFFCURVE",
"313 77 QCURVE SMOOTH",
"313 57 OFFCURVE",
"331 36 OFFCURVE",
"363 26 OFFCURVE",
"370 24 QCURVE",
"378 21 OFFCURVE",
"383 21 QCURVE SMOOTH",
"397 21 OFFCURVE",
"413 45 OFFCURVE",
"415 61 QCURVE SMOOTH",
"416 68 OFFCURVE",
"416 82 QCURVE",
"415 113 LINE SMOOTH",
"413 145 OFFCURVE",
"414 160 QCURVE",
"415 167 OFFCURVE",
"410 192 OFFCURVE",
"410 198 QCURVE SMOOTH",
"410 206 OFFCURVE",
"413 213 QCURVE",
"414 216 OFFCURVE",
"427 244 OFFCURVE",
"433 252 QCURVE SMOOTH",
"451 276 OFFCURVE",
"465 293 OFFCURVE",
"495 311 OFFCURVE",
"519 317 QCURVE",
"549 299 OFFCURVE",
"551 261 QCURVE SMOOTH"
);
}
);
userData = {
assembly = "NPUSHB[ ]\011/* 11 values pushed */
1 1 1 3 93 79 2 0 1 2 76 
MPPEM[ ]\011/* MeasurePixelPerEm */
PUSHB[ ]\011/* 1 value pushed */
24 
LT[ ]\011/* LessThan */
IF[ ]\011/* If */
NPUSHB[ ]\011/* 40 values pushed */
0 3 5 1 5 3 1 128 0 6 6 33 77 0 2 2 33 77 0 1 1 4 97 0 4 4 33 77 0 5 5 0 97 7 1 0 0 34 0 78 
ELSE[ ]\011/* Else */
MPPEM[ ]\011/* MeasurePixelPerEm */
PUSHB[ ]\011/* 1 value pushed */
39 
LT[ ]\011/* LessThan */
IF[ ]\011/* If */
NPUSHB[ ]\011/* 43 values pushed */
0 2 4 5 4 2 5 128 0 3 5 1 5 3 1 128 0 6 6 33 77 0 1 1 4 97 0 4 4 33 77 0 5 5 0 97 7 1 0 0 34 0 78 
ELSE[ ]\011/* Else */
MPPEM[ ]\011/* MeasurePixelPerEm */
PUSHB[ ]\011/* 1 value pushed */
46 
LT[ ]\011/* LessThan */
IF[ ]\011/* If */
NPUSHB[ ]\011/* 43 values pushed */
0 6 4 6 133 0 2 4 5 4 2 5 128 0 3 5 1 5 3 1 128 0 1 1 4 97 0 4 4 33 77 0 5 5 0 97 7 1 0 0 34 0 78 
ELSE[ ]\011/* Else */
NPUSHB[ ]\011/* 47 values pushed */
0 6 4 6 133 0 2 4 5 4 2 5 128 0 3 5 1 5 3 1 128 0 1 1 4 97 0 4 4 33 77 0 5 5 0 97 0 0 0 34 77 0 7 7 34 7 78 
EIF[ ]\011/* EndIf */
EIF[ ]\011/* EndIf */
EIF[ ]\011/* EndIf */
NPUSHB[ ]\011/* 19 values pushed */
85 83 75 73 71 69 66 64 61 59 56 54 35 33 21 20 8 8 22 
CALL[ ]\011/* CallFunction */";
};
width = 708;
}
);
leftKerningGroup = m;
note = m;
rightKerningGroup = m;
unicode = 006D;
},
{
glyphname = n;
lastChange = "2019-06-19 01:46:01 +0000";
layers = (
{
layerId = "D6A4831D-747C-4592-93C0-305F4CD57904";
paths = (
{
closed = 1;
nodes = (
"210 379 LINE",
"205 403 OFFCURVE",
"167 429 OFFCURVE",
"138 429 QCURVE SMOOTH",
"115 429 OFFCURVE",
"93 414 OFFCURVE",
"87 392 OFFCURVE",
"84 369 QCURVE SMOOTH",
"81 339 OFFCURVE",
"74 293 OFFCURVE",
"72 277 QCURVE",
"66 242 OFFCURVE",
"59 185 QCURVE SMOOTH",
"49 106 OFFCURVE",
"50 48 QCURVE SMOOTH",
"51 3 OFFCURVE",
"114 -5 QCURVE SMOOTH",
"130 -7 OFFCURVE",
"147 6 OFFCURVE",
"153 36 OFFCURVE",
"154 40 QCURVE",
"169 129 OFFCURVE",
"182 193 QCURVE",
"182 195 OFFCURVE",
"188 225 OFFCURVE",
"195 230 QCURVE SMOOTH",
"217 246 OFFCURVE",
"240 256 OFFCURVE",
"274 265 QCURVE",
"296 270 OFFCURVE",
"312 270 QCURVE SMOOTH",
"329 270 OFFCURVE",
"350 255 OFFCURVE",
"353 237 QCURVE SMOOTH",
"359 193 OFFCURVE",
"361 133 QCURVE SMOOTH",
"362 112 LINE",
"362 88 OFFCURVE",
"365 66 OFFCURVE",
"384 49 OFFCURVE",
"407 49 QCURVE SMOOTH",
"429 49 OFFCURVE",
"461 78 OFFCURVE",
"464 102 QCURVE SMOOTH",
"468 138 OFFCURVE",
"468 157 QCURVE SMOOTH",
"468 231 OFFCURVE",
"437 292 QCURVE SMOOTH",
"399 364 OFFCURVE",
"324 364 QCURVE SMOOTH",
"276 364 OFFCURVE",
"207 349 QCURVE",
"206 352 OFFCURVE",
"210 371 OFFCURVE",
"210 377 QCURVE SMOOTH"
);
}
);
userData = {
assembly = "NPUSHB[ ]\011/* 34 values pushed */
0 3 0 3 133 0 1 2 1 134 0 0 2 2 0 89 0 0 0 2 97 0 2 0 2 81 51 49 40 39 35 4 8 25 
CALL[ ]\011/* CallFunction */";
};
width = 517;
}
);
leftKerningGroup = n;
note = n;
rightKerningGroup = n;
unicode = 006E;
},
{
glyphname = o;
lastChange = "2019-06-23 23:13:32 +0000";
layers = (
{
layerId = "D6A4831D-747C-4592-93C0-305F4CD57904";
paths = (
{
closed = 1;
nodes = (
"318 97 OFFCURVE",
"356 156 QCURVE SMOOTH",
"389 208 OFFCURVE",
"389 253 QCURVE SMOOTH",
"389 299 OFFCURVE",
"357 331 QCURVE SMOOTH",
"297 390 OFFCURVE",
"209 390 QCURVE SMOOTH",
"181 390 OFFCURVE",
"152 384 QCURVE SMOOTH",
"107 375 OFFCURVE",
"53 345 OFFCURVE",
"44 308 QCURVE SMOOTH",
"40 291 OFFCURVE",
"34 255 QCURVE",
"29 231 LINE",
"25 177 OFFCURVE",
"73 93 OFFCURVE",
"154 48 OFFCURVE",
"198 48 QCURVE SMOOTH",
"238 48 OFFCURVE",
"269 67 QCURVE SMOOTH"
);
},
{
closed = 1;
nodes = (
"187 345 OFFCURVE",
"206 345 QCURVE SMOOTH",
"214 345 OFFCURVE",
"217 344 QCURVE",
"248 335 OFFCURVE",
"283 285 OFFCURVE",
"283 254 QCURVE SMOOTH",
"283 218 OFFCURVE",
"260 192 QCURVE",
"229 154 OFFCURVE",
"215 142 QCURVE SMOOTH",
"206 134 OFFCURVE",
"183 122 OFFCURVE",
"177 125 QCURVE SMOOTH",
"163 132 OFFCURVE",
"152 163 QCURVE",
"149 173 OFFCURVE",
"148 202 OFFCURVE",
"148 209 QCURVE",
"141 212 LINE",
"151 242 LINE SMOOTH",
"169 300 OFFCURVE",
"185 339 QCURVE"
);
}
);
userData = {
assembly = "PUSHB[ ]\011/* 7 values pushed */
25 24 2 0 2 1 76 
MPPEM[ ]\011/* MeasurePixelPerEm */
PUSHB[ ]\011/* 1 value pushed */
49 
LT[ ]\011/* LessThan */
IF[ ]\011/* If */
NPUSHB[ ]\011/* 16 values pushed */
0 0 2 0 134 0 2 2 1 97 0 1 1 33 2 78 
ELSE[ ]\011/* Else */
NPUSHB[ ]\011/* 21 values pushed */
0 0 2 0 134 0 1 2 2 1 89 0 1 1 2 97 0 2 1 2 81 
EIF[ ]\011/* EndIf */
PUSHB[ ]\011/* 7 values pushed */
43 42 42 32 3 8 24 
CALL[ ]\011/* CallFunction */";
};
width = 417;
}
);
leftKerningGroup = o;
note = o;
rightKerningGroup = o;
unicode = 006F;
},
{
glyphname = p;
lastChange = "2019-06-19 01:18:36 +0000";
layers = (
{
layerId = "D6A4831D-747C-4592-93C0-305F4CD57904";
paths = (
{
closed = 1;
nodes = (
"327 122 OFFCURVE",
"372 194 OFFCURVE",
"379 236 QCURVE SMOOTH",
"382 253 OFFCURVE",
"382 270 QCURVE SMOOTH",
"382 316 OFFCURVE",
"354 343 QCURVE SMOOTH",
"293 402 OFFCURVE",
"245 402 QCURVE SMOOTH",
"202 402 OFFCURVE",
"166 357 QCURVE SMOOTH",
"146 332 OFFCURVE",
"116 309 OFFCURVE",
"91 307 QCURVE",
"75 305 OFFCURVE",
"56 287 OFFCURVE",
"56 271 QCURVE SMOOTH",
"56 267 OFFCURVE",
"58 255 QCURVE",
"67 214 OFFCURVE",
"65 154 QCURVE SMOOTH",
"58 -64 LINE SMOOTH",
"52 -206 OFFCURVE",
"50 -281 QCURVE SMOOTH",
"49 -303 OFFCURVE",
"92 -343 OFFCURVE",
"115 -343 QCURVE SMOOTH",
"118 -343 OFFCURVE",
"126 -341 QCURVE SMOOTH",
"137 -338 OFFCURVE",
"159 -317 OFFCURVE",
"160 -308 QCURVE SMOOTH",
"161 -301 OFFCURVE",
"161 -286 QCURVE SMOOTH",
"161 -272 OFFCURVE",
"159 -242 QCURVE SMOOTH",
"157 -212 OFFCURVE",
"157 -198 QCURVE SMOOTH",
"157 -124 OFFCURVE",
"162 -24 QCURVE SMOOTH",
"165 67 LINE",
"197 48 OFFCURVE",
"226 48 QCURVE SMOOTH",
"261 48 OFFCURVE",
"291 80 QCURVE"
);
},
{
closed = 1;
nodes = (
"205 267 OFFCURVE",
"227 303 OFFCURVE",
"230 307 QCURVE",
"238 320 OFFCURVE",
"256 320 QCURVE SMOOTH",
"270 320 OFFCURVE",
"277 307 QCURVE",
"282 295 OFFCURVE",
"282 283 QCURVE SMOOTH",
"282 255 OFFCURVE",
"253 182 OFFCURVE",
"209 124 OFFCURVE",
"189 118 QCURVE",
"177 124 LINE",
"176 129 OFFCURVE",
"176 140 QCURVE SMOOTH",
"176 187 OFFCURVE",
"198 247 QCURVE SMOOTH"
);
}
);
userData = {
assembly = "NPUSHB[ ]\011/* 40 values pushed */
49 3 2 0 3 1 76 0 0 3 1 3 0 1 128 0 3 3 2 97 0 2 2 33 77 0 1 1 35 1 78 58 56 36 34 46 32 4 8 24 
CALL[ ]\011/* CallFunction */";
};
width = 432;
}
);
leftKerningGroup = a;
note = p;
rightKerningGroup = p;
unicode = 0070;
},
{
glyphname = q;
lastChange = "2019-06-19 01:32:34 +0000";
layers = (
{
layerId = "D6A4831D-747C-4592-93C0-305F4CD57904";
paths = (
{
closed = 1;
nodes = (
"179 244 LINE SMOOTH",
"196 260 OFFCURVE",
"236 294 OFFCURVE",
"252 302 QCURVE SMOOTH",
"298 327 OFFCURVE",
"329 327 QCURVE SMOOTH",
"358 327 OFFCURVE",
"381 311 QCURVE",
"409 295 OFFCURVE",
"433 295 QCURVE SMOOTH",
"441 295 OFFCURVE",
"458 302 OFFCURVE",
"464 307 QCURVE",
"468 311 OFFCURVE",
"468 322 QCURVE SMOOTH",
"468 333 OFFCURVE",
"465 334 QCURVE",
"459 339 OFFCURVE",
"430 362 OFFCURVE",
"398 383 OFFCURVE",
"381 388 QCURVE",
"349 399 OFFCURVE",
"309 399 QCURVE SMOOTH",
"277 399 OFFCURVE",
"244 393 QCURVE",
"208 388 OFFCURVE",
"125 341 OFFCURVE",
"61 268 OFFCURVE",
"52 228 QCURVE SMOOTH",
"50 218 OFFCURVE",
"50 211 QCURVE SMOOTH",
"50 174 OFFCURVE",
"97 96 OFFCURVE",
"128 87 QCURVE",
"179 70 OFFCURVE",
"220 70 QCURVE SMOOTH",
"262 70 OFFCURVE",
"290 89 QCURVE",
"295 92 OFFCURVE",
"299 49 QCURVE SMOOTH",
"301 18 OFFCURVE",
"278 -16 OFFCURVE",
"246 -23 QCURVE SMOOTH",
"139 -50 OFFCURVE",
"83 -111 QCURVE",
"99 -133 OFFCURVE",
"147 -159 OFFCURVE",
"170 -159 QCURVE SMOOTH",
"190 -159 OFFCURVE",
"203 -149 QCURVE SMOOTH",
"214 -141 OFFCURVE",
"233 -131 QCURVE SMOOTH",
"247 -123 OFFCURVE",
"254 -118 QCURVE",
"269 -109 OFFCURVE",
"277 -109 QCURVE SMOOTH",
"294 -109 OFFCURVE",
"296 -143 QCURVE SMOOTH",
"297 -158 OFFCURVE",
"296 -180 OFFCURVE",
"296 -187 QCURVE SMOOTH",
"296 -203 OFFCURVE",
"298 -231 QCURVE SMOOTH",
"301 -274 OFFCURVE",
"350 -274 QCURVE",
"372 -273 OFFCURVE",
"389 -252 OFFCURVE",
"390 -230 QCURVE SMOOTH",
"394 -176 LINE",
"399 -134 OFFCURVE",
"399 -101 QCURVE SMOOTH",
"399 -76 OFFCURVE",
"423 -55 OFFCURVE",
"448 -53 QCURVE SMOOTH",
"473 -51 OFFCURVE",
"533 -43 OFFCURVE",
"545 -42 QCURVE SMOOTH",
"571 -39 LINE",
"571 -8 OFFCURVE",
"558 17 OFFCURVE",
"540 17 QCURVE SMOOTH",
"532 17 OFFCURVE",
"518 14 QCURVE SMOOTH",
"486 8 OFFCURVE",
"436 8 QCURVE SMOOTH",
"419 8 OFFCURVE",
"408 27 OFFCURVE",
"409 46 QCURVE SMOOTH",
"417 178 OFFCURVE",
"417 242 QCURVE SMOOTH",
"417 270 OFFCURVE",
"385 302 OFFCURVE",
"360 302 QCURVE SMOOTH",
"331 302 OFFCURVE",
"304 277 OFFCURVE",
"291 251 QCURVE SMOOTH",
"278 226 OFFCURVE",
"270 218 QCURVE",
"253 198 OFFCURVE",
"254 199 QCURVE",
"231 171 OFFCURVE",
"195 141 OFFCURVE",
"171 141 QCURVE SMOOTH",
"166 141 OFFCURVE",
"156 143 QCURVE",
"139 172 OFFCURVE",
"139 188 QCURVE SMOOTH",
"139 208 OFFCURVE",
"161 228 QCURVE SMOOTH"
);
}
);
userData = {
assembly = "NPUSHB[ ]\011/* 110 values pushed */
93 1 1 10 77 1 0 9 68 1 3 7 30 1 5 2 63 1 6 5 45 40 2 4 6 6 76 0 1 10 9 10 1 9 128 0 9 0 10 9 0 126 0 3 7 2 7 3 2 128 0 2 5 7 2 5 126 0 5 6 7 5 6 126 0 6 4 7 6 4 126 0 4 4 132 0 0 0 7 3 0 7 105 0 10 10 8 97 0 8 8 33 10 78 103 101 99 97 43 42 39 23 46 34 38 40 36 11 8 31 
CALL[ ]\011/* CallFunction */";
};
width = 573;
}
);
note = q;
rightKerningGroup = q;
unicode = 0071;
},
{
glyphname = r;
lastChange = "2019-06-23 23:16:02 +0000";
layers = (
{
layerId = "D6A4831D-747C-4592-93C0-305F4CD57904";
paths = (
{
closed = 1;
nodes = (
"181 445 OFFCURVE",
"146 473 OFFCURVE",
"121 473 QCURVE SMOOTH",
"87 473 OFFCURVE",
"61 450 OFFCURVE",
"61 421 QCURVE SMOOTH",
"61 209 OFFCURVE",
"60 103 QCURVE SMOOTH",
"60 74 OFFCURVE",
"104 26 OFFCURVE",
"132 26 QCURVE SMOOTH",
"157 26 OFFCURVE",
"185 45 OFFCURVE",
"188 73 QCURVE SMOOTH",
"200 178 OFFCURVE",
"278 277 QCURVE SMOOTH",
"311 319 OFFCURVE",
"402 371 OFFCURVE",
"462 391 QCURVE",
"467 393 OFFCURVE",
"479 408 OFFCURVE",
"479 415 OFFCURVE",
"462 426 OFFCURVE",
"455 426 QCURVE SMOOTH",
"384 427 OFFCURVE",
"266 409 OFFCURVE",
"219 364 QCURVE SMOOTH",
"214 359 OFFCURVE",
"196 328 OFFCURVE",
"176 279 OFFCURVE",
"171 275 QCURVE",
"183 393 LINE SMOOTH",
"185 414 OFFCURVE",
"182 424 QCURVE"
);
}
);
userData = {
assembly = "NPUSHB[ ]\011/* 32 values pushed */
35 2 2 1 0 1 76 0 0 2 1 2 0 1 128 0 2 2 1 97 0 1 1 34 1 78 38 45 25 3 8 25 
CALL[ ]\011/* CallFunction */";
};
width = 470;
}
);
leftKerningGroup = r;
note = r;
rightKerningGroup = r;
unicode = 0072;
},
{
glyphname = s;
lastChange = "2019-06-19 03:25:17 +0000";
layers = (
{
layerId = "D6A4831D-747C-4592-93C0-305F4CD57904";
paths = (
{
closed = 1;
nodes = (
"236 -22 OFFCURVE",
"277 78 QCURVE SMOOTH",
"289 107 OFFCURVE",
"289 133 QCURVE SMOOTH",
"289 181 OFFCURVE",
"253 226 QCURVE SMOOTH",
"205 284 OFFCURVE",
"178 329 QCURVE SMOOTH",
"166 350 OFFCURVE",
"166 370 QCURVE SMOOTH",
"166 396 OFFCURVE",
"203 433 OFFCURVE",
"235 436 QCURVE SMOOTH",
"249 437 OFFCURVE",
"276 437 QCURVE SMOOTH",
"304 437 OFFCURVE",
"318 439 QCURVE SMOOTH",
"327 440 OFFCURVE",
"352 453 OFFCURVE",
"359 456 QCURVE",
"355 463 OFFCURVE",
"340 488 OFFCURVE",
"333 493 QCURVE",
"300 513 OFFCURVE",
"257 513 QCURVE SMOOTH",
"231 513 OFFCURVE",
"179 503 QCURVE SMOOTH",
"147 497 LINE SMOOTH",
"107 490 OFFCURVE",
"66 435 OFFCURVE",
"66 399 QCURVE SMOOTH",
"66 360 OFFCURVE",
"86 328 QCURVE SMOOTH",
"103 300 OFFCURVE",
"124 269 QCURVE SMOOTH",
"156 222 OFFCURVE",
"178 183 QCURVE SMOOTH",
"188 164 OFFCURVE",
"188 144 QCURVE SMOOTH",
"188 114 OFFCURVE",
"167 85 QCURVE SMOOTH",
"137 45 OFFCURVE",
"92 45 QCURVE SMOOTH",
"86 45 OFFCURVE",
"72 47 QCURVE",
"63 49 OFFCURVE",
"36 50 OFFCURVE",
"28 50 QCURVE",
"51 -22 OFFCURVE",
"135 -22 QCURVE SMOOTH"
);
}
);
userData = {
assembly = "NPUSHB[ ]\011/* 42 values pushed */
29 1 3 2 1 76 0 2 0 3 0 2 3 105 1 1 0 0 4 97 5 1 4 4 31 4 78 0 0 0 49 0 48 35 33 25 23 34 33 6 8 24 
CALL[ ]\011/* CallFunction */";
};
width = 340;
}
);
leftKerningGroup = s;
note = s;
rightKerningGroup = s;
unicode = 0073;
},
{
glyphname = t;
lastChange = "2019-06-19 03:23:48 +0000";
layers = (
{
layerId = "D6A4831D-747C-4592-93C0-305F4CD57904";
paths = (
{
closed = 1;
nodes = (
"41 366 OFFCURVE",
"64 362 QCURVE",
"78 359 OFFCURVE",
"90 354 OFFCURVE",
"91 348 QCURVE",
"96 281 OFFCURVE",
"96 216 QCURVE SMOOTH",
"96 175 OFFCURVE",
"95 156 QCURVE SMOOTH",
"92 108 OFFCURVE",
"135 34 OFFCURVE",
"209 -7 OFFCURVE",
"251 -7 QCURVE SMOOTH",
"282 -6 OFFCURVE",
"312 5 QCURVE SMOOTH",
"328 11 OFFCURVE",
"347 27 OFFCURVE",
"347 40 QCURVE SMOOTH",
"347 47 OFFCURVE",
"344 54 QCURVE",
"336 75 OFFCURVE",
"317 75 QCURVE SMOOTH",
"305 75 OFFCURVE",
"289 68 QCURVE",
"259 57 OFFCURVE",
"243 57 QCURVE SMOOTH",
"223 57 OFFCURVE",
"203 86 OFFCURVE",
"200 119 QCURVE SMOOTH",
"196 158 OFFCURVE",
"197 197 QCURVE SMOOTH",
"198 248 OFFCURVE",
"200 297 QCURVE",
"201 307 OFFCURVE",
"223 331 OFFCURVE",
"234 334 QCURVE SMOOTH",
"255 340 OFFCURVE",
"299 348 QCURVE",
"336 353 OFFCURVE",
"363 361 QCURVE",
"367 362 OFFCURVE",
"372 380 OFFCURVE",
"372 391 QCURVE SMOOTH",
"372 403 OFFCURVE",
"367 422 OFFCURVE",
"363 424 QCURVE",
"359 427 OFFCURVE",
"347 427 QCURVE SMOOTH",
"336 427 OFFCURVE",
"331 426 QCURVE",
"307 423 OFFCURVE",
"261 413 QCURVE",
"234 412 OFFCURVE",
"214 418 OFFCURVE",
"214 427 QCURVE SMOOTH",
"214 431 OFFCURVE",
"218 448 OFFCURVE",
"219 454 QCURVE",
"237 610 LINE SMOOTH",
"240 632 OFFCURVE",
"239 639 QCURVE SMOOTH",
"234 673 OFFCURVE",
"206 707 OFFCURVE",
"165 716 QCURVE",
"158 718 OFFCURVE",
"146 718 QCURVE SMOOTH",
"129 718 OFFCURVE",
"110 698 OFFCURVE",
"109 677 QCURVE SMOOTH",
"107 638 OFFCURVE",
"104 579 OFFCURVE",
"103 559 QCURVE SMOOTH",
"100 499 LINE",
"100 490 OFFCURVE",
"100 458 OFFCURVE",
"90 434 OFFCURVE",
"70 434 QCURVE SMOOTH",
"65 434 OFFCURVE",
"53 436 QCURVE",
"29 436 OFFCURVE",
"20 415 QCURVE",
"22 399 OFFCURVE",
"27 381 OFFCURVE",
"34 373 QCURVE"
);
}
);
userData = {
assembly = "NPUSHB[ ]\011/* 15 values pushed */
24 14 2 0 2 2 1 3 4 50 1 6 3 3 76 
MPPEM[ ]\011/* MeasurePixelPerEm */
PUSHB[ ]\011/* 1 value pushed */
21 
LT[ ]\011/* LessThan */
IF[ ]\011/* If */
NPUSHB[ ]\011/* 45 values pushed */
1 1 0 2 4 2 0 4 128 0 4 3 2 4 3 126 0 6 3 5 3 6 5 128 0 2 2 36 77 0 3 3 33 77 0 5 5 7 98 0 7 7 31 7 78 
ELSE[ ]\011/* Else */
MPPEM[ ]\011/* MeasurePixelPerEm */
PUSHB[ ]\011/* 1 value pushed */
39 
LT[ ]\011/* LessThan */
IF[ ]\011/* If */
NPUSHB[ ]\011/* 40 values pushed */
0 2 0 2 133 1 1 0 4 0 133 0 4 3 4 133 0 6 3 5 3 6 5 128 0 3 3 33 77 0 5 5 7 98 0 7 7 31 7 78 
ELSE[ ]\011/* Else */
MPPEM[ ]\011/* MeasurePixelPerEm */
PUSHB[ ]\011/* 1 value pushed */
41 
LT[ ]\011/* LessThan */
IF[ ]\011/* If */
NPUSHB[ ]\011/* 37 values pushed */
0 2 0 2 133 1 1 0 4 0 133 0 4 3 4 133 0 3 6 3 133 0 6 5 6 133 0 5 5 7 98 0 7 7 31 7 78 
ELSE[ ]\011/* Else */
NPUSHB[ ]\011/* 42 values pushed */
0 2 0 2 133 1 1 0 4 0 133 0 4 3 4 133 0 3 6 3 133 0 6 5 6 133 0 5 7 7 5 89 0 5 5 7 98 0 7 5 7 82 
EIF[ ]\011/* EndIf */
EIF[ ]\011/* EndIf */
EIF[ ]\011/* EndIf */
NPUSHB[ ]\011/* 14 values pushed */
71 69 62 60 58 56 50 28 41 33 19 8 8 27 
CALL[ ]\011/* CallFunction */";
};
width = 400;
}
);
note = t;
rightKerningGroup = t;
unicode = 0074;
},
{
glyphname = u;
lastChange = "2019-11-20 01:37:35 +0000";
layers = (
{
layerId = "D6A4831D-747C-4592-93C0-305F4CD57904";
paths = (
{
closed = 1;
nodes = (
"125 423 OFFCURVE",
"115 423 QCURVE SMOOTH",
"95 423 OFFCURVE",
"80 412 QCURVE SMOOTH",
"63 401 OFFCURVE",
"61 386 QCURVE",
"50 325 OFFCURVE",
"50 285 QCURVE SMOOTH",
"50 206 OFFCURVE",
"84 146 QCURVE SMOOTH",
"105 107 OFFCURVE",
"177 62 OFFCURVE",
"217 62 QCURVE SMOOTH",
"249 62 OFFCURVE",
"272 76 QCURVE",
"286 82 OFFCURVE",
"298 92 QCURVE",
"314 102 LINE",
"317 105 LINE",
"319 99 LINE",
"327 80 LINE",
"336 53 OFFCURVE",
"343 37 QCURVE",
"346 32 OFFCURVE",
"359 19 OFFCURVE",
"361 19 QCURVE",
"368 20 OFFCURVE",
"386 31 OFFCURVE",
"388 34 QCURVE SMOOTH",
"408 87 OFFCURVE",
"409 122 QCURVE SMOOTH",
"411 166 OFFCURVE",
"414 256 QCURVE SMOOTH",
"415 285 OFFCURVE",
"415 300 QCURVE",
"416 347 LINE SMOOTH",
"416 363 OFFCURVE",
"408 377 OFFCURVE",
"387 383 OFFCURVE",
"360 385 QCURVE SMOOTH",
"343 385 OFFCURVE",
"325 383 OFFCURVE",
"321 379 QCURVE",
"314 371 OFFCURVE",
"311 340 QCURVE SMOOTH",
"307 293 OFFCURVE",
"271 205 OFFCURVE",
"234 161 QCURVE SMOOTH",
"218 143 OFFCURVE",
"208 143 QCURVE SMOOTH",
"200 143 OFFCURVE",
"189 156 OFFCURVE",
"183 171 QCURVE SMOOTH",
"166 214 OFFCURVE",
"167 265 QCURVE SMOOTH",
"168 310 OFFCURVE",
"179 355 QCURVE",
"182 368 OFFCURVE",
"182 376 QCURVE SMOOTH",
"182 393 OFFCURVE",
"161 413 OFFCURVE",
"136 420 QCURVE SMOOTH"
);
}
);
userData = {
assembly = "NPUSHB[ ]\011/* 41 values pushed */
16 1 0 1 43 1 2 0 2 76 35 1 2 73 0 3 1 3 133 0 0 0 2 0 2 101 0 1 1 33 1 78 60 58 49 47 40 42 4 8 24 
CALL[ ]\011/* CallFunction */";
};
width = 475;
}
);
leftKerningGroup = u;
note = u;
rightKerningGroup = u;
unicode = 0075;
},
{
glyphname = v;
lastChange = "2019-06-19 01:30:09 +0000";
layers = (
{
layerId = "D6A4831D-747C-4592-93C0-305F4CD57904";
paths = (
{
closed = 1;
nodes = (
"198 235 OFFCURVE",
"190 267 QCURVE SMOOTH",
"182 298 OFFCURVE",
"164 336 OFFCURVE",
"144 351 QCURVE",
"116 370 OFFCURVE",
"97 370 QCURVE SMOOTH",
"80 370 OFFCURVE",
"65 359 QCURVE SMOOTH",
"50 348 OFFCURVE",
"50 334 QCURVE SMOOTH",
"50 326 OFFCURVE",
"61 301 OFFCURVE",
"64 293 QCURVE",
"95 192 OFFCURVE",
"141 51 QCURVE SMOOTH",
"157 7 OFFCURVE",
"172 -11 QCURVE SMOOTH",
"197 -39 OFFCURVE",
"230 -39 QCURVE SMOOTH",
"252 -39 OFFCURVE",
"291 -12 OFFCURVE",
"300 13 QCURVE SMOOTH",
"343 124 LINE SMOOTH",
"402 276 OFFCURVE",
"417 315 QCURVE SMOOTH",
"425 337 OFFCURVE",
"425 359 QCURVE SMOOTH",
"425 368 OFFCURVE",
"424 372 QCURVE",
"422 384 OFFCURVE",
"409 400 OFFCURVE",
"399 400 QCURVE SMOOTH",
"388 400 OFFCURVE",
"380 392 QCURVE",
"340 358 OFFCURVE",
"311 314 QCURVE SMOOTH",
"295 290 OFFCURVE",
"266 230 QCURVE SMOOTH",
"248 193 OFFCURVE",
"227 155 QCURVE",
"225 159 OFFCURVE",
"214 193 QCURVE",
"209 211 OFFCURVE",
"205 219 QCURVE"
);
}
);
userData = {
assembly = "PUSHB[ ]\011/* 6 values pushed */
16 1 1 2 1 76 
MPPEM[ ]\011/* MeasurePixelPerEm */
PUSHB[ ]\011/* 1 value pushed */
24 
LT[ ]\011/* LessThan */
IF[ ]\011/* If */
NPUSHB[ ]\011/* 19 values pushed */
0 2 0 1 0 2 1 128 0 0 0 33 77 0 1 1 31 1 78 
ELSE[ ]\011/* Else */
NPUSHB[ ]\011/* 18 values pushed */
0 2 0 1 0 2 1 128 0 1 1 132 0 0 0 33 0 78 
EIF[ ]\011/* EndIf */
PUSHB[ ]\011/* 6 values pushed */
43 43 42 3 8 25 
CALL[ ]\011/* CallFunction */";
};
width = 475;
}
);
leftKerningGroup = A;
note = v;
rightKerningGroup = v;
unicode = 0076;
},
{
glyphname = w;
lastChange = "2019-06-19 03:22:58 +0000";
layers = (
{
layerId = "D6A4831D-747C-4592-93C0-305F4CD57904";
paths = (
{
closed = 1;
nodes = (
"365 108 OFFCURVE",
"375 96 QCURVE",
"406 63 OFFCURVE",
"427 51 QCURVE",
"433 47 OFFCURVE",
"457 32 OFFCURVE",
"483 21 OFFCURVE",
"497 21 QCURVE SMOOTH",
"514 21 OFFCURVE",
"529 32 QCURVE SMOOTH",
"569 60 OFFCURVE",
"595 92 QCURVE SMOOTH",
"613 115 OFFCURVE",
"650 172 QCURVE SMOOTH",
"663 192 LINE",
"668 204 OFFCURVE",
"686 243 QCURVE SMOOTH",
"701 276 OFFCURVE",
"717 314 OFFCURVE",
"722 338 QCURVE",
"724 350 OFFCURVE",
"724 360 QCURVE SMOOTH",
"724 381 OFFCURVE",
"712 415 OFFCURVE",
"702 416 QCURVE SMOOTH",
"688 417 OFFCURVE",
"654 400 OFFCURVE",
"644 388 QCURVE SMOOTH",
"606 344 OFFCURVE",
"572 286 OFFCURVE",
"555 247 QCURVE SMOOTH",
"527 187 OFFCURVE",
"503 145 QCURVE",
"493 129 OFFCURVE",
"480 129 QCURVE SMOOTH",
"466 129 OFFCURVE",
"460 146 QCURVE SMOOTH",
"450 174 OFFCURVE",
"443 219 QCURVE SMOOTH",
"439 242 OFFCURVE",
"436 256 QCURVE SMOOTH",
"429 285 OFFCURVE",
"421 294 QCURVE",
"393 322 OFFCURVE",
"361 322 QCURVE SMOOTH",
"343 322 OFFCURVE",
"310 304 OFFCURVE",
"298 286 QCURVE SMOOTH",
"282 263 OFFCURVE",
"258 213 QCURVE SMOOTH",
"240 176 LINE SMOOTH",
"236 168 OFFCURVE",
"220 150 OFFCURVE",
"217 146 QCURVE",
"214 148 OFFCURVE",
"188 229 OFFCURVE",
"187 251 QCURVE SMOOTH",
"186 281 OFFCURVE",
"161 318 OFFCURVE",
"134 332 QCURVE SMOOTH",
"117 341 OFFCURVE",
"104 341 QCURVE SMOOTH",
"91 341 OFFCURVE",
"74 332 QCURVE",
"50 318 OFFCURVE",
"50 294 QCURVE SMOOTH",
"50 290 OFFCURVE",
"52 280 QCURVE SMOOTH",
"68 206 OFFCURVE",
"88 138 QCURVE SMOOTH",
"102 90 OFFCURVE",
"150 22 OFFCURVE",
"190 2 QCURVE SMOOTH",
"214 -9 OFFCURVE",
"231 -9 QCURVE SMOOTH",
"268 -9 OFFCURVE",
"290 36 QCURVE",
"304 62 OFFCURVE",
"337 139 QCURVE",
"357 115 OFFCURVE",
"359 113 QCURVE"
);
}
);
userData = {
assembly = "NPUSHB[ ]\011/* 41 values pushed */
1 1 3 2 1 76 0 1 2 1 133 0 2 3 2 133 0 3 3 4 97 0 4 4 34 77 0 0 0 31 0 78 73 71 40 47 43 36 5 8 26 
CALL[ ]\011/* CallFunction */";
};
width = 724;
}
);
note = w;
unicode = 0077;
},
{
glyphname = x;
layers = (
{
layerId = "D6A4831D-747C-4592-93C0-305F4CD57904";
paths = (
{
closed = 1;
nodes = (
"284 71 LINE",
"286 69 OFFCURVE",
"307 40 OFFCURVE",
"320 31 QCURVE",
"330 25 OFFCURVE",
"358 21 OFFCURVE",
"361 21 QCURVE SMOOTH",
"370 21 OFFCURVE",
"384 19 QCURVE",
"384 27 OFFCURVE",
"386 41 OFFCURVE",
"386 49 QCURVE SMOOTH",
"386 60 OFFCURVE",
"383 67 QCURVE",
"373 93 OFFCURVE",
"346 136 QCURVE",
"322 168 LINE",
"307 186 OFFCURVE",
"307 193 QCURVE SMOOTH",
"307 199 OFFCURVE",
"325 216 OFFCURVE",
"340 228 QCURVE SMOOTH",
"345 232 OFFCURVE",
"354 240 OFFCURVE",
"358 243 QCURVE",
"396 274 OFFCURVE",
"421 303 QCURVE",
"424 307 OFFCURVE",
"429 321 OFFCURVE",
"429 327 QCURVE SMOOTH",
"429 331 OFFCURVE",
"427 335 QCURVE",
"412 352 OFFCURVE",
"384 370 OFFCURVE",
"368 370 QCURVE SMOOTH",
"354 370 OFFCURVE",
"339 362 QCURVE SMOOTH",
"324 354 OFFCURVE",
"294 335 OFFCURVE",
"283 324 QCURVE SMOOTH",
"269 309 OFFCURVE",
"250 291 OFFCURVE",
"246 291 QCURVE SMOOTH",
"243 291 OFFCURVE",
"237 299 OFFCURVE",
"229 320 OFFCURVE",
"226 328 QCURVE SMOOTH",
"219 347 OFFCURVE",
"178 372 OFFCURVE",
"150 383 QCURVE",
"138 387 OFFCURVE",
"109 374 QCURVE SMOOTH",
"95 368 OFFCURVE",
"88 366 QCURVE",
"90 360 OFFCURVE",
"98 332 OFFCURVE",
"104 323 QCURVE",
"126 293 LINE",
"146 269 OFFCURVE",
"151 260 QCURVE SMOOTH",
"158 248 OFFCURVE",
"173 231 OFFCURVE",
"173 229 QCURVE SMOOTH",
"173 226 OFFCURVE",
"156 209 OFFCURVE",
"148 201 QCURVE SMOOTH",
"105 155 OFFCURVE",
"59 93 QCURVE SMOOTH",
"50 80 OFFCURVE",
"50 63 QCURVE SMOOTH",
"50 58 OFFCURVE",
"52 52 QCURVE",
"61 30 OFFCURVE",
"99 7 OFFCURVE",
"122 7 QCURVE SMOOTH",
"140 7 OFFCURVE",
"173 22 OFFCURVE",
"184 37 QCURVE SMOOTH",
"217 83 LINE",
"241 116 LINE",
"247 111 OFFCURVE",
"263 98 OFFCURVE",
"267 93 QCURVE SMOOTH"
);
}
);
userData = {
assembly = "NPUSHB[ ]\011/* 33 values pushed */
70 52 12 2 4 2 1 1 76 0 1 1 2 97 0 2 2 34 77 0 0 0 40 0 78 75 74 48 46 38 3 8 23 
CALL[ ]\011/* CallFunction */";
};
width = 479;
}
);
note = x;
unicode = 0078;
},
{
glyphname = y;
lastChange = "2019-04-02 08:55:06 +0000";
layers = (
{
layerId = "D6A4831D-747C-4592-93C0-305F4CD57904";
paths = (
{
closed = 1;
nodes = (
"34 -292 LINE",
"40 -296 OFFCURVE",
"64 -309 OFFCURVE",
"73 -313 QCURVE",
"116 -330 OFFCURVE",
"159 -330 QCURVE SMOOTH",
"213 -330 OFFCURVE",
"293 -273 OFFCURVE",
"308 -215 QCURVE SMOOTH",
"320 -169 OFFCURVE",
"331 -78 OFFCURVE",
"337 4 QCURVE SMOOTH",
"340 44 LINE SMOOTH",
"345 105 OFFCURVE",
"349 229 QCURVE SMOOTH",
"352 322 LINE SMOOTH",
"354 376 OFFCURVE",
"302 386 QCURVE",
"298 387 OFFCURVE",
"289 387 QCURVE SMOOTH",
"256 387 OFFCURVE",
"239 349 QCURVE SMOOTH",
"225 318 OFFCURVE",
"199 285 QCURVE",
"191 274 OFFCURVE",
"180 274 QCURVE SMOOTH",
"166 274 OFFCURVE",
"161 295 QCURVE SMOOTH",
"149 348 OFFCURVE",
"144 393 QCURVE SMOOTH",
"141 422 OFFCURVE",
"97 461 OFFCURVE",
"69 461 QCURVE SMOOTH",
"48 461 OFFCURVE",
"32 450 QCURVE",
"28 447 OFFCURVE",
"20 432 OFFCURVE",
"20 426 QCURVE SMOOTH",
"20 424 LINE",
"25 402 OFFCURVE",
"37 358 QCURVE SMOOTH",
"43 335 OFFCURVE",
"48 318 QCURVE",
"63 263 OFFCURVE",
"142 191 OFFCURVE",
"196 185 QCURVE SMOOTH",
"221 182 OFFCURVE",
"240 157 OFFCURVE",
"239 134 QCURVE SMOOTH",
"235 70 LINE SMOOTH",
"226 -72 OFFCURVE",
"217 -143 QCURVE SMOOTH",
"208 -214 OFFCURVE",
"141 -270 OFFCURVE",
"69 -272 QCURVE",
"61 -273 OFFCURVE",
"39 -280 OFFCURVE",
"32 -282 QCURVE"
);
}
);
userData = {
assembly = "NPUSHB[ ]\011/* 14 values pushed */
18 1 3 1 8 1 0 2 57 1 4 0 3 76 
MPPEM[ ]\011/* MeasurePixelPerEm */
PUSHB[ ]\011/* 1 value pushed */
39 
LT[ ]\011/* LessThan */
IF[ ]\011/* If */
NPUSHB[ ]\011/* 29 values pushed */
0 1 3 1 133 0 2 3 0 3 2 0 128 0 3 3 33 77 0 0 0 4 97 0 4 4 35 4 78 
ELSE[ ]\011/* Else */
NPUSHB[ ]\011/* 31 values pushed */
0 1 3 1 133 0 3 2 3 133 0 2 0 2 133 0 0 4 4 0 89 0 0 0 4 97 0 4 0 4 81 
EIF[ ]\011/* EndIf */
NPUSHB[ ]\011/* 12 values pushed */
52 50 38 36 32 30 25 23 18 5 8 23 
CALL[ ]\011/* CallFunction */";
};
width = 409;
}
);
note = y;
unicode = 0079;
},
{
glyphname = z;
layers = (
{
layerId = "D6A4831D-747C-4592-93C0-305F4CD57904";
paths = (
{
closed = 1;
nodes = (
"181 112 OFFCURVE",
"203 124 OFFCURVE",
"210 130 QCURVE SMOOTH",
"302 212 OFFCURVE",
"344 254 QCURVE",
"354 265 OFFCURVE",
"370 302 OFFCURVE",
"366 306 QCURVE",
"352 322 LINE",
"339 340 OFFCURVE",
"314 360 OFFCURVE",
"294 361 QCURVE SMOOTH",
"219 367 OFFCURVE",
"138 389 QCURVE SMOOTH",
"126 392 OFFCURVE",
"115 392 QCURVE SMOOTH",
"99 392 OFFCURVE",
"75 380 OFFCURVE",
"61 367 QCURVE",
"78 339 OFFCURVE",
"128 318 OFFCURVE",
"166 312 QCURVE SMOOTH",
"192 307 LINE",
"200 305 OFFCURVE",
"221 297 OFFCURVE",
"226 295 QCURVE",
"223 289 OFFCURVE",
"214 269 OFFCURVE",
"209 264 QCURVE SMOOTH",
"196 251 OFFCURVE",
"123 186 QCURVE SMOOTH",
"80 147 LINE SMOOTH",
"50 119 OFFCURVE",
"50 98 QCURVE SMOOTH",
"50 82 OFFCURVE",
"70 60 QCURVE SMOOTH",
"99 29 OFFCURVE",
"126 24 QCURVE SMOOTH",
"163 18 OFFCURVE",
"200 18 QCURVE SMOOTH",
"330 18 OFFCURVE",
"442 90 QCURVE",
"446 93 OFFCURVE",
"453 110 OFFCURVE",
"453 117 QCURVE SMOOTH",
"453 121 OFFCURVE",
"452 122 QCURVE",
"445 131 OFFCURVE",
"423 146 OFFCURVE",
"415 145 QCURVE",
"397 141 OFFCURVE",
"350 126 QCURVE",
"320 115 OFFCURVE",
"297 109 QCURVE SMOOTH",
"273 102 OFFCURVE",
"228 102 QCURVE SMOOTH",
"208 102 OFFCURVE",
"176 106 OFFCURVE",
"175 109 QCURVE"
);
}
);
userData = {
assembly = "NPUSHB[ ]\011/* 45 values pushed */
39 1 3 2 58 50 32 3 0 3 2 76 0 3 2 0 2 3 0 128 0 2 2 33 77 0 0 0 1 98 0 1 1 34 1 78 47 46 43 41 46 33 4 8 24 
CALL[ ]\011/* CallFunction */";
};
width = 467;
}
);
note = z;
unicode = 007A;
},
{
glyphname = braceleft;
layers = (
{
layerId = "D6A4831D-747C-4592-93C0-305F4CD57904";
paths = (
{
closed = 1;
nodes = (
"115 7 LINE",
"113 -9 OFFCURVE",
"113 -16 QCURVE SMOOTH",
"113 -67 OFFCURVE",
"163 -128 QCURVE SMOOTH",
"170 -136 OFFCURVE",
"197 -149 OFFCURVE",
"235 -161 OFFCURVE",
"242 -163 QCURVE",
"248 -164 OFFCURVE",
"271 -151 OFFCURVE",
"276 -145 QCURVE",
"279 -140 OFFCURVE",
"264 -120 OFFCURVE",
"262 -117 QCURVE",
"259 -113 OFFCURVE",
"238 -95 OFFCURVE",
"236 -89 QCURVE",
"217 -40 OFFCURVE",
"217 5 QCURVE SMOOTH",
"217 29 OFFCURVE",
"224 62 QCURVE",
"240 121 OFFCURVE",
"240 173 QCURVE SMOOTH",
"240 249 OFFCURVE",
"200 312 QCURVE SMOOTH",
"197 317 OFFCURVE",
"197 324 QCURVE SMOOTH",
"197 337 OFFCURVE",
"204 346 QCURVE",
"236 382 OFFCURVE",
"236 439 QCURVE SMOOTH",
"236 459 OFFCURVE",
"232 499 QCURVE SMOOTH",
"228 543 OFFCURVE",
"214 608 QCURVE SMOOTH",
"209 631 OFFCURVE",
"201 679 QCURVE SMOOTH",
"199 693 OFFCURVE",
"199 699 QCURVE SMOOTH",
"199 739 OFFCURVE",
"253 791 OFFCURVE",
"303 801 QCURVE SMOOTH",
"314 803 OFFCURVE",
"327 815 OFFCURVE",
"327 823 QCURVE SMOOTH",
"327 832 OFFCURVE",
"317 841 QCURVE",
"288 865 OFFCURVE",
"256 865 QCURVE SMOOTH",
"250 865 OFFCURVE",
"236 863 QCURVE",
"99 838 OFFCURVE",
"99 714 QCURVE SMOOTH",
"99 674 OFFCURVE",
"114 608 QCURVE",
"124 552 OFFCURVE",
"127 529 QCURVE SMOOTH",
"130 507 OFFCURVE",
"130 484 QCURVE SMOOTH",
"130 443 OFFCURVE",
"101 377 OFFCURVE",
"64 350 QCURVE",
"50 339 OFFCURVE",
"50 330 QCURVE SMOOTH",
"50 319 OFFCURVE",
"66 309 QCURVE",
"73 305 OFFCURVE",
"105 289 OFFCURVE",
"109 281 QCURVE SMOOTH",
"136 222 OFFCURVE",
"136 181 QCURVE SMOOTH",
"136 162 OFFCURVE",
"132 147 QCURVE",
"122 101 OFFCURVE",
"104 7 QCURVE"
);
}
);
userData = {
assembly = "NPUSHB[ ]\011/* 12 values pushed */
47 35 29 3 1 0 1 76 72 1 1 73 
MPPEM[ ]\011/* MeasurePixelPerEm */
PUSHB[ ]\011/* 1 value pushed */
44 
LT[ ]\011/* LessThan */
IF[ ]\011/* If */
NPUSHB[ ]\011/* 11 values pushed */
0 0 1 0 133 0 1 1 34 1 78 
ELSE[ ]\011/* Else */
NPUSHB[ ]\011/* 9 values pushed */
0 0 1 0 133 0 1 1 118 
EIF[ ]\011/* EndIf */
PUSHB[ ]\011/* 7 values pushed */
75 74 26 24 2 8 22 
CALL[ ]\011/* CallFunction */";
};
width = 377;
}
);
note = braceleft;
unicode = 007B;
},
{
glyphname = braceright;
layers = (
{
layerId = "D6A4831D-747C-4592-93C0-305F4CD57904";
paths = (
{
closed = 1;
nodes = (
"155 -163 LINE",
"182 -163 OFFCURVE",
"236 -136 OFFCURVE",
"272 -93 OFFCURVE",
"273 -71 QCURVE SMOOTH",
"274 -41 OFFCURVE",
"270 17 QCURVE SMOOTH",
"267 60 LINE",
"265 90 LINE SMOOTH",
"264 105 OFFCURVE",
"260 198 OFFCURVE",
"261 236 QCURVE SMOOTH",
"262 284 OFFCURVE",
"315 325 QCURVE",
"325 332 OFFCURVE",
"339 358 OFFCURVE",
"338 369 QCURVE",
"337 376 OFFCURVE",
"312 394 OFFCURVE",
"299 397 QCURVE SMOOTH",
"265 406 OFFCURVE",
"240 431 OFFCURVE",
"243 459 QCURVE SMOOTH",
"249 513 OFFCURVE",
"253 535 QCURVE",
"255 553 OFFCURVE",
"267 645 OFFCURVE",
"270 683 QCURVE SMOOTH",
"272 709 OFFCURVE",
"272 723 QCURVE SMOOTH",
"272 775 OFFCURVE",
"248 812 QCURVE SMOOTH",
"202 880 OFFCURVE",
"91 902 QCURVE",
"83 904 OFFCURVE",
"57 896 OFFCURVE",
"50 894 QCURVE",
"52 889 OFFCURVE",
"57 868 OFFCURVE",
"63 862 QCURVE SMOOTH",
"64 861 OFFCURVE",
"91 845 QCURVE",
"106 838 OFFCURVE",
"117 830 QCURVE SMOOTH",
"136 817 OFFCURVE",
"156 800 OFFCURVE",
"157 791 QCURVE",
"162 757 OFFCURVE",
"162 709 QCURVE SMOOTH",
"162 672 OFFCURVE",
"160 654 QCURVE",
"159 636 OFFCURVE",
"149 591 OFFCURVE",
"148 584 QCURVE",
"136 530 OFFCURVE",
"136 503 QCURVE SMOOTH",
"136 425 OFFCURVE",
"202 362 QCURVE",
"154 295 OFFCURVE",
"154 230 QCURVE SMOOTH",
"154 215 OFFCURVE",
"155 207 QCURVE SMOOTH",
"163 146 OFFCURVE",
"169 22 QCURVE SMOOTH",
"171 -7 LINE SMOOTH",
"173 -43 OFFCURVE",
"146 -93 OFFCURVE",
"107 -108 QCURVE",
"101 -110 OFFCURVE",
"83 -124 OFFCURVE",
"75 -130 QCURVE",
"91 -138 OFFCURVE",
"98 -143 QCURVE",
"101 -144 OFFCURVE",
"113 -152 OFFCURVE",
"134 -161 OFFCURVE",
"144 -162 QCURVE SMOOTH"
);
}
);
userData = {
assembly = "NPUSHB[ ]\011/* 15 values pushed */
25 18 5 3 0 74 0 0 0 118 75 74 1 8 22 
CALL[ ]\011/* CallFunction */";
};
width = 388;
}
);
note = braceright;
unicode = 007D;
},
